<?xml version="1.0" standalone="no"?>
<!DOCTYPE svg PUBLIC "-//W3C//DTD SVG 1.1//EN" "http://www.w3.org/Graphics/SVG/1.1/DTD/svg11.dtd" >
<svg xmlns="http://www.w3.org/2000/svg">
<metadata></metadata>
<defs>
<font id="genial_medium_condensedRg" horiz-adv-x="1292" >
<font-face units-per-em="2048" ascent="1638" descent="-410" />
<missing-glyph horiz-adv-x="358" />
<glyph horiz-adv-x="2048" />
<glyph horiz-adv-x="2048" />
<glyph unicode="&#xd;" horiz-adv-x="2048" />
<glyph unicode=" "  horiz-adv-x="358" />
<glyph unicode="&#x09;" horiz-adv-x="358" />
<glyph unicode="&#xa0;" horiz-adv-x="358" />
<glyph unicode="!" horiz-adv-x="520" d="M207 66q0 -66 53 -66q55 0 55 66q0 63 -55 63q-53 0 -53 -63zM207 1354q6 28 42.5 61t51.5 2q-15 -948 -20 -1138q-2 -13 -24 -32q-23 -19 -26 1q-10 222 -24 1106z" />
<glyph unicode="&#x22;" horiz-adv-x="260" d="M14 1079q1 10 13.5 106.5t7.5 145.5q5 25 37 56q41 41 57 8q-11 -132 -68 -291q-6 -14 -26 -29q-19 -14 -21 4zM141 1079q1 10 13.5 106.5t7.5 145.5q5 25 37 56q41 41 57 8q-11 -132 -68 -291q-6 -14 -26 -29q-19 -14 -21 4z" />
<glyph unicode="#" horiz-adv-x="800" d="M23 506q0 20 30.5 49t52.5 29q18 0 56 -2t57 -2q28 136 57 292q-55 -4 -165 -8q-21 3 -21 17q0 20 31 48.5t53 28.5q19 0 59.5 -2t61.5 -2q2 10 10 62t12 75t14.5 60t22.5 63q9 18 37 40t43 22q10 0 10 -12q0 -9 -6 -27q-14 -22 -32 -92t-29.5 -127.5t-11.5 -63.5l200 7 q33 162 66 247q6 13 33.5 38.5t44.5 25.5q12 0 12 -27q-21 -47 -53 -182l-27 -102q156 0 156 -25q0 -12 -14 -24.5t-27 -12.5q-2 0 -4.5 1t-3.5 1q-39 0 -121 -4l-72 -311h43q131 0 131 -25q0 -12 -14 -24.5t-27 -12.5q-2 0 -4.5 1t-3.5 1q-49 0 -139 -4q-4 -16 -15 -65.5 t-20 -84t-21.5 -74.5t-26.5 -61.5t-28 -21.5q-8 0 -8 10l61 293q-67 -4 -225 -16q-2 -8 -13 -59t-18.5 -78.5t-20 -66.5t-25.5 -58t-27 -19q-9 0 -9 10q34 149 58 267q-79 -6 -160 -9q-20 3 -20 17zM276 580l220 6q14 80 26 133q16 76 31 174l-207 -14q-13 -50 -35.5 -149.5 t-34.5 -149.5z" />
<glyph unicode="$" horiz-adv-x="1196" d="M168 154q0 36 17 72t42 36q9 0 9 -10q0 -8 -9.5 -34.5t-9.5 -41.5q0 -62 33.5 -117t85.5 -92t111.5 -60t115.5 -28q0 70 -4.5 201.5t-5.5 183.5l-4 187q-56 39 -96 70t-86 76t-74.5 87.5t-48 97.5t-19.5 113q0 41 4 61q13 68 79.5 148.5t142.5 122.5l67 37v137 q4 18 30 48t46 30q12 0 18 -15q0 -58 4 -168q8 4 13 4l-4 101q4 18 29.5 48t45.5 30q13 0 19 -15q0 -25 1 -73.5t1 -71.5q14 2 45 2q66 0 122 -22t101.5 -67.5t71.5 -124t26 -183.5q0 -96 -40.5 -180.5t-90.5 -84.5q-28 0 -44.5 31t-16.5 88q4 18 26 44t42 26q12 0 18 -14 q0 -5 -1 -16.5t-1 -16.5q0 -13 10 -6q8 6 8 79q0 51 -7.5 98t-27 94t-50 82.5t-79 59.5t-110.5 29q0 -82 -1 -244t-1 -243q0 -156 6 -312q58 -40 92.5 -65t77 -61.5t65 -67t38.5 -69.5t16 -79q0 -84 -86.5 -161.5t-202.5 -104.5q-1 -8 -1.5 -30t-1.5 -36.5t-3.5 -36t-6 -36 t-9 -28.5t-14 -21t-19.5 -7q-8 0 -8 11q8 76 8 172q-32 -4 -54 -4q-1 -9 -3 -41t-4.5 -49.5t-7.5 -41.5t-15.5 -35.5t-24.5 -11.5q-8 0 -8 11q8 110 8 168q-50 4 -102 17.5t-105.5 40.5t-94.5 64.5t-67 94t-26 123.5zM221 227v2v-2zM295 928q0 -175 252 -365q-6 323 -21 645 q-82 -31 -142.5 -86.5t-78.5 -124.5q-10 -42 -10 -69zM616 1231q0 -110 1 -330t1 -328v-61q14 -12 37 -27q-5 333 -22 750zM621 401q8 -212 8 -323q0 -101 -6 -203q17 0 49 4q0 69 -6 199.5t-7 185.5q-2 37 -2 115q-8 4 -24 16zM729 -113q28 6 56.5 14.5t68.5 26.5t65 48.5 t25 68.5q0 39 -12 72.5t-37.5 63.5t-47 49.5t-61 50.5t-57.5 47q4 -172 4 -256q0 -124 -4 -185z" />
<glyph unicode="%" horiz-adv-x="849" d="M45 821q0 136 26.5 253t70.5 184t94 67q12 0 18 -2q8 -5 8 -18q0 -21 -21 -48.5t-36 -27.5q-2 0 -7.5 1t-7.5 1q-45 0 -77 -225q-13 -93 -13 -134q0 -98 27.5 -174.5t60.5 -76.5q26 0 56.5 58.5t51.5 156.5t21 198q0 43 -6 85t-22.5 76t-40.5 34q-13 0 -19 -2q-8 0 -8 8 q0 16 10.5 26t19.5 12.5t15 2.5q32 0 54 -30.5t32.5 -79.5t14.5 -92t4 -85q0 -90 -23.5 -190.5t-71 -176t-104.5 -75.5q-34 0 -59.5 24.5t-39.5 65.5t-21 87.5t-7 96.5zM154 -4q0 1 1 3.5t1 4.5q27 59 54.5 125t61 152t50.5 127q303 723 366 868q9 16 36.5 35.5t41.5 19.5 q10 0 10 -10t-6 -25q-141 -295 -313 -702q-16 -37 -75.5 -177t-100 -229t-84.5 -174q-24 -24 -37 -24q-6 0 -6 6zM483 211q0 136 26.5 253t70.5 184t94 67q12 0 18 -2q8 -5 8 -19q0 -21 -21 -48.5t-36 -27.5q-2 0 -7 1.5t-7 1.5q-46 0 -78 -226q-12 -86 -12 -133 q0 -98 27.5 -175t60.5 -77q26 0 56.5 59t51.5 157t21 198q0 70 -17.5 132t-52.5 62q-12 0 -18 -2q-9 0 -9 9q0 16 11 26t20 12.5t15 2.5q32 0 54 -30.5t32 -79.5t14 -92t4 -85q0 -90 -23.5 -190.5t-71 -176t-104.5 -75.5q-34 0 -59.5 24.5t-39.5 65.5t-21 87.5t-7 96.5z" />
<glyph unicode="&#x26;" horiz-adv-x="770" d="M23 201q0 141 194 381q-98 171 -98 299q0 105 78.5 199t167.5 94q56 0 84 -50.5t28 -122.5q0 -52 -14.5 -103.5t-47.5 -108.5t-54 -88t-66 -93q33 -61 82.5 -133t80 -112t93.5 -121q0 -2 2 -2q49 118 49 301q4 18 30 47.5t46 29.5q12 0 18 -14q-3 -249 -104 -416 q89 -118 145 -151q0 -1 1 -3.5t1 -4.5q0 -14 -15 -25.5t-30 -11.5q-49 28 -143 139q-50 -67 -125 -107t-156 -40q-93 0 -170 59.5t-77 157.5zM104 258q0 -87 67 -138.5t155 -51.5q102 0 159 63q13 13 33 41l-121 150q-72 87 -155 219q-4 -5 -19 -25t-20 -26.5t-18.5 -25.5 t-18.5 -28t-16 -27t-16 -29t-12 -28t-10 -31t-5.5 -30.5t-2.5 -32.5zM186 924q0 -48 19 -107q25 -89 67 -166l4 6q4 7 31 45t38.5 58t30 58t26.5 77.5t8 83.5q0 49 -24.5 86t-70.5 37q-58 0 -93.5 -57t-35.5 -121z" />
<glyph unicode="'" horiz-adv-x="139" d="M33 1079q2 28 9.5 79t11 94t-0.5 79q5 25 37 56q41 41 57 8q-11 -136 -67 -291q-6 -14 -26 -29q-18 -11 -21 4z" />
<glyph unicode="(" horiz-adv-x="528" d="M164 125q-62 494 26 940q66 338 236 518q22 20 39.5 26t24.5 -1t1 -24.5t-26 -39.5q-77 -79 -120 -187t-73 -249q-102 -459 -39 -938q21 -164 56 -283t112 -217q6 -14 -13.5 -34.5t-31.5 -8.5q-150 176 -192 498z" />
<glyph unicode=")" horiz-adv-x="577" d="M101 -371.5q6 17.5 26 39.5q53 55 93 133t59.5 145t39.5 158q102 459 39 938q-21 164 -56 283t-112 217q-6 14 14 34.5t32 8.5q150 -176 192 -498q62 -491 -27 -940q-66 -339 -235 -518q-22 -20 -39.5 -26t-24.5 1t-1 24.5z" />
<glyph unicode="*" horiz-adv-x="536" d="M45 1081q0 24 26.5 49t51.5 25q8 0 12 -2l101 -104q-1 38 -11 217q4 18 30 47.5t46 29.5q12 0 18 -14l-4 -328l131 129q13 13 27 13q8 0 8 -6q0 -8 -8 -19q-65 -79 -147 -164l24 -24l137 -162q0 -12 -14 -24.5t-27 -12.5q-6 0 -15 4t-19.5 12t-20 15.5t-22.5 20t-20 19.5 l-20 20l-16 16l-8 -238q-2 -9 -16.5 -25t-24.5 -16q-8 0 -8 10l-12 301l-127 -129q-30 -24 -47 -24t-17 16t25 47l147 138q-48 43 -172 145q-8 8 -8 18z" />
<glyph unicode="+" horiz-adv-x="591" d="M68 585q24 34 59 48q8 4 14 4q16 -2 34.5 -3t41.5 -1.5t35 -1.5q-8 168 -14 252q6 28 42.5 61t51.5 2l-4 -317q98 -4 164 -11q16 -8 -0.5 -26t-30.5 -23l-133 -12q-3 -125 -9 -256q-2 -14 -24 -32q-21 -16 -25 1q-6 92 -14 283l-178 -10q-36 5 -10 42z" />
<glyph unicode="," horiz-adv-x="378" d="M135 39q0 80 74 80q15 0 29 -26t14 -50q0 -40 -20 -90t-44 -82.5t-38 -32.5q-5 0 -5 12q0 16 22.5 57.5t22.5 86.5q-31 0 -43 14t-12 31z" />
<glyph unicode="-" horiz-adv-x="362" d="M2 231q-24 24 10.5 58.5t63.5 36.5q43 -10 132 -15.5t132 -15.5q16 -8 -0.5 -26t-30.5 -23q-28 -2 -95 -7t-116.5 -7.5t-95.5 -0.5z" />
<glyph unicode="." horiz-adv-x="378" d="M139 66q0 32 19.5 47.5t50.5 15.5q14 0 30.5 -16.5t16.5 -46.5q-3 -66 -72 -66q-25 0 -36.5 18.5t-8.5 47.5z" />
<glyph unicode="/" horiz-adv-x="624" d="M-3 1q1 1 1 3q28 64 57 139t62.5 165.5t52.5 140.5q300 766 379 958q13 26 52 50q40 26 39 0q0 -10 -7 -27q-149 -338 -324 -775q-18 -44 -62 -155.5t-68.5 -171.5t-63.5 -149.5t-74 -162.5q-14 -18 -33 -25q-13 -6 -11 10z" />
<glyph unicode="0" horiz-adv-x="727" d="M31 358q0 145 29.5 262t91.5 240q25 50 57.5 94t82.5 79.5t101 35.5q20 0 41 -6q12 -6 12 -19q0 -23 -30 -49t-54 -26q-5 0 -14.5 2t-13.5 2q-28 0 -52.5 -18.5t-41.5 -48t-29.5 -57.5t-22.5 -55q-3 -8 -4 -12q-75 -199 -75 -383q0 -68 11 -131.5t35.5 -124t71.5 -97 t111 -36.5q61 0 105.5 43.5t82.5 112.5q99 176 99 385q0 42 -4 88.5t-16 105.5t-31.5 104.5t-55 77t-80.5 31.5q-10 0 -30 -4q-11 0 -11 9q0 18 17 28.5t31.5 12.5t27.5 2q44 0 79 -23.5t57 -58.5t38.5 -84.5t24.5 -91.5t12.5 -90.5t5 -71.5t0.5 -43q0 -17 -6 -55.5 t-20.5 -94.5t-35.5 -116.5t-54.5 -120.5t-73 -107.5t-95.5 -77.5t-118 -30q-73 0 -125.5 37t-79.5 100.5t-39 132t-12 147.5z" />
<glyph unicode="1" horiz-adv-x="301" d="M51 686q0 17 19 41h-2q16 23 22 35q6 13 19.5 54.5t25.5 72t34.5 56.5t49.5 26q12 0 12 -21q-26 -180 -47 -606q-14 -259 -14 -332q0 -14 1 -38.5t1 -36.5q-2 -9 -16.5 -25t-24.5 -16q-18 0 -18 251q0 90 14 410l6 162l-6 -8q-30 -37 -61 -37q-15 0 -15 12z" />
<glyph unicode="2" horiz-adv-x="610" d="M76 623q14 144 55 255.5t131 190.5q31 27 74 46.5t72 19.5q38 0 66 -25.5t43.5 -68t22.5 -88.5t7 -95q0 -74 -18 -147t-53.5 -144.5t-68.5 -126t-83 -132t-76 -122.5q-9 -17 -30.5 -45t-27.5 -37q15 4 40 16t40 17q54 15 97 15q157 0 157 -123q-2 -9 -16.5 -25t-24.5 -16 q-8 0 -8 10q0 44 -42.5 63t-92.5 19q-108 0 -211 -82q-22 -14 -35 -14q-12 0 -12 12q0 38 22 71t86 114t125 179q160 256 160 457q0 48 -10 99t-37.5 94t-67.5 43q-51 0 -89.5 -41.5t-58.5 -105.5t-29.5 -118t-12.5 -102q-2 -22 -29.5 -53t-48.5 -31q-13 0 -16 21z" />
<glyph unicode="3" horiz-adv-x="575" d="M47 752q0 4 4 20q39 110 117.5 187t191.5 77q73 0 114.5 -62t41.5 -136q0 -83 -46.5 -180.5t-111.5 -176.5q58 -44 88.5 -115.5t30.5 -152.5q0 -62 -23.5 -122t-77.5 -105t-126 -45q-27 0 -53 15t-43.5 34.5t-36 52t-27.5 52t-22 50.5v5q0 13 12 26.5t24 13.5q2 0 5 -1 t4 -1q89 -178 196 -178q41 0 67.5 30.5t26.5 92.5q0 69 -30.5 151t-73.5 132l-12 -10q-18 -16 -50 -31t-57 -15q-45 0 -45 50q0 56 29 88t74 32q27 0 57 -12l31 -14q45 62 80.5 146t35.5 145q0 106 -112 159q-4 0 -11.5 1t-11.5 1q-61 0 -103 -41.5t-63 -105.5 q-8 -18 -38 -44t-46 -26q-10 0 -10 13zM180 436q0 -15 11.5 -21.5t19.5 -6.5q7 0 18.5 4.5t14.5 5.5q2 1 28 22q-37 29 -61 29q-11 0 -21 -8t-10 -25z" />
<glyph unicode="4" horiz-adv-x="552" d="M61 266q0 24 12.5 65.5t33 94t20.5 53.5q73 203 137 355q4 9 19.5 51.5t29.5 76t33.5 72.5t41 61.5t42.5 22.5q12 0 12 -18q-32 -246 -47 -680q36 4 51 4q46 0 46 -14q0 -13 -15.5 -25t-27.5 -12h-13q-34 -10 -43 -11q-12 -234 -12 -249q0 -72 8 -127q-2 -22 -29.5 -53 t-48.5 -31q-5 0 -9 4.5t-6 13t-3.5 17.5t-1.5 22.5v22.5v22.5v18.5q0 49 16 294v23q-129 -39 -215 -90q-9 -6 -16 -6q-15 0 -15 22zM121 336q90 40 190 65q22 316 43 514q-13 -28 -36 -81q-99 -222 -137.5 -317.5t-59.5 -180.5z" />
<glyph unicode="5" horiz-adv-x="509" d="M43 156q2 9 15.5 24t23.5 15q6 0 10 -9q-2 -8 -2 -22q0 -63 34.5 -114.5t65.5 -51.5q43 0 78.5 49t56 120t31.5 140.5t11 120.5q0 112 -33 169.5t-88 57.5q-67 0 -109 -82q-7 -11 -26.5 -29t-32.5 -18q-9 0 -12 17q10 137 10 245q0 94 -6 185q5 23 25.5 46t43.5 23 q11 0 15 -2v-2q44 -12 98 -12q94 0 145 43q27 18 41 18q13 0 13 -14q0 -35 -47.5 -68t-115 -52t-128.5 -19q0 -119 -10 -266l14 10q57 47 127 47q42 0 72.5 -23.5t46 -63.5t22 -81.5t6.5 -89.5q0 -72 -21 -160.5t-56.5 -169.5t-90 -135.5t-114.5 -54.5q-44 0 -75.5 53 t-37.5 156z" />
<glyph unicode="6" horiz-adv-x="487" d="M41 252q0 261 92 569q18 60 33 99t45 85.5t68 75.5q3 2 8.5 6t9 6.5t8.5 4.5t10 2q10 0 21.5 -9t11.5 -20q0 -25 -25 -49t-51 -27q-66 -112 -106.5 -284t-52.5 -336q35 57 91.5 105t108.5 48q55 0 88 -61.5t33 -142.5q0 -77 -26 -155t-79 -135t-120 -57q-46 0 -80.5 26 t-52.5 69t-26.5 88t-8.5 92zM113 215q22 -184 120 -184q33 0 57.5 21.5t38 57.5t19.5 75t6 81q0 187 -96 187q-41 0 -74 -43.5t-49 -94.5t-22 -100z" />
<glyph unicode="7" horiz-adv-x="546" d="M66 831q8 67 56.5 113.5t111.5 66t133 19.5q120 0 125 -65q0 -27 -8 -58t-17.5 -52t-25.5 -55t-23 -50q-77 -185 -131.5 -387.5t-104.5 -456.5q-4 -8 -17.5 -21.5t-21.5 -13.5t-8 10q59 426 189 774q4 11 28 62.5t41 99.5t17 78q0 17 -11.5 28t-33.5 15t-36 5t-38 1 q-37 0 -84 -11t-47 -30q0 -3 1 -8t1 -8q0 -4 -2 -4q-8 -17 -34.5 -44.5t-43.5 -27.5q-14 0 -16 20z" />
<glyph unicode="8" horiz-adv-x="532" d="M57 182q0 103 34.5 182t107.5 158q-57 45 -88 111.5t-31 138.5q0 66 34.5 137.5t97.5 122.5t134 51q56 0 96.5 -48.5t40.5 -147.5q0 -37 -6 -69.5t-22 -64t-26.5 -51t-40 -52t-39.5 -43t-46 -46.5q5 -4 31.5 -24t33 -25.5t28 -24t28.5 -27.5t21.5 -27.5t19 -33.5 t9.5 -35.5t5 -41.5q0 -29 -16 -83t-44.5 -115.5t-78.5 -106t-109 -44.5q-70 0 -122 68t-52 141zM123 225q0 -58 43.5 -125t97.5 -67q38 0 72.5 41t54 97t19.5 105q0 20 -5 39t-10 33t-19.5 31t-21.5 26t-28 25.5t-27.5 21t-31.5 22t-29 20.5q-115 -131 -115 -269zM160 821 q0 -78 27 -131t81 -100q45 44 70 73t48 77t26 100v8q0 61 -35 106t-88 45q-59 0 -94 -51.5t-35 -126.5z" />
<glyph unicode="9" horiz-adv-x="516" d="M51 526q0 59 15.5 141t44 167t79.5 143.5t113 58.5q42 0 73 -29t48 -77t25 -100.5t8 -110.5q0 -138 -26.5 -307.5t-63.5 -280.5q-28 -82 -79 -150.5t-106 -68.5q-54 0 -100 80q0 27 23.5 55.5t52.5 28.5q10 0 21.5 -16.5t26.5 -36t32 -23.5l4 2q14 14 26.5 39.5t18 43.5 t15.5 53t11 40q41 146 60 324q-36 -68 -97.5 -128.5t-115.5 -60.5q-43 0 -76 55t-33 158zM129 582q0 -76 16 -138.5t52 -62.5q25 0 47.5 12.5t41 38.5t32 48.5t28 61.5t20.5 57t17 54q2 23 2 70q0 39 -4.5 76.5t-15.5 81.5t-36.5 71t-62.5 27q-36 0 -64.5 -51t-43 -122.5 t-22 -131t-7.5 -92.5z" />
<glyph unicode=":" horiz-adv-x="307" d="M100 66q0 32 19.5 47.5t50.5 15.5q14 0 30.5 -16.5t16.5 -46.5q-3 -66 -72 -66q-25 0 -36.5 18.5t-8.5 47.5zM111 526q0 32 19 48t50 16q14 0 30.5 -17t16.5 -47q-3 -65 -71 -65q-25 0 -36.5 18t-8.5 47z" />
<glyph unicode=";" horiz-adv-x="405" d="M152 520q0 32 19 48t50 16q14 0 30.5 -17t16.5 -47q-3 -65 -71 -65q-25 0 -36.5 18t-8.5 47zM156 39q0 80 73 80q15 0 29 -26t14 -50q0 -40 -20 -90t-44 -82.5t-38 -32.5q-4 0 -4 12q0 16 22.5 57.5t22.5 86.5q-31 0 -43 14t-12 31z" />
<glyph unicode="&#x3c;" horiz-adv-x="763" d="M143 532q0 20 13 44.5t24.5 38.5t39 42.5t30.5 32.5q216 244 274 316q32 28 56 28q14 0 14 -12t-19 -41q-40 -48 -85 -97t-109 -117.5t-88 -94.5q-48 -64 -74 -90q53 -86 168 -231t158 -208v-6q0 -12 -12.5 -26.5t-24.5 -14.5q-4 0 -8 4q-39 46 -117 132t-137 158 t-103 142z" />
<glyph unicode="=" horiz-adv-x="763" d="M99 726q24 34 59 48q8 4 14 4q159 -14 473 -26q16 -8 -0.5 -26.5t-30.5 -23.5q-56 -2 -159 -6.5t-187 -7.5t-159 -4q-36 5 -10 42zM101 419q24 34 59 48q8 4 14 4q178 -16 473 -27q16 -8 -0.5 -26t-30.5 -23q-56 -2 -159 -6.5t-187 -7.5t-159 -4q-36 5 -10 42z" />
<glyph unicode="&#x3e;" horiz-adv-x="706" d="M145 121q0 13 19 41q40 48 85 97t109 117.5t88 94.5q48 64 74 90q-53 86 -167.5 230.5t-157.5 207.5v7q0 12 12 26.5t24 14.5q4 0 9 -5q38 -46 116.5 -132t137 -158t102.5 -142q0 -20 -13 -44.5t-25 -38.5t-38 -41.5t-31 -32.5q-216 -244 -274 -316q-31 -28 -55 -28 q-15 0 -15 12z" />
<glyph unicode="?" horiz-adv-x="757" d="M158 1030q10 55 30.5 108.5t51.5 103t77.5 80t100.5 30.5q69 0 124 -54t82 -128.5t27 -147.5q0 -54 -17 -92t-55 -88.5t-59 -89.5q-13 -23 -41 -71t-39 -69t-26.5 -58.5t-21 -73.5t-5.5 -79q0 -29 2 -43q-2 -9 -16.5 -25t-24.5 -16q-12 0 -12 80q-1 72 20 131.5t70 147.5 q33 61 77 123t61.5 96.5t17.5 81.5q0 67 -24 131.5t-75 111t-118 46.5q-31 0 -52 -14.5t-33.5 -49t-16 -50.5t-9.5 -60q-1 -7 -2 -11q-8 -17 -34.5 -44t-43.5 -27q-14 0 -16 20zM297 49v8q3 27 18 43.5t39 16.5q22 0 37 -16t15 -40q0 -25 -17.5 -42t-40.5 -17t-37 12.5 t-14 34.5z" />
<glyph unicode="@" horiz-adv-x="915" d="M61 258q0 237 111 467q26 56 61.5 107.5t80 97.5t99.5 74t111 28q97 0 176.5 -91.5t119.5 -218.5t40 -251q0 -79 -18 -158q-8 -35 -28 -78t-55 -81.5t-71 -38.5q-21 0 -39.5 14t-31 32.5t-25 50t-19 51.5t-15.5 53t-11 40q-1 1 -12 47q-26 -52 -93 -145 q-32 -44 -74.5 -80.5t-78.5 -36.5q-27 0 -43.5 20.5t-16.5 51.5q0 15 2 23q27 117 87.5 213.5t154.5 150.5q18 6 27 6q12 0 12 -10q0 -15 -21.5 -43t-39.5 -37q-47 -26 -96.5 -115.5t-49.5 -146.5q0 -23 12 -35l7 -6q1 0 3 -1t3 -1t3 1t3 1q63 42 109 114.5t71 155.5 q-3 11 -8 45q0 23 26 54.5t50 31.5q12 0 18 -12q41 -297 125 -391q4 -4 8 -4q43 68 43 186q0 111 -34 235t-80 201q-34 57 -85.5 94.5t-105.5 37.5q-38 0 -74 -19t-62.5 -46t-53 -68.5t-42.5 -73t-34 -72.5q-76 -169 -76 -369q0 -96 22 -192t62.5 -177t105.5 -131.5 t142 -50.5q61 0 126 46t81 110q4 6 18 18.5t21 12.5q6 0 6 -12q-25 -95 -122 -163.5t-179 -68.5q-77 0 -145 51.5t-112.5 133t-70 178.5t-25.5 190z" />
<glyph unicode="A" d="M84 391q0 114 25 249t78 275.5t126 254.5t180 187t228 73q71 0 132.5 -32.5t105.5 -85.5t77.5 -123.5t53 -142.5t28.5 -147q-2 -22 -29.5 -53t-48.5 -31q-13 0 -16 21q-6 60 -23 125.5t-47.5 135.5t-70 125t-96.5 90.5t-121 35.5q-81 0 -151.5 -39.5t-121 -103.5 t-92 -148.5t-67.5 -171.5t-43.5 -175t-25 -157t-7.5 -119q0 -140 29 -258t74 -190.5t95.5 -112t98.5 -39.5q147 0 333 285q104 159 148 255.5t51 211.5q4 18 30 48t46 30q12 0 18 -15q-10 -150 -10 -307q0 -198 23 -342l3 -22q3 -21 5 -32t6 -33.5t10 -36t13.5 -28.5 t17.5 -22.5t22 -7.5q5 0 9 4q61 68 112 266q2 8 17 22.5t24 14.5q6 0 6 -12q-10 -56 -26.5 -112t-41.5 -116t-62.5 -97.5t-80.5 -37.5q-27 0 -47 20.5t-33 65.5t-17.5 69t-11.5 77q-2 14 -3 20q-28 182 -31 399q-49 -118 -115 -229.5t-141.5 -203t-159 -146.5t-157.5 -55 t-137.5 59t-104 151.5t-63.5 201t-23 212.5z" />
<glyph unicode="B" horiz-adv-x="1273" d="M45 860q0 76 27 156q48 146 164 251t259.5 154t299.5 49q71 0 138 -10t137 -36.5t121.5 -68t84.5 -111.5t33 -159q0 -161 -105 -304t-264 -236q130 -66 207.5 -179t77.5 -270q0 -67 -16.5 -125.5t-49 -106t-88 -75t-127.5 -27.5q-62 0 -120.5 19t-104.5 48.5t-92 75 t-79.5 88.5t-70.5 99q0 15 11.5 30t25.5 15q2 0 4.5 -1t3.5 -1q40 -53 70.5 -90t76.5 -81t89.5 -70.5t102.5 -45t122 -18.5q92 0 132 51.5t40 149.5q0 93 -26 169t-74 130t-104 91t-128 66q-120 -43 -178 -53q-8 -172 -9 -256q0 -14 1.5 -43t1.5 -43q-2 -9 -16.5 -25 t-24.5 -16q-12 0 -17.5 104t-5.5 179q0 46 3 92q-42 0 -78.5 20t-36.5 54q0 62 33.5 90t93.5 35q22 237 86 518q5 20 33.5 49t46.5 29q14 0 14 -27q-70 -257 -108 -567q123 -12 235 -62q141 74 241.5 201.5t100.5 269.5q0 170 -132 266.5t-353 96.5q-117 0 -227.5 -32.5 t-198.5 -91.5t-141.5 -150.5t-53.5 -200.5q0 -67 30.5 -141t82.5 -95q6 2 12 2q12 0 12 -10q0 -27 -33 -56.5t-53 -29.5q-45 0 -90 82q-49 83 -49 184zM510 528q0 -21 19.5 -34t50.5 -13l4 60h-27q-47 0 -47 -13zM649 483q34 5 109 27q-53 16 -105 25q-4 -32 -4 -52z" />
<glyph unicode="C" horiz-adv-x="1177" d="M68 403q0 251 75 491.5t226 401.5q158 168 338 168q170 0 290 -164q78 -108 115 -253.5t37 -290.5q0 -121 -37 -191q-14 -29 -50.5 -60.5t-66.5 -31.5q-57 0 -57 139q0 46 5 89.5t9.5 66t16.5 78.5q5 20 23 44.5t30 24.5q8 0 8 -28q-29 -85 -29 -195q0 -119 46 -119 q16 0 16 82q0 53 -4 109.5t-16 130t-31 140t-52 132t-75.5 113t-105.5 77t-138 29.5q-206 0 -360 -305q-67 -132 -108.5 -295.5t-41.5 -322.5q0 -310 160 -481q129 -140 327 -140q136 0 270.5 66.5t225.5 173.5q59 71 115 215q4 6 18 18.5t21 12.5q6 0 6 -13 q-6 -16 -9.5 -25.5t-7.5 -21t-6 -16t-6.5 -15t-6 -13t-7.5 -14.5l-8 -16t-10.5 -20t-12.5 -24q-55 -102 -158.5 -187t-231 -134.5t-249.5 -49.5q-92 0 -169 27.5t-129.5 76.5t-91.5 109.5t-60.5 132.5t-32 140.5t-10.5 137.5z" />
<glyph unicode="D" horiz-adv-x="1445" d="M74 803q0 121 55.5 244t144.5 217t209 153.5t240 59.5q121 0 229 -61.5t186.5 -164t136 -232.5t86 -269.5t28.5 -272.5q0 -86 -15 -170t-44 -162.5t-75.5 -145t-106 -116.5t-139 -78t-171.5 -28q-242 0 -336 235q0 12 12 27.5t25 15.5q7 0 10 -6q93 -215 307 -215 q121 0 213 48t146.5 130.5t81 184t26.5 217.5q0 175 -51 354.5t-131 312.5q-84 140 -202.5 227t-262.5 87q-102 0 -196 -42.5t-163.5 -113.5t-111 -171t-41.5 -210q0 -108 44.5 -205t131.5 -133q28 -12 49 -12q15 0 33.5 11t23.5 11q13 0 13 -12q0 -47 -42 -73.5t-79 -26.5 q-66 0 -118.5 37t-83 96t-46.5 124t-16 128zM584 252q0 289 41 704q2 17 5 65.5t6.5 78t11.5 71t24 73.5t39 56q29 29 57 31q2 0 5 -1t5 -1q13 -7 13 -18q0 -27 -41 -60q-10 -17 -23 -108q-49 -263 -80 -768q-8 -102 -8 -160q0 -35 2 -53q-2 -9 -16.5 -25t-24.5 -16 q-16 0 -16 131z" />
<glyph unicode="E" horiz-adv-x="1118" d="M33 438q0 17 27 43.5t44 34.5l119 21q20 155 70.5 304.5t116.5 256.5q226 370 446 370q205 0 279 -245q-2 -21 -26.5 -51.5t-47.5 -30.5q-13 0 -21 8q-14 92 -83 166t-154 74q-40 0 -74 -19q-97 -56 -175.5 -149.5t-130.5 -206t-84 -229.5t-46 -238q63 11 389 61 q16 2 62.5 10.5t87.5 13.5t77 5q84 0 84 -19q0 -11 -15 -23.5t-26 -12.5q-7 0 -21 1t-22 1q-38 -3 -88 -11t-103.5 -18.5t-72.5 -13.5q-265 -50 -360 -70q-2 -31 -2 -88q0 -134 39 -237t108 -165.5t157.5 -94t192.5 -31.5q121 0 233.5 38t168.5 115q18 21 35 21q6 0 6 -6 q0 -7 -9 -19q-71 -102 -207 -157.5t-284 -55.5q-132 0 -231.5 42.5t-160 120t-90.5 180t-30 228.5q0 29 4 95l-162 -35q-20 2 -20 16z" />
<glyph unicode="F" horiz-adv-x="1132" d="M55 1008q0 85 43.5 160t113.5 127t157 90.5t175.5 56.5t168.5 18q132 0 266 -45q40 -13 88.5 -41t96 -66t79 -87.5t31.5 -96.5q0 -13 -4 -27t-7.5 -22t-11 -21t-8.5 -16q-12 -18 -38.5 -36.5t-41.5 -18.5q-10 0 -10 10q0 4 13.5 36.5t13.5 49.5q-34 98 -122.5 169.5 t-194.5 104.5t-216 33q-85 0 -174.5 -21t-170.5 -60.5t-133 -108.5t-52 -154q0 -83 36.5 -167t92.5 -138q0 -1 1 -3.5t1 -4.5q0 -12 -14 -24.5t-27 -12.5h-4q-63 54 -105.5 147t-42.5 169zM373 346q2 16 11.5 32t28 32t36 29t47 29.5t47 26t50.5 26t44 22.5q7 360 57 622 q5 20 33.5 49t46.5 29q14 0 14 -20v-6q-60 -277 -73 -637q226 104 323 104q23 0 55.5 -9.5t32.5 -27.5q0 -12 -14 -24.5t-27 -12.5q-4 0 -32 17q-134 0 -338 -103q-2 -57 -2 -170v-225q0 -88 2 -145t15 -134t38 -126h4q8 0 8 -11t-15 -24t-26 -13q-60 0 -82 275 q-20 210 -20 483v49q-93 -51 -217 -133q-22 -14 -37 -14q-10 0 -10 10z" />
<glyph unicode="G" horiz-adv-x="1157" d="M80 442q0 71 12.5 158.5t38.5 184t63 191t90 180.5t114.5 151.5t141.5 104t167 38.5q49 0 84.5 -26t54 -69.5t27 -90.5t8.5 -99q0 -39 -9 -104q-9 -17 -34.5 -44.5t-42.5 -27.5q-14 0 -17 21q13 72 13 110q0 47 -8.5 88.5t-26 77t-49 56t-72.5 20.5q-82 0 -159.5 -60 t-135 -155.5t-101.5 -210.5t-66.5 -229.5t-22.5 -208.5q0 -78 14 -148.5t45.5 -135.5t79 -111.5t119.5 -74.5t161 -28q101 0 205.5 38t157.5 103q7 222 26 363q17 133 84 174q12 6 21 6q26 0 39.5 -39.5t13.5 -103.5q0 -100 -34.5 -207.5t-69.5 -153.5l-17 -327 q-1 -6 -4.5 -65.5t-7.5 -90.5t-14 -81t-28.5 -82t-45.5 -48q-6 -4 -14 -4q-9 0 -9 6q0 12 23 35q12 32 18.5 72t8 66t2.5 77.5t2 68.5l6 289q-195 -164 -406 -164q-203 0 -324.5 128.5t-121.5 381.5zM1010 233q39 60 57 236v14v15.5v14t-0.5 14.5t-1.5 13t-2.5 13.5t-3 11.5 t-4.5 12t-6 9q-11 -46 -17 -109q0 2 1 17t1 16q-22 -227 -24 -277z" />
<glyph unicode="H" horiz-adv-x="1259" d="M43 922q0 155 87.5 302t227.5 216q54 26 115 26q53 0 89.5 -23t55 -66.5t26 -93.5t7.5 -118q0 -100 -7 -216t-12.5 -175t-22 -209t-19.5 -180l61 45q203 141 318 141q91 0 137 -79q7 177 30 501t29 420q4 18 30 48t46 30q13 0 19 -14q-10 -120 -38.5 -398.5t-43.5 -492 t-16 -416.5q0 -256 44 -338q2 -2 5 -3.5t5 -3t3.5 -4t2.5 -5.5q0 -12 -14.5 -24.5t-27.5 -12.5q-25 0 -42.5 52t-25 133.5t-10 144t-2.5 120.5q0 115 2 172q-8 -4 -12 -4q-5 0 -9 4q-48 107 -145 107q-127 0 -354 -186l-7 -86q-10 -142 -10 -187q0 -82 17 -149 q-2 -10 -15 -25.5t-24 -15.5q-17 0 -24 63.5t-7 120.5q0 126 8 227q-108 -92 -172 -137q-22 -14 -35 -14q-12 0 -12 12t12.5 33t26.5 33q61 41 184 139q6 86 21.5 238t25 279.5t9.5 240.5q0 35 -1.5 61t-5.5 63.5t-15 64t-27.5 52t-44 38.5t-64.5 13q-49 0 -97 -26.5 t-81 -69.5q-43 -53 -77 -137t-34 -160q0 -34 11.5 -76.5t33.5 -42.5q15 -6 15 -18q0 -20 -30 -46t-48 -30q-72 0 -72 142z" />
<glyph unicode="I" horiz-adv-x="700" d="M84 -279q-22 3 -22 16q0 14 24 40q28 30 49 39q137 24 209 35.5t188 24t211 13.5q16 -8 0 -26t-30 -23q-304 -39 -629 -119zM289 1266q-22 3 -22 16q0 14 23 38q28 30 50 40q34 4 92 12t91.5 12t91.5 10q53 5 86 5q3 -1 6 -1q34 0 92 -3q8 -4 8 -11q-1 -6 -9 -15 q-16 -18 -30 -23q-171 -13 -479 -80zM391 535q4 220 26 384t87 314q13 26 52 50q20 12 29.5 12t9.5 -12q0 -11 -7 -28q-80 -174 -104.5 -374t-24.5 -465q0 -324 30 -492q-2 -12 -19 -30q-10 -11 -19 -11q-5 0 -9 4q-53 211 -53 531q0 57 2 117z" />
<glyph unicode="J" horiz-adv-x="1193" d="M61 195q0 53 13 121.5t40.5 143.5t65.5 137.5t94 103t119 40.5q12 0 30 -2.5t44 -9t43.5 -23t17.5 -40.5q-2 -9 -16.5 -25t-24.5 -16q-8 0 -8 10q-19 57 -110 57q-65 0 -115 -49t-75.5 -123t-37.5 -143.5t-12 -128.5t14 -131.5t39.5 -149.5t66.5 -149.5t90 -129.5 t114.5 -91.5t136.5 -34.5q57 0 108.5 24t91 65t68 85.5t51.5 95.5q31 69 53.5 152t34.5 141t21.5 165.5t12 145.5t6.5 167.5t5 150.5q13 427 25 612q-77 -15 -172 -22t-161.5 -8t-196.5 -1q-105 0 -174 7.5t-177 37.5q-8 8 -8 21q0 23 30.5 47.5t51.5 26.5 q72 -31 184.5 -46.5t191 -17.5t220.5 -2q143 0 215 6q0 15 4 39q5 20 33.5 49t46.5 29q14 0 14 -27q-4 -29 -8 -75q72 14 113 34q6 2 12 2t6 -4q0 -7 -11 -22.5t-19 -18.5q-54 -20 -105 -35q-13 -147 -16 -262l-13 -313q-12 -314 -28 -473q-7 -66 -20.5 -137t-38 -155 t-55.5 -161t-76 -149.5t-97 -126t-121.5 -85.5t-146.5 -32q-105 0 -198.5 71t-154 178t-96 228t-35.5 226z" />
<glyph unicode="K" horiz-adv-x="923" d="M68 440q0 12 11.5 27.5t24.5 15.5q8 0 11 -6q6 0 12 6q20 450 104 936q3 19 33 48.5t47 29.5q15 0 15 -27q-99 -513 -123 -921l6 6q2 27 26 52.5t50 25.5q220 248 355.5 414t262.5 360q10 13 34.5 30t37.5 17q10 0 10 -12q0 -9 -6 -27q-216 -314 -627 -756l-43 -49 q100 -197 323 -421t419 -330l53 -6q8 -4 8 -11q0 -10 -15 -23.5t-24 -15.5q-49 3 -95 18.5t-93.5 46t-78 54t-81.5 66.5q-169 141 -296.5 270t-207.5 266l-20 -18q-8 -226 -8 -340q0 -196 43 -305l12 -11q3 3 8 3q12 0 12 -7q0 -14 -13 -25t-27 -15l-13 -5q-4 0 -6 2 q-76 52 -84 394q-2 41 -2 122q0 82 2 123q-21 -14 -41 -14q-8 0 -12 2l-2 2q-2 4 -2 8z" />
<glyph unicode="L" horiz-adv-x="894" d="M100 -147q15 14 25 18l53 18q0 3 2 5q96 377 103 937q1 93 1 175q0 5 1 11q1 79 -7 167q-8 94 -24 174q-4 2 -10 2q-10 10 -10 22q0 16 20 36q34 34 63 36l17 -4q8 -4 12 -12q19 -120 20 -277q0 -20 1 -39q0 -133 -7 -239q-12 -299 -40 -522.5t-95 -448.5l-8 -10 q177 52 336 52q113 0 217 -26q28 -7 67 -22t73.5 -31t76.5 -31.5t77.5 -24.5t73.5 -9h3q36 0 65 12q18 7 18 -2v-2q-3 -16 -25 -35q-3 -3 -5 -4q-45 -21 -95 -25q-11 -1 -21 -1l-79 10q-50 13 -94 29.5t-98 37t-92 29.5q-79 19 -159 21q-12 0 -25 1l-137 -12 q-80 -14 -150.5 -35t-155.5 -53q-33 -9 -33 7q0 24 45 65z" />
<glyph unicode="M" horiz-adv-x="1310" d="M69 1220q45 123 141 203q81 68 158 67q27 0 54 -8q59 -19 106 -81q47 -61 82.5 -169.5t50.5 -193t34 -225.5t26 -182q6 -35 23 -150.5t32 -192.5t35 -149q36 94 69 211.5t51.5 200t47.5 224t43 204.5q1 6 19 101.5t36 168t37 113.5q6 27 37.5 50t52.5 13q18 -18 23 -92 q3 -101 3 -119v-8q0 -26 -2 -110q-2 -100 -3 -119q-2 -146 -2 -271q0 -312 14 -493q7 -94 12 -142.5t22.5 -124t45.5 -134.5l41 -27q2 -4 2 -8q0 -11 -13 -23q-14 -14 -27 -14h-5q-4 2 -15 7t-18.5 10t-11.5 12q-48 81 -69 173.5t-34 225.5q-9 88 -14 193.5t-6 178.5t-2 199 t-2 183v27q0 32 1 83q1 38 1 73t-1 65q-2 61 -11 114q-11 -40 -20.5 -89.5t-19 -109t-12.5 -73.5q-70 -395 -139 -654q-3 -10 -13.5 -49.5t-16.5 -60t-18.5 -58.5t-23 -62.5t-26 -51.5t-31.5 -45q-14 -19 -35 -19q-8 0 -15 9.5t-12.5 24t-9.5 28t-7 25.5l-3 12 q-14 57 -63 307q-15 75 -39 213t-33 184l-25 -145q-22 -121 -37 -194.5t-42 -180.5t-62 -197t-80 -170q-56 -101 -125 -106h-8q-43 0 -83 48q-28 36 -28 67q0 15 7 30q8 16 31 28q16 8 15 -4q0 -2 -1 -5q2 -34 26.5 -71.5t57.5 -41.5q24 0 47.5 23.5t43.5 66.5t36 88.5 t31 105t24 98t18.5 86.5t10.5 54q51 216 79 449q8 76 8 143q0 203 -73 324q-47 68 -113 84q-21 5 -40 5q-28 0 -54 -11q-44 -19 -69.5 -59t-39.5 -88q-11 -38 -11 -77v-19q4 -48 24 -79q9 -18 -8 -45t-40 -38.5t-42 1.5q-29 49 -29 111q0 57 24 124z" />
<glyph unicode="N" horiz-adv-x="1331" d="M68 338q2 9 15 24t23 15q7 0 11 -8q12 -267 43 -416q0 -2 3.5 -18.5t4.5 -22.5t5 -22.5t7.5 -24t9 -21t11.5 -20.5t14 -14.5t18 -11t21 -3.5q16 0 32.5 10t33 29t30.5 38.5t29 46t24 43.5t20 40.5t13 26.5q23 48 33 73q171 430 193 922q-69 156 -146 250h-2q-20 0 -20 10 q0 16 26.5 46t44.5 38q4 0 6 2q20 -1 41.5 -24t31 -39.5t24.5 -46.5l14 -29q31 45 57 45q13 0 21 -14q0 -4 -2 -73t-4 -104q45 -101 95.5 -223t83 -205t89.5 -230.5t82 -211.5q10 -25 28 -76t33.5 -90.5t32.5 -73.5q0 9 1 29t1 29q0 111 -3 333t-3 334q0 248 6 371 q0 11 1 58t2.5 77.5t7.5 79t15.5 80.5t28.5 61.5t45 42.5q6 3 11 3q6 0 6 -5q0 -7 -8.5 -19t-16.5 -19q-39 -86 -39 -267q0 -186 8.5 -537.5t8.5 -539.5q0 -250 -86 -250q-16 0 -34.5 27t-30 56t-25 67t-15.5 43q-29 71 -102 252t-129.5 317t-116.5 268q-52 -412 -199 -745 q-72 -163 -158 -277t-161 -114q-49 0 -80.5 50t-43.5 133.5t-16 158.5t-4 160.5t-1 105.5z" />
<glyph unicode="O" horiz-adv-x="1267" d="M150 434q0 215 73 404q6 115 45.5 225.5t103.5 198t157 141t198 53.5q110 0 201 -47.5t149.5 -124.5t99 -178t57.5 -204t17 -208q0 -85 -17.5 -185t-51 -205t-87.5 -201.5t-120.5 -173t-156 -122t-189.5 -45.5q-99 0 -180.5 40t-136 106t-92 154t-54 181.5t-16.5 190.5z M240 475q0 -96 14 -184.5t47 -171.5t82.5 -144t125 -98t169.5 -37q98 0 183.5 57.5t142.5 146.5t98 197t59.5 207.5t18.5 180.5q0 233 -62 401q-60 160 -181.5 264.5t-260.5 104.5q-74 0 -139 -35t-112 -94t-80 -131.5t-50 -153.5q2 3 29 47q50 78 131.5 134.5t165.5 56.5 q34 0 65 -17.5t37 -46.5q-2 -21 -26.5 -51.5t-47.5 -30.5q-12 0 -20 8q0 20 -27 32.5t-45 12.5q-43 0 -91 -33t-77 -71q-70 -89 -113 -244q3 -66 25 -116l10 -9q0 -14 -10.5 -30.5t-26.5 -16.5q-13 0 -26 23q-8 -68 -8 -158z" />
<glyph unicode="P" horiz-adv-x="1355" d="M55 944q1 128 52 231t137.5 168t198 99.5t239.5 34.5q164 0 305.5 -57t235 -149.5t146 -209t52.5 -236.5q0 -170 -95 -318.5t-273 -232.5q-96 -47 -199 -47q-19 0 -47 4q0 -27 -1 -85.5t-1 -88.5q0 -174 33 -270q-2 -10 -15 -25.5t-24 -15.5q-4 0 -8 4q-11 27 -19.5 57.5 t-14 55.5t-9.5 63t-6.5 60t-3.5 67t-1.5 62.5t-1 68t-0.5 64.5l-6 4q-33 12 -57.5 33.5t-24.5 48.5q0 14 14.5 34.5t32.5 20.5q4 0 4 -6q0 -2 -2 -9t-2 -9q0 -11 14.5 -27t26.5 -23q0 76 15 461q0 7 1.5 89t4.5 121t15.5 98.5t33.5 91.5q37 47 63 47q3 0 15 -4l8 -5 q2 -4 2 -14q0 -24 -25 -49q-11 -53 -19 -118.5t-11 -102t-8.5 -123t-6.5 -105.5q-16 -219 -16 -415q30 -6 63 -6q114 0 199 45q142 72 214.5 189t72.5 251q0 170 -96 317t-256 232.5t-342 85.5q-81 0 -151 -9.5t-140 -35.5t-119 -67t-80 -109.5t-31 -157.5 q0 -81 47.5 -166.5t126.5 -144.5t162 -64q4 2 12 2q17 0 17 -16q0 -24 -30.5 -52t-69.5 -28q-80 0 -163 61.5t-135.5 153.5t-52.5 176zM463 639l2 2z" />
<glyph unicode="Q" horiz-adv-x="1159" d="M66 442q0 187 51 342q6 20 39 107q6 91 25 173.5t57.5 162.5t92 138.5t134 94t178.5 35.5q94 0 174 -35t137 -96t100.5 -139t69 -167.5t38 -177t12.5 -173.5q0 -113 -29 -243t-83 -257.5t-143.5 -234.5t-197.5 -160q84 -31 156 -31q110 0 278 63q12 0 12 -6 q0 -38 -120.5 -74t-206.5 -36q-107 0 -205 53q-63 -17 -117 -17q-96 0 -174 41.5t-129 109.5t-85.5 158t-49 182t-14.5 187zM154 510q0 -67 8 -135.5t25 -142t47.5 -138t72 -118.5t102 -89t134.5 -43q-91 76 -162 189q-174 266 -217 608q-10 -112 -10 -131zM223 870 q0 -77 12.5 -176t44 -225t78 -240t123.5 -219t172 -164q90 17 167.5 82.5t128.5 155t87.5 195.5t53 203.5t16.5 179.5q0 81 -12 164.5t-37 170.5t-67.5 162.5t-97.5 135t-133.5 94t-170.5 34.5q-81 0 -145 -30.5t-104.5 -85t-65.5 -119.5t-37 -144q130 201 303 201 q35 0 66.5 -18t37.5 -47q-2 -21 -26.5 -51.5t-47.5 -30.5q-12 0 -20 8q0 22 -26 33.5t-50 11.5q-45 0 -85.5 -23.5t-71 -63.5t-53 -81.5t-40.5 -89.5v-23z" />
<glyph unicode="R" horiz-adv-x="1345" d="M53 969q0 91 37 173t96.5 140t134 101t150.5 64t145 21q97 0 203 -35t203 -100t175 -150t124.5 -193.5t46.5 -221.5q0 -143 -86 -258t-229 -168q57 -73 159.5 -215.5t149.5 -204.5q1 -1 15.5 -20t23 -29.5t25.5 -30.5t30.5 -32.5t29.5 -26.5t30.5 -20.5t27.5 -6.5h6 q17 25 33 25q6 0 10 -8v-6q-4 -26 -31.5 -43t-50.5 -17t-50 12.5t-48 28t-48.5 44t-40.5 44.5t-37 46.5t-27 33.5q-54 66 -158 200t-158 199q-41 -8 -98 -8q-43 0 -66 4q0 -53 -4 -149t-4 -201q0 -115 25 -137q0 -14 -10.5 -30.5t-26.5 -16.5q-47 0 -47 256v293 q-86 30 -140 92q-57 66 -57 163q0 61 34 96q36 36 93 36q29 0 68 -17v160q0 75 1.5 115.5t11.5 98t30 93.5v-2q13 17 35 31t36 14q13 0 13 -10q0 -14 -17 -37q-10 -42 -16 -93.5t-7.5 -84.5t-2.5 -98t-2 -88l-7 -152l56 -53q112 -121 176 -205q125 37 205 122.5t80 201.5 q0 123 -63.5 247.5t-166 219.5t-240 155t-276.5 60q-53 0 -109.5 -13.5t-112 -43t-99 -70t-70.5 -100.5t-27 -130q0 -81 38 -184.5t95 -144.5h7q14 0 14 -15q0 -18 -26.5 -50t-57.5 -32q-38 0 -70 46t-49.5 109.5t-27 119.5t-9.5 86zM565 606q17 -155 146 -213v170 q-82 62 -131 62q-6 0 -10.5 -6.5t-4.5 -12.5zM780 371q40 -6 84 -6h37l-80 92q-4 4 -11.5 12t-14.5 15t-13 12q0 -82 -2 -125z" />
<glyph unicode="S" horiz-adv-x="1126" d="M98 158q0 48 15.5 81t50.5 33q6 -6 6 -10q0 -6 -13.5 -25t-13.5 -44q0 -55 31 -120.5t66 -97.5q73 -67 170.5 -104t199.5 -37q43 0 102.5 13t120.5 37.5t103.5 67t42.5 93.5q0 27 -10.5 56.5t-24.5 52.5t-40 51.5t-44 45.5t-50.5 43t-45.5 35.5t-43 30.5q-24 17 -77.5 54 t-91 63.5t-92.5 68.5t-93.5 77t-81.5 81.5t-69.5 88.5t-44 92t-17.5 98q0 107 92.5 222.5t239.5 193.5t290 78q92 0 162.5 -32.5t112 -90.5t62 -131t20.5 -160q0 -190 -37 -268q-11 -23 -19 -37t-25 -31.5t-34 -17.5q-68 0 -68 135v30q4 18 18.5 43t26.5 25q9 0 19 -16 q0 -2 -1 -19t-1 -28q0 -55 12 -72q18 60 18 184q0 61 -8 114t-30.5 107t-57 92.5t-92.5 63.5t-133 27q-76 0 -162.5 -29t-159.5 -77.5t-121.5 -119t-48.5 -145.5q0 -41 14 -83.5t33.5 -77.5t54.5 -75t63.5 -67.5t74.5 -64t73 -56.5t73.5 -53t62.5 -45q17 -12 54 -38 t61.5 -43.5t60 -45.5t60 -50t52 -52.5t43.5 -57.5t27 -59t11 -64q0 -90 -75 -165t-182.5 -113.5t-214.5 -38.5q-87 0 -170 24t-152.5 69.5t-112 120.5t-42.5 169zM1042 801q6 0 15 6z" />
<glyph unicode="T" horiz-adv-x="1058" d="M51 1128q0 173 395 213q20 2 72 7q160 12 242 16q0 13 4 37q5 20 33.5 49t46.5 29q14 0 14 -21v-6q-6 -30 -10 -84q71 4 225 16q6 0 35.5 1.5t46.5 2.5t48 3.5t52.5 6.5t47 9t44 12.5t31.5 16.5q3 3 2 7.5t-4 9.5l-2 5q0 11 14 22t27 11q10 0 10 -21q0 -28 -20 -51 t-47.5 -36.5t-65.5 -24t-64.5 -15.5t-54.5 -9q-6 -1 -8 -1q-116 -18 -321 -33l-4 -182q-11 -358 -11 -583v-291q0 -195 21 -334q12 -92 22 -92q5 0 16.5 12t16.5 12q6 0 10 -8q0 -21 -20.5 -43t-44.5 -22q-74 0 -87 460q0 3 -0.5 4.5t-0.5 4v4.5v4v4q-10 379 -10 917 q0 86 2 129q-77 -4 -219 -16q-100 -11 -139.5 -16t-117.5 -21t-133 -39q-2 -6 -2 -22q19 -53 72 -88q2 -4 2 -15q0 -29 -28.5 -52t-55.5 -23q-82 57 -82 124z" />
<glyph unicode="U" horiz-adv-x="1316" d="M70 551q0 163 65 350t164 354q127 215 203 215q55 0 55 -94q0 -59 -5.5 -133.5t-10.5 -116.5t-18.5 -147t-16.5 -131l-23 -238q-6 -55 -6 -170q0 -77 9 -155.5t31 -160.5t54.5 -145t85.5 -103t119 -40q136 0 273 334l43 121q0 19 -1 54t-1 54q0 266 24 621q0 6 1 35 t3 57.5t6 67.5t11.5 71t18.5 61t29 45.5t40 16.5q53 0 53 -203q0 -41 -2.5 -85.5t-7 -105t-6.5 -85.5q-23 -306 -97 -559q0 -62 4 -180q0 -3 0.5 -25.5t1.5 -43t2.5 -52.5t4.5 -60t7 -59.5t10 -56t13.5 -45t18 -32t22.5 -11.5q17 0 39 67q4 6 18 18.5t21 12.5q6 0 6 -8 q0 -34 -46 -90t-79 -56q-39 0 -66 87.5t-35.5 179.5t-8.5 170q-18 -39 -27.5 -58.5t-34.5 -67t-45 -75.5t-53 -67.5t-64 -61.5t-72 -38.5t-83 -16.5q-132 0 -217 167q-94 174 -94 480q0 103 24 393l25 205q25 202 26 264q0 99 -30 110q-79 -89 -148 -239t-106 -293.5 t-37 -239.5q0 -73 30 -94h5q5 3 20.5 23t35.5 36.5t40 16.5q10 0 10 -12q0 -33 -63.5 -95.5t-106.5 -62.5q-61 0 -61 125zM446 1391q0 -2 5 -2q-3 0 -5 2zM1167 559q60 341 60 594q0 67 -15 129q-7 -1 -12.5 -49.5t-9.5 -135.5t-8 -171.5t-8 -196t-7 -170.5z" />
<glyph unicode="V" horiz-adv-x="1220" d="M61 819q0 149 64 299t170 248q120 111 217 111q138 0 195 -226q13 -56 22 -114t13 -130t5.5 -113.5t2.5 -131.5t2 -117q2 -116 4 -163t3 -69.5t5.5 -97t9.5 -182.5q1 -23 2 -43t4.5 -59.5t11 -70.5t18 -62t27 -48.5t37.5 -17.5q37 0 144 265q4 10 6 14q97 246 182 575 q32 120 47 181t32.5 165t17.5 185q0 60 -23 131q-5 16 -31 73.5t-49.5 108t-23.5 51.5q0 47 36 47q53 0 109 -172q35 -104 35 -227q0 -80 -15.5 -179.5t-30 -160.5t-42.5 -170q-3 -10 -17 -65.5t-17.5 -69.5t-17 -64.5t-19.5 -70t-19 -65t-21 -69.5t-21.5 -63.5t-24.5 -68 t-25.5 -62t-28.5 -64.5q-12 -29 -23.5 -56t-36 -74t-48.5 -80.5t-56 -59t-62 -25.5q-18 0 -33.5 8t-27 25t-20.5 33.5t-15.5 44.5t-11 45.5t-8 49.5t-5 44.5t-3.5 41.5t-2 30q-15 187 -27 512q0 15 -2.5 113t-4.5 131.5t-7 108.5t-14.5 131t-22.5 110q-7 31 -14 54t-21 53 t-30 49.5t-42 33t-57 13.5q-62 0 -119 -51t-94 -117q-41 -72 -68.5 -175t-27.5 -204q0 -217 125 -297l22 -4q12 -6 12 -19q0 -24 -31.5 -49.5t-54.5 -25.5q-46 9 -79.5 48t-49.5 83.5t-25 101.5t-10.5 85t-1.5 50z" />
<glyph unicode="W" horiz-adv-x="1404" d="M57 354q0 401 140 752q20 51 44.5 96.5t60 94.5t83 78.5t98.5 29.5q48 0 87.5 -38t63.5 -97t38 -110t20 -97q29 -223 29 -451q0 -180 -31 -637q0 -2 -1 -6t-1 -6q0 -10 4 -26q8 34 19.5 98t15.5 82q18 91 57 259.5t54 241.5q4 22 13.5 51.5t25.5 68.5t41 65t53 26 q12 0 22 -21.5t17 -56.5t12 -66.5t9 -65.5t5 -39q59 -352 103 -517q1 -3 7.5 -31.5t11.5 -47t13.5 -43t17 -37.5t17.5 -13q10 0 19 26t17 75.5t13 84.5t11 91.5t6 58.5q10 87 22.5 244t26.5 284.5t37 241.5q2 7 8 38t9 44.5t10.5 44t13 47t15.5 43.5t19.5 42t23 34t28 29 t33 17t38.5 7q33 0 33 -34q-2 -9 -16.5 -25t-24.5 -16q-8 0 -8 10v6l-6 6q-16 4 -23 4q-55 0 -92 -253q-2 -8 -2 -11q-34 -208 -57 -563q-21 -325 -51 -466q-45 -214 -127 -214t-158 344l-51 242q-10 44 -31 160.5t-37 179.5q-13 -36 -41 -154q-17 -75 -32 -158t-34 -191 t-28 -159q-32 -177 -69 -227q-20 -26 -42 -27q-12 0 -19.5 10.5t-10.5 32.5t-3.5 37.5t-0.5 44.5v4q0 31 2.5 68t5.5 71t4 44q16 349 16 483q0 287 -37 446q-7 30 -10.5 43.5t-14 50.5t-19 57.5t-24 51.5t-31 47.5t-37 29.5t-44.5 13q-36 0 -70 -32t-59 -82t-40 -88.5 t-25 -73.5q-101 -325 -101 -584q0 -43 3.5 -86t13.5 -95t26.5 -90.5t46 -64.5t68.5 -26t79 26t62 64q2 0 2 4q-4 30 26 54t54 24q15 0 15 -27q-19 -82 -109.5 -158t-179.5 -76q-51 0 -89.5 29.5t-60 79.5t-31.5 106.5t-10 118.5z" />
<glyph unicode="X" horiz-adv-x="991" d="M72 -430q0 9 10 22q48 44 98 123t78.5 139t75 165t59.5 133q34 72 95 211.5t69 156.5q-64 137 -180 395q-6 13 -29 64t-33.5 72.5t-30 61t-38 69.5t-39.5 59q0 27 23.5 55.5t52.5 28.5q10 0 14 -2q30 -49 61 -113t50.5 -109.5t52 -125.5t47.5 -115q46 -117 96 -231 q112 241 182 364l54 94q18 31 40 64t56 75.5t71.5 69.5t69.5 27q37 0 62 -33.5t45 -109.5q-2 -21 -26.5 -51.5t-47.5 -30.5q-12 0 -20 8q-26 125 -66 125q-6 0 -13.5 -3.5t-13 -7.5t-13 -12.5t-11.5 -13.5t-11.5 -15t-9.5 -12q-21 -27 -44 -62.5t-38.5 -62t-40 -74 t-33.5 -66t-34 -71t-27 -57.5q-77 -158 -102 -213q57 -123 110 -227q76 -150 116 -208q52 -74 114 -122q0 -1 1 -3.5t1 -4.5q0 -12 -14 -24.5t-27 -12.5h-4q-64 41 -122.5 114.5t-86 123t-79.5 151.5q-5 8 -7.5 13.5t-5.5 11.5l-43 84q-137 -304 -230 -492 q-40 -81 -55 -109.5t-51.5 -93t-71.5 -108.5t-76 -82q-13 -10 -22 -10q-8 0 -8 8z" />
<glyph unicode="Y" horiz-adv-x="1361" d="M70 922q0 68 31.5 141t83 136t106.5 114.5t112 91.5q39 28 93 51t98 23q115 0 115 -187q0 -54 -4 -94q-4 -72 -31 -347t-27 -425q0 -254 84 -254q119 0 244 199q83 128 136.5 282t68.5 312l-11 75q-1 7 -8.5 48t-7.5 63q0 23 4 33v8q4 18 30 48t46 30q12 0 18 -15 q0 -16 -2 -24q0 -84 23 -244t26 -190q19 -201 19 -320q0 -437 -187 -723q-96 -149 -252 -242.5t-325 -93.5q-141 0 -219 84t-78 248q0 211 61 211q7 0 7 -12q-17 -76 -17 -139q0 -166 75 -245t208 -79q79 0 155 22q105 30 189.5 94.5t140.5 149t93.5 189t54 210.5t16.5 216 q0 171 -27 372l-8 58q-64 -275 -221 -486q-57 -78 -136 -144.5t-155 -66.5q-19 0 -37 6q-67 19 -75 238q-2 16 -2 49q0 145 25.5 430t25.5 428q0 44 -5 72.5t-25 51t-56 22.5q-49 0 -115 -38t-125 -95t-100 -132.5t-41 -142.5q0 -59 39.5 -122t105.5 -83q22 15 35 15 q12 0 12 -13q0 -33 -38.5 -62.5t-67.5 -29.5q-49 0 -91.5 39t-64.5 91t-22 98zM262 743q2 3 6 5l-4 -3z" />
<glyph unicode="Z" horiz-adv-x="882" d="M53 1143q0 92 50.5 147.5t162.5 55.5q95 0 222 -27t219 -57q18 -6 60 -21t80.5 -27.5t72.5 -19.5q54 115 112 115q26 0 42 -24.5t16 -59.5q0 -48 -33 -84t-99 -37q-27 -101 -63.5 -271t-63 -285.5t-79.5 -265t-123 -270.5l116 -78q338 -225 547 -225q135 0 135 129 q0 88 -24 92q-4 4 -4 9q0 12 14.5 24t26.5 12q19 0 30 -28t11 -53q0 -56 -31 -118.5t-68 -88.5q-46 -33 -125 -33q-50 0 -120 16q-135 32 -263 98.5t-274 165.5l-16 11q-44 -70 -120.5 -135.5t-152.5 -65.5q-54 0 -93.5 50t-56 112.5t-16.5 122.5q0 72 45.5 122t112.5 50 q38 0 94.5 -28.5t94.5 -56t100 -75.5l18 35q64 131 104 257t56.5 219.5t48 252t70.5 305.5q-18 2 -45 10q-65 15 -205 54.5t-245 60t-208 20.5q-26 0 -34.5 -12t-8.5 -43q0 -88 46.5 -187.5t105.5 -148.5q2 -4 2 -14q0 -29 -28.5 -52.5t-55.5 -23.5q-61 53 -110.5 162.5 t-49.5 206.5zM211 57q0 -48 14.5 -101t49.5 -96.5t81 -43.5h13q39 5 75.5 31t57 52t49.5 70q-12 9 -54.5 42t-63.5 47t-57 35.5t-67.5 30.5t-62.5 9q-35 0 -35 -76zM983 1186h14h11q14 0 14 8q0 26 -23 37z" />
<glyph unicode="[" horiz-adv-x="540" d="M170 164q0 76 3 226.5t3 225.5q0 67 -1 204.5t-1 207.5q0 248 12 410q9 36 52 67q23 13 61 13q11 0 36 -1t36 -1q7 0 19 3t16 3q14 0 20 -15v-2q-4 -37 -29.5 -57t-54 -24.5t-72.5 -4.5q-6 -95 -10 -280q-24 -762 -24 -1141q0 -115 4 -170q22 -12 59 -12q18 0 51.5 4 t36.5 4q12 0 12 -6q0 -54 -143 -54q-70 0 -70 23q-16 167 -16 377z" />
<glyph unicode="\" horiz-adv-x="630" d="M-27 1399q-3 26 32 62q37 37 56 21q4 -3 7 -9q400 -978 567 -1444q-2 -13 -19 -30.5t-28 -6.5q-429 995 -615 1407z" />
<glyph unicode="]" horiz-adv-x="512" d="M111 -238q3 28 16.5 46t37.5 26.5t46.5 11t54.5 2.5q6 95 10 281q25 794 25 1141q0 115 -4 170q-22 12 -59 12q-18 0 -51.5 -4t-36.5 -4q-13 0 -13 6q0 53 144 53q69 0 69 -22q17 -177 17 -377q0 -76 -3.5 -227t-3.5 -226q0 -67 1 -204t1 -207q0 -248 -12 -410 q-10 -38 -51 -68q-22 -12 -61 -12q-12 0 -36 1t-36 1q-8 0 -19 -3t-16 -3q-14 0 -20 14v2z" />
<glyph unicode="^" horiz-adv-x="782" d="M61 233q0 1 5 21q53 116 142 348.5t138 341.5q6 12 23.5 30.5t29.5 18.5q8 0 15 -10q57 -129 147.5 -372t120.5 -318q-2 -10 -15 -25.5t-24 -15.5q-4 0 -8 4q-144 298 -264 606q-8 -21 -90 -247t-131 -339q-9 -15 -35.5 -36t-42.5 -21q-11 0 -11 14z" />
<glyph unicode="_" horiz-adv-x="614" d="M-47 -176q0 23 30.5 47.5t51.5 26.5q86 -16 186.5 -20t221 -4t188.5 -3q8 -4 8 -10q0 -10 -15 -23.5t-24 -15.5q-347 -27 -461 -27q-99 0 -178 8q-8 8 -8 21z" />
<glyph unicode="`" horiz-adv-x="124" d="M-51 963q0 9 3.5 17t8.5 12.5t12 8t12 5t11 2.5l6 2q8 3 16.5 -0.5t19 -10t15.5 -8.5q37 -29 85 -109.5t48 -111.5q0 -10 -7 -17.5t-14.5 -10t-8.5 -1.5q-12 10 -23.5 33t-23.5 39q-12 17 -54 44.5t-74 54.5t-32 51z" />
<glyph unicode="a" horiz-adv-x="454" d="M-23 61q0 42 20 120.5t68 175.5t109 149q-22 67 -61 67q-13 13 -13 29q0 55 54 55q46 0 76.5 -42t42.5 -105t21 -136.5t14.5 -136.5t21 -105t41.5 -42q30 0 55.5 27t41 70t22 65.5t10.5 42.5q2 8 17 22.5t24 14.5q6 0 6 -8q0 -17 -5.5 -40.5t-10.5 -39t-15.5 -43.5 t-13.5 -35q-18 -45 -69.5 -95.5t-96.5 -50.5q-27 0 -47 21.5t-33.5 65t-20.5 79.5t-16 95l-22 -54q-17 -38 -42.5 -83t-67 -93.5t-73.5 -48.5q-37 0 -37 59zM47 88l4 -8q0 -1 1 -2t1 -2q49 49 90 134.5t62 166.5l-6 37l-9 35l-2 -3q-45 -43 -93 -167.5t-48 -190.5z" />
<glyph unicode="b" horiz-adv-x="430" d="M47 377q0 561 139 1020q6 13 33.5 38t44.5 25q12 0 12 -20v-6q-156 -480 -159 -1074q10 83 60.5 148t121.5 65q82 0 82 -157q0 -33 -18 -108t-46 -144q93 21 170 141q5 7 17.5 15t19.5 8q4 0 4 -6q0 -9 -2 -13q-41 -75 -105 -134.5t-134 -78.5q-60 -114 -133 -114 q-25 0 -43.5 17.5t-29.5 51.5t-18.5 70t-10.5 86.5t-4 86t-1 83.5zM123 197q4 -24 5 -31t5.5 -30.5t9 -33.5t11.5 -24.5t17 -20.5t22 -6q9 0 32 39q-74 5 -102 107zM174 303q0 -22 4 -43.5t13 -43.5t28 -37t45 -19q64 145 64 252q0 40 -14 68t-38 28q-31 0 -53 -23.5 t-31.5 -60t-13.5 -66t-4 -55.5z" />
<glyph unicode="c" horiz-adv-x="309" d="M18 111q0 120 42 246.5t126 195.5q35 27 58 27q17 0 26 -12.5t9 -32.5q0 -33 -22.5 -67t-59.5 -42h-7q-16 0 -16 10q0 6 13.5 23t13.5 20q0 4 -4 4q-3 0 -11 -4q-45 -60 -69.5 -149.5t-24.5 -171.5q0 -109 51 -109q33 0 79.5 40.5t84.5 98.5q12 17 28 57t31 64.5t33 24.5 q7 0 7 -12q-23 -87 -74.5 -166.5t-122.5 -128.5q-75 -50 -113 -50q-42 0 -60 41.5t-18 92.5z" />
<glyph unicode="d" horiz-adv-x="569" d="M-20 47q0 57 22 141q20 65 53.5 132t91 132t119.5 83q-2 41 -2 124q0 242 35 625q3 19 33 48.5t47 29.5q14 0 14 -27q-61 -447 -61 -694v-53t1.5 -82t5 -107.5t9 -111.5t15.5 -112.5t23 -91.5t33 -67.5t44 -23.5q27 0 59 49q31 47 56 121t43 117t41 43q6 0 6 -13 q-14 -61 -36 -124t-53.5 -125t-73 -101t-85.5 -39q-23 0 -42.5 17t-33.5 50.5t-24.5 69t-18.5 85.5t-12.5 86t-9.5 85q-27 -78 -68.5 -150.5t-98.5 -126.5t-110 -54q-22 0 -22 65zM53 96q0 -43 10 -43h1q11 0 41 36q31 37 57 77q77 124 108 274q0 13 -20 13q-45 0 -92.5 -65 t-76 -148.5t-28.5 -143.5z" />
<glyph unicode="e" horiz-adv-x="342" d="M33 166q0 56 12.5 125.5t36.5 141t69 119.5t101 48q53 0 53 -63q0 -30 -10 -60q-24 -69 -75.5 -127t-115.5 -84q-4 -40 -4 -61q0 -33 6.5 -66.5t26 -62.5t47.5 -29q33 0 68.5 28.5t65 75t47 79.5t32.5 67q4 6 18 18.5t21 12.5q6 0 6 -13q-43 -125 -133.5 -231.5 t-165.5 -106.5q-50 0 -78 51.5t-28 137.5zM121 344q35 9 69.5 58t34.5 90q0 26 -20 26q-17 0 -32 -23t-22 -44.5t-17 -56.5q-1 -3 -1.5 -6t-1.5 -5q-8 -23 -10 -39z" />
<glyph unicode="f" horiz-adv-x="237" d="M-102 401q0 16 21 42.5t36 35.5q53 24 102 51q8 124 25 291q22 242 42 340q23 113 60 197q21 46 58.5 84.5t79.5 38.5q21 0 35 -13t14 -36q0 -16 -29.5 -53.5t-56.5 -37.5q-5 0 -9.5 4.5t-1.5 10.5q9 17 1 29q-3 5 -7 -1q-19 -29 -34.5 -73.5t-25 -84t-18.5 -101t-13 -94 t-10 -95t-7 -74.5q-18 -143 -27 -289q41 26 84.5 55t105 71t83.5 57q11 8 18 8q6 0 6 -6q0 -18 -20 -35q-132 -109 -281 -211q-16 -352 -16 -532q0 -338 12 -510q-2 -9 -16.5 -25t-24.5 -16q-20 0 -31.5 246.5t-11.5 390.5q0 200 12 399q-72 -46 -121 -70q-16 -4 -20 -4 q-14 0 -14 10z" />
<glyph unicode="g" horiz-adv-x="432" d="M-393 -188q0 15 11.5 30t25.5 15q2 0 4.5 -1t3.5 -1q33 -64 76 -122.5t97.5 -111t121 -84t133.5 -31.5q134 0 182 150q41 124 41 295q0 168 -43 342q-39 -108 -131 -217q-21 -23 -63 -56.5t-70 -33.5q-29 0 -29 49q0 91 54 243t118 228q72 90 117 90q19 0 31 -21 q2 -4 2 -12q0 -25 -25 -51.5t-49 -26.5q-7 0 -16 9q-65 -85 -129 -265q-33 -102 -33 -149q0 -11 2 -17l4 -6q42 14 84.5 74t69 127.5t36.5 122.5q-2 12 -10 31q0 23 26 54.5t50 31.5q34 0 59 -173.5t25 -297.5q0 -120 -22 -225t-64 -188t-110 -131t-154 -48q-73 0 -141 34.5 t-121.5 93.5t-92.5 119.5t-71 129.5z" />
<glyph unicode="h" horiz-adv-x="464" d="M35 47q0 42 6 96q4 58 14 241t17.5 273.5t23.5 241t41 275.5t60 245q6 14 33 39t44 25q13 0 13 -21v-6q-73 -231 -123 -622q-47 -359 -55 -687l34 82q4 9 17.5 53.5t29 89t36.5 92t47.5 77.5t52.5 30q14 0 14 -20v-6q-27 -99 -27 -199q0 -184 47 -246q14 -20 25 -20 q13 0 33 26q24 32 51.5 92.5t47.5 100t38 39.5q6 0 6 -12q-25 -115 -94.5 -215.5t-122.5 -100.5q-36 0 -63 53t-39.5 124t-12.5 143l-53 -137q-5 -13 -16 -44.5t-20.5 -56t-22.5 -51.5t-29 -42t-33 -15q-20 0 -20 63z" />
<glyph unicode="i" horiz-adv-x="333" d="M41 307q0 24 1 70t1 67q4 18 30 48t46 30q12 0 18 -14q-12 -165 -12 -205q0 -177 72 -244l26 -6q54 38 95.5 106t66.5 142q4 6 18 18.5t21 12.5q6 0 6 -13q-36 -158 -182 -301q-36 -36 -78 -36q-38 0 -65.5 34t-40.5 88.5t-18 104t-5 98.5zM55 735q0 24 24.5 55t51.5 31 q13 0 16 -21.5t19 -21.5q4 0 12 1t12 1q27 0 27 -6q0 -24 -36.5 -46.5t-67.5 -22.5q-37 0 -58 30z" />
<glyph unicode="j" horiz-adv-x="215" d="M-573 -219q0 15 11 30t25 15q2 0 5 -1t4 -1q41 -71 82 -127t91 -104.5t108.5 -74.5t121.5 -26q103 0 153 88.5t50 282.5q0 253 -64 604q0 30 1 44.5t9 34t25 36.5q32 28 53 28q15 0 15 -14q0 -7 -8 -27q0 -71 23.5 -277t23.5 -341q0 -185 -35 -289q-35 -108 -113 -172.5 t-176 -64.5q-60 0 -114.5 23t-93.5 55.5t-79 85t-64 93.5t-54 99zM35 811q0 24 24.5 55t51.5 31q13 0 15.5 -21.5t18.5 -21.5q4 0 12.5 1t12.5 1q27 0 27 -6q0 -24 -37 -47t-68 -23q-35 0 -57 31z" />
<glyph unicode="k" horiz-adv-x="401" d="M47 129q0 2 4 14q-2 40 -2 144v16q0 216 51 561q3 19 11.5 80.5t13 89.5t12 77t16 89.5t17.5 79.5q5 20 33.5 49t46.5 29q14 0 14 -21v-6q-32 -122 -86 -424q-57 -320 -69 -637q7 19 30 35.5t35 16.5q1 0 2 -1t4 -2.5t6 -3.5q43 60 64 109l10 43q2 14 24 39.5t38 25.5 q18 0 18 -26q0 -30 -21 -72.5t-52 -89t-38 -59.5q52 -45 123 -154.5t105 -146.5v-7q0 -12 -12.5 -26t-24.5 -14q-4 0 -8 4q-40 36 -116 134.5t-122 137.5l-49 -61q-2 -3 -14 -15q3 -51 22 -104q1 -1 4 -3t4.5 -4t0.5 -6q0 -12 -13 -24t-27 -12q-20 0 -31.5 41.5t-15.5 91.5 q-8 0 -8 12zM106 213l23 27q-4 2 -12 4t-11 4v-35z" />
<glyph unicode="l" horiz-adv-x="348" d="M47 401q0 234 37 498q37 311 98 496q6 13 33.5 38t44.5 25q12 0 12 -20v-6q-78 -228 -117.5 -518t-39.5 -556q0 -226 71 -305q12 -4 17 -4q46 0 111 85.5t83 164.5q2 8 17 22.5t24 14.5q6 0 6 -12q-18 -112 -115.5 -225t-170.5 -113q-111 0 -111 415z" />
<glyph unicode="m" horiz-adv-x="653" d="M27 72q0 69 10 129q2 39 10 158.5t10 185.5q4 18 30 48t46 30q13 0 19 -15q-4 -73 -21 -215t-22 -211q14 39 26 64q8 19 28.5 73t37.5 93t35 73q4 17 18 31l12 19q6 8 24 18t25 10q15 0 15 -26q-21 -134 -54 -377q10 23 38.5 91.5t48.5 113t48 98t54.5 81t50.5 27.5 q12 0 12 -26q-24 -105 -24 -207q0 -75 12 -154q14 -119 59 -133q1 0 3.5 1t3.5 1q31 30 61.5 102.5t54.5 126.5t45 54q7 0 7 -12q-14 -70 -48 -147.5t-82 -135t-90 -57.5q-29 0 -52 36.5t-35 93t-18.5 115t-6.5 111.5q0 7 1 21.5t1 21.5q-4 -9 -36 -92t-50 -123 q-6 -12 -21.5 -50.5t-26 -60.5t-31 -45.5t-44.5 -29.5h-2q-12 7 -15.5 18t-3.5 33q0 33 7.5 85.5t7.5 53.5l14 172q-30 -91 -55 -154q-5 -11 -16 -40t-20 -49.5t-22 -44t-28 -36t-31 -12.5q-20 0 -20 64z" />
<glyph unicode="n" horiz-adv-x="456" d="M26 40v20q0 24 2 46q2 31 5.5 67.5t3.5 47.5q2 34 5 96t6 113.5t7 95.5q6 25 43 58q25 22 38 22q9 0 13 -10q2 -7 1 -18q-8 -49 -15.5 -145t-13.5 -140q-2 -21 -7.5 -63t-7.5 -62l41 98q6 15 20 53t23 63.5t22.5 57.5t25.5 54q12 29 49 61q42 36 45 1q1 -5 0 -11 q-26 -111 -26 -220q0 -71 11 -141q0 -2 2 -15t3.5 -19t4.5 -19.5t5.5 -21.5t7 -19t10 -17.5t12.5 -12.5t15 -9q1 0 3 1t3 1q59 57 123 246q4 13 26 30q21 17 21 -1v-4q-7 -38 -53 -154q-24 -59 -51 -96q-39 -58 -76 -80q-18 -11 -35 -10q-17 0 -34 11q-32 22 -50 91 q-33 115 -33 240l-10 -33l-55 -148q-3 -8 -11 -30t-12.5 -32.5t-13 -27.5t-17.5 -30t-20 -25q-21 -14 -35 -18h-2l-12 6q-6 18 -7 52z" />
<glyph unicode="o" horiz-adv-x="481" d="M43 246q0 132 35 211q12 29 45.5 61.5t60.5 32.5q11 0 25 -10.5t14 -28.5q0 -6 -8 -18q14 11 38 22.5t36 11.5q39 0 67 -24t41.5 -62.5t19 -75.5t5.5 -75q0 -59 -14 -111q35 14 68 53.5t56.5 71t40.5 31.5q5 0 5 -6q0 -7 -3 -13q-77 -146 -192 -200q-30 -57 -80.5 -97 t-105.5 -40q-42 0 -73 22.5t-48 61.5t-25 84t-8 98zM121 309q0 -82 25.5 -154t70.5 -100q6 -2 19 -2q54 0 86 49q-83 0 -131 61.5t-48 153.5q0 68 31 125q-17 -10 -27 -10q-6 0 -8 2q-18 -56 -18 -125zM217 369q0 -70 37.5 -128t99.5 -67q13 54 13 107q0 64 -16.5 119 t-45.5 79q-6 4 -16 4q-37 0 -54.5 -35.5t-17.5 -78.5z" />
<glyph unicode="p" horiz-adv-x="428" d="M-14 35q0 11 13.5 25t23.5 14q4 0 6 -2v2l2 -6l4 102q-6 -2 -12 -2q-11 0 -11 10q0 13 15 37l10 21q7 147 29 356q5 20 33 49t46 29q15 0 15 -27q-19 -142 -33 -262q117 156 223 156q62 0 62 -74q0 -11 -4 -43q-18 -92 -60.5 -183t-109 -163t-138.5 -84q-2 -57 -2 -172 q0 -170 15 -340q-2 -9 -16.5 -25t-24.5 -16q-20 0 -30.5 189t-10.5 317v51q-45 11 -45 41zM16 39l4 10q-4 -8 -4 -10zM102 45q55 2 103.5 51t76.5 113t44 117.5t16 76.5q0 56 -41 56q-23 0 -47.5 -15.5t-42 -35t-38 -53t-30.5 -53.5l-26 -52q-9 -100 -15 -205z" />
<glyph unicode="q" horiz-adv-x="370" d="M-25 78q0 2 5 37q4 47 39 127t96 161t123 109q13 5 18 7.5t7.5 4t8 8.5t13.5 15l16 14q25 21 39 21q12 0 12 -27q-71 -214 -71 -547q0 -108 6 -207q1 -9 2.5 -43t2.5 -47.5t4 -44t7 -48.5t10 -42.5t15 -45t20 -38.5q13 -18 25 -18q32 0 73 36t75 81t79.5 92.5t83.5 64.5 q12 0 12 -6q0 -14 -6.5 -38.5t-19.5 -33.5q-30 -3 -62.5 -30.5t-62.5 -65t-61.5 -75t-70.5 -64.5t-79 -29q-23 0 -44 32t-34.5 78t-21.5 87.5t-11 70.5q-22 222 -22 375q0 63 2 94q-15 -15 -39 -45t-40.5 -49t-44 -35t-56.5 -16q-48 0 -48 80zM49 113q0 -43 12 -43 q37 0 93 75q29 39 57 111q7 80 33 197q-12 -5 -22 -11.5t-19.5 -17.5t-15 -18t-16 -22.5t-15.5 -21.5q-36 -53 -71.5 -125t-35.5 -124z" />
<glyph unicode="r" horiz-adv-x="360" d="M-14 426q0 20 31 48t53 30l12 -4q9 -9 17 -28t11.5 -35t7.5 -39t5 -27q8 -36 10 -52q40 107 74 154q12 22 54.5 62t70.5 40q17 0 28 -17.5t12 -41.5q-3 -14 -17.5 -27.5t-24.5 -13.5q-7 0 -10.5 22.5t-18.5 22.5q-9 0 -18 -6.5t-16 -15t-15 -23t-11.5 -23t-10 -23.5 t-7.5 -17q-51 -111 -65 -232q5 -27 11 -76t7 -57q-2 -18 -20 -41.5t-37 -23.5q-5 0 -13 4q-2 0 -2 -2q0 1 -1 3t-1 3q-16 31 -16 88q-26 120 -51 223q-1 2 -7 29t-13.5 48.5t-16.5 33.5q-12 3 -12 14z" />
<glyph unicode="s" horiz-adv-x="342" d="M41 326q0 75 39 159.5t97.5 141.5t111.5 57q29 0 59 -27q2 -4 2 -12q0 -25 -25 -51.5t-49 -26.5q-10 0 -18 8l-10 11l-15 6q-43 0 -75.5 -80.5t-32.5 -126.5q0 -81 74 -164q3 -5 8 -8q101 85 219 113q12 0 12 -7q0 -9 -14.5 -23.5t-22.5 -16.5q-88 -24 -168 -91 q39 -34 39 -67q0 -50 -50 -99t-101 -49t-51 39q0 44 55 115l18 25q-4 4 -19 17.5t-20.5 19.5t-18 20t-18.5 24.5t-13 25.5t-10 31.5t-3 35.5zM139 39v4v-4zM141 47q10 -4 29 -4q11 4 17 7t11 10t5 18q-7 19 -27 43q-25 -42 -35 -74z" />
<glyph unicode="t" horiz-adv-x="299" d="M-109 752q0 16 21.5 42t36.5 35q41 16 123 56q23 178 24 182q5 20 33.5 49t46.5 29q14 0 14 -21v-6q-24 -126 -32 -192q345 182 477 393q5 6 17.5 14t19.5 8q4 0 4 -6q0 -8 -2 -12q-131 -240 -527 -465q-34 -262 -34 -579q0 -28 2 -61.5t7.5 -73.5t17.5 -66.5t28 -26.5 q6 0 14 4q49 37 97.5 111.5t70.5 138.5q4 6 18 18.5t21 12.5q6 0 6 -8v-4q-21 -67 -65.5 -144.5t-102 -136.5t-102.5 -59q-25 0 -43 32t-26 84.5t-11.5 100.5t-3.5 98q0 245 25 514q-88 -45 -140 -68q-16 -4 -20 -4q-15 0 -15 11z" />
<glyph unicode="u" horiz-adv-x="487" d="M41 135q0 207 22 301q3 19 34.5 49.5t49.5 30.5q15 0 15 -27q-51 -182 -51 -337q0 -64 10 -95q39 31 83.5 97t61.5 122q-2 20 -2 64q0 78 15 152q5 20 33 48.5t46 28.5q15 0 15 -26q-27 -118 -27 -244q0 -59 10.5 -135t20.5 -76q4 0 12 8q101 111 150 205q5 8 19.5 19.5 t21.5 11.5q4 0 4 -6q0 -7 -2 -13q-27 -58 -66 -122.5t-92 -121.5t-92 -57q-13 0 -22.5 11.5t-14.5 31.5t-8 38t-5 41t-3 30l-5 26q-42 -76 -102 -141t-102 -65q-29 0 -29 151z" />
<glyph unicode="v" horiz-adv-x="372" d="M40 272v34.5v42.5q0 47 1 50q4 18 30 48t46 30q12 0 18 -14q0 -37 -5 -112t-5 -115q0 -51 11 -120t26 -69q8 0 22 31q70 184 70 358q0 24 -4 74q-9 -12 -21 -12q-8 0 -8 10q0 24 23 44.5t47 20.5q13 0 20.5 -30t7.5 -54l-8 -92q-23 -231 -84 -354q-20 -40 -51.5 -65 t-48.5 -25q-21 0 -37 19t-25 56t-14.5 72.5t-8 88.5t-2.5 83z" />
<glyph unicode="w" horiz-adv-x="602" d="M29 47q0 265 53 465q8 30 21.5 62t40 64t55.5 32q11 0 26 -6q2 -4 2 -15q0 -19 -14.5 -37.5t-36.5 -29.5q-29 -81 -52.5 -221.5t-23.5 -245.5q0 -101 19 -101q16 0 51.5 51.5t56.5 98.5l17 39q-47 92 -47 164q0 50 26 84t86 34q41 0 41 -63q0 -21 -3 -44t-8 -42t-9.5 -34 t-7.5 -24l-3 -10q31 -71 72.5 -138t65.5 -67q10 0 10 50q0 215 -33 311q-41 7 -41 37q0 27 19 50t45 26q26 0 43 -58q30 -6 69 -6q20 0 113 6q8 -4 8 -10q0 -10 -15 -23.5t-24 -15.5q-17 0 -30 -1t-41 -4t-66 -5q23 -126 23 -221q0 -39 -5 -74.5t-16.5 -69.5t-34.5 -54.5 t-55 -20.5q-28 0 -56 20.5t-48.5 52.5t-31 52.5t-18.5 39.5q-42 -87 -97.5 -146.5t-113.5 -59.5q-32 0 -32 108zM279 420q0 -31 14 -82q12 41 12 80q-3 18 -14 18q-5 0 -8.5 -5t-3.5 -11z" />
<glyph unicode="x" horiz-adv-x="468" d="M-86 -246q0 8 8 20.5t17 18.5q10 7 19.5 15t17 15t16.5 18.5t14 17.5t14.5 20.5t12.5 19t12.5 21.5t11.5 20t12 22t11 20q27 48 73 140t64 126q-25 48 -41.5 77.5t-47 63t-56.5 37.5q-10 -20 -34.5 -46t-41.5 -26q-13 0 -16 23q9 48 53 91.5t90 43.5q28 0 57.5 -28 t48 -59t41.5 -79l29 45q29 48 71.5 87.5t86.5 39.5q12 0 18 -2q12 -6 12 -18q0 -23 -30 -49.5t-54 -26.5q-30 0 -104 -135q26 -58 63.5 -157t45.5 -118q0 -1 1 -3.5t1 -4.5q0 -12 -12.5 -26.5t-24.5 -14.5q-10 0 -56.5 87t-70.5 138q-12 -22 -40.5 -77.5t-44 -84.5 t-44.5 -77t-53.5 -77.5t-58.5 -62.5t-71 -55q-9 -6 -14 -6q-6 0 -6 6z" />
<glyph unicode="y" horiz-adv-x="425" d="M-340 -141q5 14 23 30t26 0q15 -194 115 -299q64 -66 140 -88q31 -8 60 -8q45 0 87 19q71 32 114 116q62 125 62 342v27q0 145 -8 260l-33 -104q-36 -108 -61 -147q-27 -44 -64 -68q-18 -11 -31 -11q-6 3 -11 7.5t-8.5 11t-6.5 11.5t-5 14t-3 14t-2 16t-1.5 14.5t-1 14.5 t-0.5 12q-8 96 -8 233q0 74 2 160q5 25 37 56q23 23 38 23q12 0 19 -15q-1 -19 -6.5 -91t-6.5 -103.5t-2 -88.5q-1 -17 -1 -33q0 -38 3 -70q3 -46 11 -91q101 224 119 401q-6 34 -33 135q-3 26 31 61q26 27 43 27q7 0 13 -5q4 -3 7 -9q52 -191 52 -476q0 -51 -2 -106 q-2 -133 -22 -239.5t-75 -196.5q-40 -64 -106 -123q-79 -66 -173 -66q-25 0 -51 4q-124 22 -194 128q-79 128 -86 301z" />
<glyph unicode="z" horiz-adv-x="499" d="M6 47q0 45 30 89t73.5 78.5t86.5 66.5t73 65t30 62q0 59 -74 59q-87 0 -155 8q-9 9 -9 21q0 23 30.5 47t51.5 26q20 -3 59 -5t66.5 -5t57.5 -11.5t45.5 -27.5t15.5 -49q0 -46 -31.5 -90.5t-76 -79.5t-89.5 -68.5t-76.5 -70t-31.5 -70.5q0 -37 14 -37q32 0 116 13.5 t128 13.5q110 0 160 -66q0 -14 -10.5 -30.5t-26.5 -16.5q-4 0 -8 4q-44 52 -140 52q-28 0 -58 -4t-70.5 -12t-47.5 -9t-36 -7.5t-44 -6.5q-26 0 -39.5 18t-13.5 43z" />
<glyph unicode="{" horiz-adv-x="446" d="M35 516q0 21 21.5 36.5t40 20.5t24.5 5q57 82 57 237q0 48 -7 145.5t-7 143.5q0 69 16.5 123.5t57 91.5t100.5 37q13 0 41 -4q12 -6 12 -19q0 -23 -30 -49.5t-54 -26.5l-7 1q-6 0 -15.5 1t-18.5 1q-20 -59 -20 -150q0 -42 7 -128.5t7 -129.5q0 -91 -30.5 -177.5 t-86.5 -133.5q88 -72 88 -238q0 -49 -9 -146.5t-9 -140.5q0 -47 11.5 -88.5t45 -74.5t84.5 -33q13 0 21 2q12 0 12 -6q0 -24 -25 -34.5t-43 -10.5q-72 0 -117.5 49.5t-45.5 126.5q0 33 5 121.5t5 138.5q0 234 -125 295q-6 6 -6 14z" />
<glyph unicode="|" horiz-adv-x="286" d="M96 573q0 1 6 850q4 18 30 48t46 30q13 0 19 -14q-31 -871 -37 -1669q-2 -9 -16.5 -25t-24.5 -16q-23 0 -23 796z" />
<glyph unicode="}" horiz-adv-x="598" d="M139 -207q0 23 30 49.5t54 26.5l7 -1q6 0 15.5 -0.5t18.5 -0.5q21 62 21 149q0 42 -7.5 128.5t-7.5 129.5q0 91 30.5 178t86.5 134q-88 72 -88 237q0 49 9 146.5t9 140.5q0 47 -11.5 89t-45 75t-84.5 33q-12 0 -20 -2q-13 0 -13 6q0 24 25 34.5t43 10.5q72 0 118 -49.5 t46 -126.5q0 -33 -5 -121.5t-5 -138.5q0 -108 26.5 -184t97.5 -111q7 -7 7 -15q0 -21 -21.5 -36t-40 -20t-24.5 -5q-58 -84 -58 -238q0 -49 7.5 -146t7.5 -142q0 -69 -16.5 -123.5t-57 -91.5t-100.5 -37q-13 0 -41 4q-13 7 -13 18z" />
<glyph unicode="~" horiz-adv-x="845" d="M74 301q0 5 4 21q139 364 254 364q32 0 58.5 -32.5t46 -79t39.5 -92.5t47.5 -78.5t60.5 -32.5q38 9 67.5 60t44.5 106t36.5 100t45.5 45q10 0 10 -10l3 2q-5 -5 -5 -12q-3 -9 -20.5 -65t-25 -77t-24.5 -58.5t-36 -62.5q-73 -98 -139 -98q-39 0 -72 30t-55 74t-41 88 t-40 77.5t-42 37.5h-10q-13 -9 -27.5 -32.5t-28.5 -57t-23.5 -61t-20.5 -60.5l-13 -39q-8 -18 -38 -43.5t-46 -25.5q-10 0 -10 12zM774 647v2v-2z" />
<glyph unicode="&#xa1;" horiz-adv-x="434" d="M160 1167q0 66 55 66q53 0 53 -66q0 -63 -53 -63q-55 0 -55 63zM174 -184q13 851 21 1138q2 14 24 32t25 -1q10 -222 24 -1106q-6 -28 -42.5 -61t-51.5 -2z" />
<glyph unicode="&#xa2;" horiz-adv-x="307" d="M20 162q5 64 32 152t69 157q6 92 6 186q5 25 37 56q41 41 57 8l-10 -146q16 11 47 23q27 8 42 -11.5t15 -47.5q-2 -41 -23.5 -76.5t-58.5 -48.5q-34 -10 -34 6t22 41q-2 0 -2 -2q4 26 2 37q0 2 -4 10q-2 0 -4 2l-10 -16q-6 -73 -21.5 -220t-21.5 -221q56 13 117 102.5 t81 149.5q9 15 28 28q18 11 17 -6v-3q-24 -88 -75.5 -166t-122.5 -127q-34 -24 -49 -31l-6 -135q-2 -13 -24 -32q-23 -19 -26 1q-4 99 -2 148q-24 -3 -45 12q-46 34 -33 170zM100 82q1 44 6.5 124t6.5 101q-48 -145 -13 -225zM217 459h2h-2z" />
<glyph unicode="&#xa3;" horiz-adv-x="923" d="M113 94q0 85 44 155t113 70q50 0 127 -34l2 -2q0 139 -6 219l-10 160h-84q-20 3 -20 16q0 21 30.5 48.5t52.5 29.5q3 0 8.5 -1t8.5 -1q-2 41 -2 127q0 93 6.5 177t25 173t48 153t80 105t116.5 41q75 0 130 -60t55 -163q0 -95 -54 -201q-9 -15 -35 -36t-42 -21 q-11 0 -11 14q0 4 4 20q43 82 43 164q0 42 -14.5 85.5t-48 77.5t-78.5 34q-26 0 -46.5 -13t-34 -45t-22.5 -53t-15.5 -70.5t-7.5 -63t-5 -62.5q-1 -16 -2 -23q-8 -99 -8 -217q0 -100 2 -149l201 -11q8 -4 8 -10q0 -17 -20 -29t-50.5 -16.5t-62.5 -6.5t-60 -3h-14 q4 -168 4 -252q0 -95 -8 -168q57 -31 179.5 -122t193.5 -126q4 -4 8 -4t19.5 11.5t23.5 11.5q6 0 6 -7q0 -24 -29 -41.5t-47 -17.5q-17 0 -39 9t-33.5 16t-40 27.5t-32.5 23.5q-11 7 -45.5 31.5t-56.5 39t-56 36.5t-63 38q-26 -93 -84 -160t-146 -67q-53 0 -79.5 40 t-26.5 103zM180 147q0 -122 88 -122q59 0 86.5 49t40.5 133q-103 47 -159 47t-56 -107z" />
<glyph unicode="&#xa5;" horiz-adv-x="755" d="M29 1221q0 23 25.5 54.5t49.5 31.5q12 0 19 -13q259 -588 274 -624l232 583q6 13 33.5 38.5t44.5 25.5q12 0 12 -21v-6q-163 -407 -285 -719v-90q66 4 101 4q14 -6 14 -18q0 -20 -30 -46t-48 -30h-39q0 -79 -4 -231q70 4 107 4q14 -6 14 -19q0 -20 -30 -45.5t-48 -29.5 h-45q-4 -98 -4 -144q0 -22 -29 -53t-49 -31q-13 0 -16 21q0 68 4 200q-29 -2 -84 -2q-21 3 -21 17q0 21 31 48.5t53 29.5h23q4 152 4 229q-29 -2 -88 -2q-21 3 -21 16q0 20 31 49t53 29h27v31q-2 0 -2 2q-60 154 -150 357t-159 354z" />
<glyph unicode="&#xa6;" horiz-adv-x="172" d="M41 629q6 28 42.5 61t51.5 2q-19 -369 -22 -698q-2 -13 -24 -32q-23 -19 -26 1q-11 100 -15.5 202t-5 262t-1.5 202zM41 1436q6 28 42.5 61t51.5 2q-16 -411 -22 -600q-2 -13 -24 -32q-23 -19 -26 1q-7 204 -22 568z" />
<glyph unicode="&#xa7;" horiz-adv-x="688" d="M59 487q0 88 47.5 163.5t126.5 115.5q-51 37 -79.5 92.5t-28.5 118.5q0 116 76 190t172 74q70 0 125 -44t77 -132q-2 -21 -26 -51.5t-47 -30.5q-13 0 -21 8q-15 70 -69.5 119t-110.5 49q-41 0 -69.5 -33.5t-28.5 -99.5q0 -65 38.5 -130t100.5 -87q14 -5 40 -8t40 -8 q66 -25 125 -97.5t59 -144.5q0 -82 -45.5 -173t-111.5 -128q55 -27 85.5 -83.5t30.5 -121.5q0 -50 -17.5 -101t-48.5 -94.5t-80.5 -70.5t-107.5 -27q-69 0 -127 40t-78 106q0 12 12 27.5t25 15.5q7 0 11 -7q21 -59 70 -90.5t106 -31.5q69 0 117.5 45.5t48.5 128.5 q0 73 -41.5 139.5t-114.5 69.5q-6 0 -29.5 0.5t-29 1t-23 2.5t-26 5.5t-22.5 10t-28 16.5q-56 36 -89.5 111.5t-33.5 144.5zM143 532q0 -55 23.5 -115.5t74 -106.5t113.5 -46q83 0 133 63t50 154q0 72 -41.5 133t-104.5 97l-24 10q-2 0 -7.5 1t-7.5 1q-104 0 -156.5 -52.5 t-52.5 -138.5z" />
<glyph unicode="&#xa8;" horiz-adv-x="303" d="M-29 893q0 40 64 49q26 0 35.5 -8.5t9.5 -30.5q0 -24 -15 -52q-18 -34 -51 -34q-43 3 -43 76zM209 893q0 49 59 49q25 -5 36 -14.5t11 -30.5q0 -30 -20.5 -55t-52.5 -25q-33 0 -33 76z" />
<glyph unicode="&#xa9;" horiz-adv-x="1001" d="M70 643q0 90 11 175.5t34 168t61 150.5t88 120.5t119.5 81.5t151.5 29q89 -2 162.5 -46.5t122 -115t81.5 -162t47.5 -184.5t14.5 -186q0 -100 -16.5 -200.5t-55 -199t-93.5 -174.5t-139.5 -123t-185.5 -47q-51 0 -101 26.5t-89 67.5t-73.5 93t-57.5 100.5t-37 93.5 q-45 143 -45 332zM147 674q0 -206 76 -389q21 -52 51 -99t70 -90t92.5 -68.5t108.5 -25.5q67 0 123 33t93 89t64 123.5t42 144t21.5 142t6.5 125.5q0 130 -20.5 242.5t-64.5 209t-122.5 152.5t-183.5 56q-54 -3 -99.5 -24t-76 -50t-56.5 -74.5t-42 -84.5t-33 -93 q-50 -155 -50 -319zM233 526q0 31 9 105q22 158 217 344q96 92 182 92q49 0 68.5 -23t31.5 -75q-2 -21 -26 -51.5t-47 -30.5q-13 0 -21 8l-12 57q-10 27 -43 27q-67 0 -138 -72t-114 -166.5t-43 -165.5q0 -43 11 -83.5t40.5 -73.5t73.5 -33q45 0 88.5 8t92.5 27.5t78.5 33 t86.5 42.5q6 2 12 2t6 -4q0 -7 -11 -21.5t-19 -19.5q-32 -17 -64.5 -35t-36 -21t-27.5 -14t-34.5 -15t-61.5 -24q-78 -31 -141 -31q-158 0 -158 213z" />
<glyph unicode="&#xaa;" horiz-adv-x="311" d="M27 940q0 47 32 135.5t86 134.5q-14 41 -36 41q-9 6 -9 17q0 35 33 35t52.5 -35.5t26 -86t11 -101.5t14 -86.5t27.5 -35.5q13 0 24.5 8.5t19.5 20.5t15 28t10.5 28.5t7 24.5t3.5 13q0 5 9.5 14t15.5 9q4 0 4 -4q0 -11 -3.5 -25t-7 -24t-10 -25.5t-8.5 -21.5 q-11 -27 -42 -58t-58 -31q-17 0 -29 12.5t-20.5 40.5t-12.5 47t-10 58l-12 -33q-18 -40 -51.5 -87.5t-61.5 -47.5q-20 0 -20 35zM68 956l2 -4q0 -1 1 -2t1 -2q30 30 55.5 83t36.5 102l-4 20l-4 23l-2 -2q-27 -26 -56.5 -101.5t-29.5 -116.5z" />
<glyph unicode="&#xab;" horiz-adv-x="350" d="M20 248q0 12 3 18q15 33 54.5 99.5t55.5 105.5q13 26 52 50q40 26 39 0q0 -10 -7 -27q-52 -99 -94 -160l-27 -37q65 -99 103 -219q-2 -13 -19 -30.5t-28 -6.5q-72 133 -132 207zM156 248q0 14 2 18q15 33 54.5 99.5t55.5 105.5q13 26 52 50q40 26 39 0q0 -10 -7 -27 q-52 -99 -94 -160l-27 -37q65 -99 103 -219q-2 -13 -19 -30.5t-28 -6.5q-74 137 -131 207z" />
<glyph unicode="&#xac;" horiz-adv-x="585" d="M21 503q23 35 53 49q7 3 12 3q58 -3 123.5 -3t145.5 1.5t124 1.5q7 -2 10 -12q6 -27 8.5 -61t2.5 -58.5t-1 -65.5t-1 -59q-1 -29 -35 -67q-34 -39 -45 -16q-3 5 -4 15q0 74 -4 226q-42 0 -120 -1.5t-141.5 -1.5t-119.5 3q-34 5 -8 46z" />
<glyph unicode="&#xad;" horiz-adv-x="362" d="M2 231q-24 24 10.5 58.5t63.5 36.5q43 -10 132 -15.5t132 -15.5q16 -8 -0.5 -26t-30.5 -23q-28 -2 -95 -7t-116.5 -7.5t-95.5 -0.5z" />
<glyph unicode="&#xae;" horiz-adv-x="1009" d="M59 643q0 90 11 175.5t34 168t61 150.5t88 120.5t119.5 81.5t151.5 29q89 0 162.5 -44t122 -114.5t81.5 -163t47.5 -186t14.5 -186.5q0 -102 -16.5 -203t-54.5 -199.5t-93.5 -173.5t-140 -121.5t-186.5 -46.5q-50 0 -100 26.5t-89.5 67.5t-74 93t-57 101t-36.5 93 q-45 143 -45 332zM137 674q0 -206 76 -389q48 -115 131 -197.5t191 -85.5q81 2 144.5 50t101 118.5t62 161.5t33.5 170.5t9 154.5q0 97 -12 188t-41.5 178.5t-73 152t-111.5 104t-153 39.5q-65 0 -120.5 -32.5t-93 -87t-66.5 -121.5t-45 -141t-24 -139.5t-8 -123.5zM207 856 q0 43 44 85.5t93 62.5q14 18 33 32.5t31 14.5q14 0 14 -21v-4q34 6 72 6q66 0 130 -18.5t109 -57t45 -86.5q0 -49 -27 -91.5t-70.5 -72t-80 -47t-74.5 -30.5q86 -146 201 -303v-7q0 -12 -12.5 -26t-24.5 -14q-4 0 -8 4q-25 21 -51.5 47.5t-44.5 46t-46.5 54.5t-40.5 50.5 t-44.5 57.5t-40.5 53h-2q-9 0 -9 8v4q-2 2 -2 4q0 27 23.5 55.5t52.5 28.5q9 0 13.5 -4t8.5 -12t7 -12q40 14 66.5 25t63.5 31.5t56 46.5t19 56q0 31 -26.5 55.5t-66.5 38t-78.5 20.5t-70.5 7q-19 0 -59 -4q-31 -282 -31 -549q0 -35 2 -51q-2 -10 -15 -25.5t-24 -15.5 q-27 0 -27 227q0 196 9 396l-23 -9q-8 -18 -37.5 -43.5t-46.5 -25.5q-10 0 -10 12z" />
<glyph unicode="&#xaf;" horiz-adv-x="22" d="M-106 1613q24 34 59 48l14 4l189 -20q16 -8 -0.5 -26.5t-30.5 -23.5q-109 -9 -221 -24q-36 5 -10 42z" />
<glyph unicode="&#xb0;" horiz-adv-x="811" d="M301 1329q0 38 20.5 71.5t59.5 47.5q20 4 31 4q35 0 57.5 -31t22.5 -71q0 -45 -29 -86t-80 -41q-37 0 -59.5 31.5t-22.5 74.5zM362 1335q0 -21 10.5 -34t22.5 -13t27.5 17t15.5 34q0 18 -11 32.5t-28 14.5q-14 0 -25.5 -15t-11.5 -36z" />
<glyph unicode="&#xb1;" horiz-adv-x="602" d="M92 585q25 34 60 48l14 4q1 0 110 -6q-8 168 -14 252q6 28 42.5 61t51.5 2l-4 -317q98 -4 164 -11q16 -8 -0.5 -26t-30.5 -23l-133 -12q-4 -168 -8 -256q-2 -14 -24 -32q-21 -16 -25 1q-6 92 -14 283l-179 -10q-36 5 -10 42zM100 149q24 34 58 48q8 4 14 4 q26 0 107.5 1.5t136 0t106.5 -7.5q16 -8 0 -26.5t-30 -23.5q-294 -28 -383 -39q-37 5 -9 43z" />
<glyph unicode="&#xb2;" horiz-adv-x="335" d="M2 1071q4 54 21 113t45.5 114t73.5 91t96 36q50 0 76 -47t26 -118q0 -31 -4 -61.5t-15 -63t-18.5 -56.5t-27.5 -60t-28.5 -53t-35 -56t-33.5 -49.5t-37.5 -53t-34.5 -47.5q72 31 117 31q38 0 67 -19.5t29 -58.5q0 -15 -11 -35q-12 -18 -29 -19l-5 6q-5 6 -13 15t-18.5 18 t-25 15t-29.5 6q-63 0 -135 -57q-24 -15 -35 -15q-12 0 -12 12q0 11 33.5 63t75 111.5t45.5 65.5q106 171 106 301q0 23 -3.5 46t-10.5 46.5t-22 38.5t-35 15q-27 0 -47.5 -25t-31 -62.5t-15 -68t-5.5 -55.5q-2 -22 -30 -53t-48 -31q-13 0 -16 20z" />
<glyph unicode="&#xb3;" horiz-adv-x="356" d="M14 1206q0 5 4 21q104 203 240 203q49 0 78 -34t29 -93q0 -63 -24 -140t-69 -137q66 -52 66 -133q0 -50 -17 -104.5t-53.5 -96t-83.5 -41.5q-50 0 -92 44t-53 98q0 12 12 27.5t25 15.5q6 0 10 -7q19 -48 59.5 -75t67.5 -27q29 0 44 27t15 69q0 87 -49 152 q-43 -37 -94 -37q-49 0 -49 51q0 40 21.5 60t58.5 20q38 0 76 -18q57 94 57 186q0 90 -68 109q-51 -1 -74.5 -22.5t-48.5 -74.5q-9 -15 -35 -36t-42 -21q-11 0 -11 14zM121 1001q0 -7 3.5 -13.5t8.5 -6.5q28 0 64 20q-28 21 -56 21q-20 0 -20 -21z" />
<glyph unicode="&#xb4;" horiz-adv-x="61" d="M-82 784q0 32 48 112.5t85 109.5q5 2 15.5 8.5t19 9.5t16.5 0l6 -2q6 -1 11 -2.5t12 -5t12.5 -8t9 -12.5t3.5 -17q0 -19 -25 -46t-54.5 -48t-55 -38t-25.5 -18q-14 -33 -22.5 -45.5t-24.5 -25.5q-1 -1 -8.5 1t-15 9.5t-7.5 17.5z" />
<glyph unicode="&#xb6;" horiz-adv-x="1323" d="M88 965q11 104 66 180q50 69 108 117q47 39 119 66t142.5 39.5t165.5 18.5t159.5 6t155 -1.5t124.5 -1.5q31 -15 -2.5 -52t-60.5 -43q-24 0 -79.5 2.5t-72.5 3.5q8 -322 8 -915t3 -829q-1 -26 -37 -61q-40 -38 -54 -16l-4 13q2 157 35 1808q-152 7 -258 0 q8 -321 7.5 -873.5t2.5 -875.5q-1 -27 -38 -61q-38 -36 -52 -15q-3 5 -4 13q2 213 9.5 605.5t9.5 486.5q-3 -10 -16.5 -21.5t-20.5 -13.5q-180 4 -275 69q-77 53 -114.5 150t-26.5 201zM163.5 872.5q20.5 -97.5 78.5 -163.5q91 -104 293 -115q9 -6 6 -14l16 716 q-195 -17 -285 -82q-73 -53 -101 -148.5t-7.5 -193z" />
<glyph unicode="&#xb7;" horiz-adv-x="403" d="M141 799q0 32 19.5 47.5t50.5 15.5q14 0 30.5 -16.5t16.5 -46.5q-3 -66 -72 -66q-25 0 -36.5 18.5t-8.5 47.5z" />
<glyph unicode="&#xb8;" horiz-adv-x="18" d="M-74 -190q0 13 12.5 26.5t24.5 13.5q3 0 8.5 -5t5.5 -9q24 -16 39 -16q7 0 9 2t2 10q0 40 -19.5 66.5t-46.5 33.5q-12 2 -12 17l-6 100q3 16 28.5 36.5t46.5 20.5q13 0 19 -14l-6 -80q30 -9 48.5 -51.5t18.5 -75.5q0 -45 -31.5 -85t-78.5 -40q-20 0 -41 13.5t-21 36.5z " />
<glyph unicode="&#xb9;" horiz-adv-x="215" d="M33.5 1192.5q-15.5 2.5 5.5 46.5q27 46 49 109q6 26 27 47q26 26 47 28q16 1 14 -22q0 -1 -1 -2t-1 -2v-2v2q-43 -291 -43 -678q-2 -14 -24 -32q-21 -16 -25 1q-22 235 -2 524q-31 -22 -46.5 -19.5zM174 1397q2 0 2 2z" />
<glyph unicode="&#xba;" horiz-adv-x="434" d="M29 1087q0 96 24 156q9 20 34.5 45t45.5 25q7 0 18 -8.5t11 -20.5q0 -2 -6 -14q36 24 53 24q29 0 50 -17.5t31 -45.5t14.5 -55.5t4.5 -55.5q0 -42 -12 -82q26 11 50.5 40t42 52t30.5 23q4 0 4 -4q0 -6 -2 -10q-61 -110 -143 -148q-22 -41 -60 -70.5t-78 -29.5 q-41 0 -67 29.5t-35.5 71.5t-9.5 95zM86 1133q0 -60 19 -113t51 -74q6 -2 14 -2q40 0 63 37q-61 0 -96 45.5t-35 112.5q0 48 23 92q-12 -6 -21 -6q-4 0 -6 2q-12 -43 -12 -94zM156 1178q0 -52 28.5 -95t73.5 -49q10 42 10 78q0 47 -13 88.5t-34 59.5q-4 2 -12 2 q-28 0 -40.5 -26t-12.5 -58z" />
<glyph unicode="&#xbb;" horiz-adv-x="350" d="M11 45q0 10 7 27q47 89 95 159l26 37q-64 96 -102 219q2 13 19 30.5t28 6.5q74 -137 131 -207q0 -14 -2 -18q-15 -33 -55 -99.5t-56 -105.5q-13 -26 -52 -50q-40 -25 -39 1zM155 45q0 10 7 27q50 95 94 159l27 37q-65 99 -103 219q2 13 19 30.5t28 6.5q74 -137 131 -207 q0 -14 -2 -18q-15 -33 -54.5 -99.5t-55.5 -105.5q-13 -26 -52 -50q-40 -25 -39 1z" />
<glyph unicode="&#xbc;" horiz-adv-x="698" d="M-15 1q1 1 1 3q28 64 57 139t62.5 165.5t52.5 140.5q300 766 379 958q13 26 52 50q40 26 39 0q0 -10 -7 -27q-149 -338 -324 -775q-18 -44 -62 -155.5t-68.5 -171.5t-63.5 -149.5t-74 -162.5q-14 -18 -33 -25q-13 -6 -11 10zM80.5 1192.5q-15.5 2.5 5.5 46.5 q27 46 49 109q6 26 27 47q26 26 47 28q16 1 14 -22q0 -1 -1 -2t-1 -2v-2v2q-43 -291 -43 -678q-2 -14 -24 -32t-25 1q-22 235 -2 524q-31 -22 -46.5 -19.5zM186 168q0 6 2 12q6 27 27 65.5t43.5 71.5t59.5 81t58 73.5t58.5 70t42.5 50.5q3 4 20.5 26.5t29.5 36t30.5 26.5 t34.5 13q12 0 12 -18q-9 -35 -13 -73t-7 -95.5t-4 -75.5l-11 -151q50 4 70 4q51 0 53 -13q0 -10 -14 -23.5t-23 -15.5q-7 0 -20.5 1.5t-20.5 1.5t-22.5 -1.5t-22.5 -1.5q-4 -59 0 -178l6 -22q0 -21 -23 -50.5t-46 -29.5q-31 0 -31 65q-8 122 10 205q-145 -26 -274 -63 q-6 -2 -12 -2q-11 0 -13 10zM221 1397q2 0 2 2zM260 231l135 23q17 3 48 8t46 8q15 190 31 305q-36 -41 -79.5 -92.5t-101.5 -129.5t-79 -122z" />
<glyph unicode="&#xbd;" horiz-adv-x="716" d="M-11 1q1 1 1 3q28 64 57 139t62.5 165.5t52.5 140.5q300 766 379 958q13 26 52 50q40 26 39 0q0 -10 -7 -27q-149 -338 -324 -775q-18 -44 -62 -155.5t-68.5 -171.5t-63.5 -149.5t-74 -162.5q-14 -18 -33 -25q-13 -6 -11 10zM90.5 1192.5q-15.5 2.5 5.5 46.5 q27 46 49 109q6 26 27 47q26 26 47 28q16 1 14 -22q0 -1 -1 -2t-1 -2v-2v2q-43 -291 -43 -678q-2 -14 -24 -32t-25 1q-22 235 -2 524q-31 -22 -46.5 -19.5zM231 1397q2 0 2 2zM315 412q4 54 21 113t45.5 114t73.5 91t96 36q50 0 76 -47.5t26 -118.5q0 -28 -4.5 -57 t-9.5 -53.5t-17.5 -55.5t-20.5 -50.5t-27 -52t-27.5 -47.5t-32 -49.5t-30.5 -45t-33 -47t-31 -42.5q72 31 117 31q38 0 67 -19.5t29 -58.5q0 -14 -12 -33q-11 -20 -29 -20l-4 6q-5 6 -13 15t-18.5 17.5t-25 14.5t-29.5 6q-63 0 -135 -57q-22 -14 -35 -14t-13 12 q0 11 33.5 63t75 111.5t45.5 65.5q107 173 107 301q0 31 -5.5 61.5t-23 57t-43.5 26.5q-27 0 -47.5 -25t-30.5 -62.5t-14.5 -68t-5.5 -55.5q-2 -22 -30 -53t-48 -31q-14 0 -17 21z" />
<glyph unicode="&#xbe;" horiz-adv-x="741" d="M29 1206q0 5 4 21q104 203 239 203q49 0 78 -34t29 -93q0 -64 -24 -141t-68 -136q65 -51 65 -133q0 -50 -16.5 -104t-53 -96t-83.5 -42q-50 0 -92.5 44t-53.5 98q0 12 12 27.5t25 15.5q6 0 10 -7q19 -48 59.5 -75t67.5 -27q29 0 44.5 27t15.5 69q0 87 -49 152 q-43 -37 -95 -37q-49 0 -49 51q0 40 21.5 60t58.5 20q38 0 76 -18q57 94 57 186q0 90 -67 109q-51 -1 -74.5 -22.5t-48.5 -74.5q-9 -15 -35.5 -36t-42.5 -21q-10 0 -10 14zM105 -2q0 3 1 6q28 65 57 139t63.5 166l52.5 140q321 819 378 958q13 26 52 50q40 26 39 0 q0 -10 -7 -27q-139 -314 -323 -775q-18 -44 -62 -155.5t-68.5 -171.5t-63.5 -149.5t-74 -162.5q-14 -17 -32 -25q-14 -6 -13 7zM115 1001q0 -7 3.5 -13.5t8.5 -6.5q27 0 63 20q-28 21 -55 21q-20 0 -20 -21zM305 170q0 6 2 12q10 39 47.5 103t70 109.5t86.5 117t60 80.5 q2 2 26 35t43 50t36 17q10 0 10 -18q-15 -58 -33 -244l-16 -151q40 4 59 4q43 0 43 -13q0 -10 -12.5 -23.5t-19.5 -15.5q-6 0 -17.5 1.5t-17.5 1.5t-19.5 -1.5t-19.5 -1.5q-4 -58 -8 -178l6 -22q-2 -21 -23.5 -51.5t-40.5 -30.5q-24 0 -24 67q0 122 18 205 q-122 -23 -237 -61q-4 -2 -11 -2q-8 0 -8 10zM371 233l116 23q54 9 80 14q22 186 41 305q-57 -70 -132.5 -174.5t-104.5 -167.5z" />
<glyph unicode="&#xbf;" horiz-adv-x="759" d="M143 383q0 54 17 92t55 88.5t59 89.5q13 24 41 71t39 69t27 59t21.5 73t5.5 79q0 29 -2 43q2 9 16 24.5t24 15.5q13 0 13 -79q1 -72 -20 -131.5t-70 -147.5q-33 -61 -77 -123t-61.5 -96.5t-17.5 -81.5q0 -67 24 -131.5t75 -111t118 -46.5q31 0 52 14.5t33.5 49t16 50.5 t9.5 60q1 7 2 11q8 17 34.5 44t43.5 27q13 0 16 -20q-10 -55 -30.5 -108.5t-51.5 -103t-77.5 -80t-100.5 -30.5q-69 0 -124 54t-82.5 128.5t-27.5 147.5zM389 1343q0 25 17.5 42.5t39.5 17.5q23 0 37.5 -12.5t14.5 -34.5v-8q-3 -27 -18.5 -43.5t-39.5 -16.5 q-22 0 -36.5 15.5t-14.5 39.5z" />
<glyph unicode="&#xc0;" d="M94 391q0 114 25 249t78 275.5t126 254.5t180 187t228 73q71 0 132.5 -32.5t105.5 -85.5t77.5 -123.5t53 -142.5t28.5 -147q-2 -23 -29 -53.5t-48 -30.5q-14 0 -17 21q-6 60 -23 125.5t-47.5 135.5t-70 125t-96.5 90.5t-121 35.5q-81 0 -151.5 -39.5t-121 -103.5 t-92 -148.5t-67.5 -171.5t-43.5 -175t-25 -157t-7.5 -119q0 -140 29 -258t74 -190.5t95.5 -112t98.5 -39.5q148 0 334 285q103 158 147 254.5t51 212.5q4 18 30 48t46 30q13 0 19 -15q-11 -165 -11 -307q0 -198 23 -342q0 -2 2 -16t3.5 -23t4.5 -25.5t6 -28t7.5 -26.5 t10 -25t12 -19.5t15 -14t17.5 -4.5q4 0 8 4q63 69 113 266q2 8 16.5 22.5t23.5 14.5q7 0 7 -12q-10 -56 -26.5 -112t-41.5 -116t-62.5 -97.5t-80.5 -37.5q-78 0 -110 234l-3 18q-28 182 -31 399q-49 -118 -115 -229.5t-141.5 -203t-159 -146.5t-157.5 -55t-137.5 59 t-104 151.5t-63.5 201t-23 212.5zM465 1716q0 9 3.5 17t8.5 12.5t12 8t12 5t11 3.5l6 1q8 3 16.5 0t19 -9.5t15.5 -8.5q37 -29 85 -109.5t48 -111.5q0 -10 -7 -17.5t-14.5 -10t-8.5 -1.5q-12 10 -23.5 33t-23.5 39q-12 17 -54 44t-74 54t-32 51z" />
<glyph unicode="&#xc1;" d="M104 391q0 114 25 249t78 275.5t126 254.5t180 187t228 73q71 0 133 -32.5t105.5 -85.5t77.5 -123.5t53.5 -142.5t28.5 -147q-2 -22 -29.5 -53t-48.5 -31q-14 0 -17 21q-6 60 -23 125.5t-47.5 135.5t-70 125t-96.5 90.5t-121 35.5q-81 0 -151.5 -39.5t-121 -103.5 t-92 -148.5t-67.5 -171.5t-43.5 -175t-25 -157t-7.5 -119q0 -140 29 -258t74 -190.5t95.5 -112t98.5 -39.5q148 0 334 285q104 159 148 255.5t51 211.5q4 18 29.5 48t45.5 30q13 0 19 -15q-10 -150 -10 -307q0 -204 22 -342q0 -2 2 -16t3.5 -23t4.5 -25.5t6 -28t7.5 -26.5 t10 -25t12 -19.5t15 -14t17.5 -4.5q4 0 8 4q63 69 113 266q2 8 17 22.5t24 14.5q6 0 6 -12q-10 -56 -26.5 -112t-41.5 -116t-62.5 -97.5t-80.5 -37.5q-78 0 -110 234l-3 18q-27 174 -30 399q-66 -160 -158.5 -301.5t-205 -237t-210.5 -95.5q-74 0 -137.5 59t-104 151.5 t-63.5 201t-23 212.5zM743 1550q0 31 48.5 112t85.5 110q5 2 15.5 8.5t19 9.5t16.5 0l6 -2q6 -1 11 -2.5t12 -5t12 -8t8.5 -12.5t3.5 -17q0 -19 -25 -46t-54.5 -48t-55 -38t-25.5 -18q-14 -33 -22.5 -45.5t-24.5 -25.5q-1 -1 -8.5 1t-15 9.5t-7.5 17.5z" />
<glyph unicode="&#xc2;" d="M104 391q0 114 25 249t78 275.5t126 254.5t180 187t228 73q71 0 133 -32.5t105.5 -85.5t77.5 -123.5t53.5 -142.5t28.5 -147q-2 -22 -29.5 -53t-48.5 -31q-14 0 -17 21q-6 60 -23 125.5t-47.5 135.5t-70 125t-96.5 90.5t-121 35.5q-81 0 -151.5 -39.5t-121 -103.5 t-92 -148.5t-67.5 -171.5t-43.5 -175t-25 -157t-7.5 -119q0 -140 29 -258t74 -190.5t95.5 -112t98.5 -39.5q148 0 334 285q104 159 148 255.5t51 211.5q4 18 29.5 48t45.5 30q13 0 19 -15q-10 -150 -10 -307q0 -204 22 -342q0 -2 2 -16t3.5 -23t4.5 -25.5t6 -28t7.5 -26.5 t10 -25t12 -19.5t15 -14t17.5 -4.5q4 0 8 4q63 69 113 266q2 8 17 22.5t24 14.5q6 0 6 -12q-10 -56 -26.5 -112t-41.5 -116t-62.5 -97.5t-80.5 -37.5q-78 0 -110 234l-3 18q-27 174 -30 399q-66 -160 -158.5 -301.5t-205 -237t-210.5 -95.5q-74 0 -137.5 59t-104 151.5 t-63.5 201t-23 212.5zM575 1552q0 13 15 37q113 168 164 168q20 0 41.5 -29t42.5 -71t28 -51v-7q0 -12 -12.5 -26t-24.5 -14q-10 0 -29 18.5t-47 51.5t-36 42l-10 -12q-28 -37 -41 -62q-12 -18 -38.5 -36.5t-41.5 -18.5q-11 0 -11 10z" />
<glyph unicode="&#xc3;" d="M104 391q0 114 25 249t78 275.5t126 254.5t180 187t228 73q71 0 133 -32.5t105.5 -85.5t77.5 -123.5t53.5 -142.5t28.5 -147q-2 -22 -29.5 -53t-48.5 -31q-14 0 -17 21q-6 60 -23 125.5t-47.5 135.5t-70 125t-96.5 90.5t-121 35.5q-81 0 -151.5 -39.5t-121 -103.5 t-92 -148.5t-67.5 -171.5t-43.5 -175t-25 -157t-7.5 -119q0 -140 29 -258t74 -190.5t95.5 -112t98.5 -39.5q148 0 334 285q104 159 148 255.5t51 211.5q4 18 29.5 48t45.5 30q13 0 19 -15q-10 -150 -10 -307q0 -204 22 -342q0 -2 2 -16t3.5 -23t4.5 -25.5t6 -28t7.5 -26.5 t10 -25t12 -19.5t15 -14t17.5 -4.5q4 0 8 4q63 69 113 266q2 8 17 22.5t24 14.5q6 0 6 -12q-10 -56 -26.5 -112t-41.5 -116t-62.5 -97.5t-80.5 -37.5q-78 0 -110 234l-3 18q-27 174 -30 399q-66 -160 -158.5 -301.5t-205 -237t-210.5 -95.5q-74 0 -137.5 59t-104 151.5 t-63.5 201t-23 212.5zM494 1565q0 4 4 20q27 66 72.5 110t74.5 44q20 0 37 -19t38.5 -48t45.5 -44q8 11 20 39.5t25 45t31 16.5q4 0 4 -7q0 -6 -2 -12q-2 -4 -10 -27.5t-16 -40t-21 -37.5t-31.5 -32.5t-40.5 -11.5q-27 0 -66.5 42.5t-54.5 51.5q-3 -4 -22 -47 q-9 -15 -35.5 -36.5t-42.5 -21.5q-10 0 -10 15z" />
<glyph unicode="&#xc4;" d="M92 391q0 114 25 249t78 275.5t126 254.5t180 187t228 73q71 0 132.5 -32.5t105.5 -85.5t77.5 -123.5t53 -142.5t28.5 -147q-2 -23 -29 -53.5t-48 -30.5q-14 0 -17 21q-6 60 -23 125.5t-47.5 135.5t-70 125t-96.5 90.5t-121 35.5q-81 0 -151.5 -39.5t-121 -103.5 t-92 -148.5t-67.5 -171.5t-43.5 -175t-25 -157t-7.5 -119q0 -140 29 -258t74 -190.5t95.5 -112t98.5 -39.5q148 0 334 285q103 158 147 254.5t51 212.5q4 18 30 48t46 30q13 0 19 -15q-11 -165 -11 -307q0 -198 23 -342q0 -2 2 -16t3.5 -23t4.5 -25.5t6 -28t7.5 -26.5 t10 -25t12 -19.5t15 -14t17.5 -4.5q4 0 8 4q61 68 112 266q2 8 17 22.5t24 14.5q7 0 7 -12q-10 -56 -26.5 -112t-41.5 -116t-62.5 -97.5t-80.5 -37.5q-78 0 -110 234l-3 18q-28 182 -31 399q-49 -118 -115 -229.5t-141.5 -203t-159 -146.5t-157.5 -55t-137.5 59t-104 151.5 t-63.5 201t-23 212.5zM553 1667q0 40 63 49q26 0 36 -8.5t10 -30.5q0 -24 -15 -52q-18 -34 -51 -34q-43 3 -43 76zM770 1667q0 49 59 49q25 -5 36.5 -14.5t11.5 -30.5q0 -30 -21 -55t-53 -25q-33 0 -33 76z" />
<glyph unicode="&#xc5;" d="M84 391q0 114 25 249t78 275.5t126 254.5t180 187t228 73q71 0 132.5 -32.5t105.5 -85.5t77.5 -123.5t53 -142.5t28.5 -147q-2 -22 -29.5 -53t-48.5 -31q-13 0 -16 21q-6 60 -23 125.5t-47.5 135.5t-70 125t-96.5 90.5t-121 35.5q-81 0 -151.5 -39.5t-121 -103.5 t-92 -148.5t-67.5 -171.5t-43.5 -175t-25 -157t-7.5 -119q0 -140 29 -258t74 -190.5t95.5 -112t98.5 -39.5q147 0 333 285q104 159 148 255.5t51 211.5q4 18 30 48t46 30q12 0 18 -15q-10 -150 -10 -307q0 -198 23 -342l3 -22q3 -21 5 -32t6.5 -33.5t10 -36t13 -28.5 t17.5 -22.5t22 -7.5q5 0 9 4q61 68 112 266q2 8 17 22.5t24 14.5q6 0 6 -12q-10 -56 -26.5 -112t-41.5 -116t-62.5 -97.5t-80.5 -37.5q-27 0 -47 20.5t-33 65.5t-17.5 69t-11.5 77q-2 14 -3 20q-28 182 -31 399q-49 -118 -115 -229.5t-141.5 -203t-159 -146.5t-157.5 -55 t-137.5 59t-104 151.5t-63.5 201t-23 212.5zM639 1616v6q3 51 25.5 79t52.5 28q29 0 51.5 -29.5t22.5 -81.5q0 -45 -22 -70.5t-52 -25.5q-29 0 -51.5 24.5t-26.5 69.5zM694 1636q0 -43 27 -43q9 0 16.5 11t7.5 32q0 39 -26 39q-25 0 -25 -39z" />
<glyph unicode="&#xc6;" horiz-adv-x="2080" d="M55 397q0 238 95 496q28 77 66.5 150.5t90.5 143.5t110.5 123t130.5 85t146 32q81 0 151.5 -46t120 -122t81.5 -170t43 -194q-2 -22 -29.5 -53t-48.5 -31q-14 0 -17 20q-6 60 -23 125.5t-47.5 135.5t-70 125t-96.5 90.5t-121 35.5q-93 0 -182 -69q-89 -70 -156 -184.5 t-101.5 -238t-50.5 -232t-16 -199.5q0 -125 26.5 -237t68.5 -187.5t95 -119.5t107 -44q39 0 80 20.5t73 47.5t69 71.5t57 72.5t49 71q163 238 215 475q4 12 23 33.5t32 21.5q7 0 14 -10l-6 -115q22 3 101 17q20 156 70 305.5t116 255.5q226 370 446 370q114 0 185 -69 t102 -176q-2 -21 -26.5 -51.5t-47.5 -30.5q-12 0 -20 8q-32 112 -93 169.5t-159 57.5q-31 0 -68 -6q-95 -51 -174 -143.5t-131 -206t-84.5 -233t-46.5 -240.5q43 8 387 61q15 2 66 11t88.5 13.5t71.5 4.5q88 0 88 -19q0 -11 -15 -23.5t-26 -12.5q-7 0 -21.5 1t-21.5 1 q-37 0 -84.5 -7.5t-103 -19.5t-79.5 -16q-161 -27 -358 -68q-2 -31 -2 -90q0 -180 70 -301v2q2 8 17 22.5t24 14.5q6 0 6 -12l-19 -74q68 -89 171 -134.5t227 -45.5q120 0 232 38t169 115q17 21 35 21q6 0 6 -6q0 -8 -8 -19q-70 -101 -206.5 -157t-283.5 -56 q-241 0 -374 143q-68 -178 -154 -178q-59 0 -86 109q-22 81 -33 188t-13 167t-3 192q-103 -218 -213 -371q-36 -50 -74.5 -94t-88 -88.5t-104.5 -70.5t-106 -26q-60 0 -111 31t-86 84t-61.5 118t-41.5 138t-22.5 138.5t-7.5 125.5zM1032 360q0 -215 27 -370q0 -3 2 -17 t3.5 -23.5t4.5 -25.5t6 -28t7.5 -27t10 -25.5t12.5 -19.5t15.5 -14t18.5 -5q40 7 92 162q-109 147 -109 395q0 33 4 95q-43 -8 -94 -21v-76z" />
<glyph unicode="&#xc7;" horiz-adv-x="1177" d="M68 403q0 251 75 491.5t226 401.5q158 168 338 168q170 0 290 -164q78 -108 115 -253.5t37 -290.5q0 -121 -37 -191q-14 -29 -50.5 -60.5t-66.5 -31.5q-57 0 -57 139q0 46 5 89.5t9.5 66t16.5 78.5q5 20 23 44.5t30 24.5q8 0 8 -28q-29 -85 -29 -195q0 -119 46 -119 q16 0 16 82q0 53 -4 109.5t-16 130t-31 140t-52 132t-75.5 113t-105.5 77t-138 29.5q-206 0 -360 -305q-67 -132 -108.5 -295.5t-41.5 -322.5q0 -310 160 -481q129 -140 327 -140q136 0 270.5 66.5t225.5 173.5q59 71 115 215q4 6 18 18.5t21 12.5q6 0 6 -13 q-6 -16 -9.5 -25.5t-7.5 -21t-6 -16t-6.5 -15t-6 -13t-7.5 -14.5l-8 -16t-10.5 -20t-12.5 -24q-55 -102 -158.5 -187t-231 -134.5t-249.5 -49.5q-92 0 -169 27.5t-129.5 76.5t-91.5 109.5t-60.5 132.5t-32 140.5t-10.5 137.5zM561 -461q0 13 12.5 27t24.5 14q3 0 8.5 -5 t5.5 -9q26 -17 39 -17q7 0 9 2.5t2 10.5q0 40 -19.5 66.5t-46.5 33.5q-12 2 -12 16l-6 101q3 16 28.5 36.5t46.5 20.5q13 0 19 -14l-6 -80q30 -9 48.5 -51.5t18.5 -75.5q0 -45 -31.5 -85t-78.5 -40q-20 0 -41 13t-21 36z" />
<glyph unicode="&#xc8;" horiz-adv-x="1118" d="M41 438q0 17 27.5 43.5t44.5 34.5l118 21q20 155 70.5 304.5t116.5 256.5q226 370 446 370q60 0 109.5 -20.5t83.5 -56.5t56.5 -77t37.5 -91q-2 -21 -26.5 -51.5t-47.5 -30.5q-12 0 -20 8q-14 91 -87.5 165.5t-158.5 74.5q-40 0 -74 -19q-97 -56 -175.5 -149.5 t-130.5 -206t-84 -229.5t-46 -238q63 11 389 61q16 2 63 10.5t88 13.5t77 5q83 0 83 -19q0 -11 -14.5 -23.5t-25.5 -12.5q-7 0 -21 1t-22 1q-38 -3 -88 -11t-104 -18.5t-73 -13.5q-265 -50 -360 -70q-2 -31 -2 -88q0 -134 39 -237t108 -165.5t157.5 -94t192.5 -31.5 q121 0 233.5 38t168.5 115q18 21 35 21q6 0 6 -6q0 -8 -8 -19q-71 -102 -207.5 -157.5t-284.5 -55.5q-132 0 -231.5 42.5t-160 120t-90.5 180t-30 228.5q0 29 4 95l-162 -35q-20 2 -20 16zM651 1743q0 9 3.5 17t9 12.5t12.5 8t12 5t11 2.5l6 2q8 3 16.5 0t19 -9.5t15.5 -8.5 q37 -29 85 -109.5t48 -112.5q0 -10 -7.5 -17.5t-15 -9.5t-8.5 -1q-12 10 -23.5 32.5t-23.5 38.5q-12 17 -54 44.5t-74 54.5t-32 51z" />
<glyph unicode="&#xc9;" horiz-adv-x="1118" d="M41 438q0 17 27.5 43.5t44.5 34.5l118 21q20 155 70.5 304.5t116.5 256.5q226 370 446 370q60 0 109.5 -20.5t83.5 -56.5t56.5 -77t37.5 -91q-2 -21 -26.5 -51.5t-47.5 -30.5q-12 0 -20 8q-14 91 -87.5 165.5t-158.5 74.5q-40 0 -74 -19q-97 -56 -175.5 -149.5 t-130.5 -206t-84 -229.5t-46 -238q63 11 389 61q16 2 63 10.5t88 13.5t77 5q83 0 83 -19q0 -11 -14.5 -23.5t-25.5 -12.5q-7 0 -21 1t-22 1q-38 -3 -88 -11t-104 -18.5t-73 -13.5q-265 -50 -360 -70q-2 -31 -2 -88q0 -134 39 -237t108 -165.5t157.5 -94t192.5 -31.5 q121 0 233.5 38t168.5 115q18 21 35 21q6 0 6 -6q0 -8 -8 -19q-71 -102 -207.5 -157.5t-284.5 -55.5q-132 0 -231.5 42.5t-160 120t-90.5 180t-30 228.5q0 29 4 95l-162 -35q-20 2 -20 16zM895 1550q0 32 48 112.5t85 109.5q5 2 15.5 8.5t19 9.5t16.5 0l6 -2q6 -1 11 -2.5 t12 -5t12.5 -8t9 -12.5t3.5 -17q0 -19 -25 -46t-54.5 -48t-55 -38t-25.5 -18q-14 -33 -22.5 -45.5t-24.5 -25.5q-1 -1 -8.5 1t-15 9.5t-7.5 17.5z" />
<glyph unicode="&#xca;" horiz-adv-x="1118" d="M41 438q0 17 27.5 43.5t44.5 34.5l118 21q20 155 70.5 304.5t116.5 256.5q226 370 446 370q60 0 109.5 -20.5t83.5 -56.5t56.5 -77t37.5 -91q-2 -21 -26.5 -51.5t-47.5 -30.5q-12 0 -20 8q-14 91 -87.5 165.5t-158.5 74.5q-40 0 -74 -19q-97 -56 -175.5 -149.5 t-130.5 -206t-84 -229.5t-46 -238q63 11 389 61q16 2 63 10.5t88 13.5t77 5q83 0 83 -19q0 -11 -14.5 -23.5t-25.5 -12.5q-7 0 -21 1t-22 1q-38 -3 -88 -11t-104 -18.5t-73 -13.5q-265 -50 -360 -70q-2 -31 -2 -88q0 -134 39 -237t108 -165.5t157.5 -94t192.5 -31.5 q121 0 233.5 38t168.5 115q18 21 35 21q6 0 6 -6q0 -8 -8 -19q-71 -102 -207.5 -157.5t-284.5 -55.5q-132 0 -231.5 42.5t-160 120t-90.5 180t-30 228.5q0 29 4 95l-162 -35q-20 2 -20 16zM719 1561q0 14 14 36q113 168 164 168q20 0 41.5 -29t43 -71t28.5 -51v-6 q0 -12 -12.5 -26.5t-24.5 -14.5q-10 0 -29.5 18.5t-47.5 52t-36 41.5l-10 -12q-30 -39 -41 -61q-12 -18 -38.5 -37t-41.5 -19q-10 0 -10 11z" />
<glyph unicode="&#xcb;" horiz-adv-x="1118" d="M41 438q0 17 27.5 43.5t44.5 34.5l118 21q20 155 70.5 304.5t116.5 256.5q226 370 446 370q60 0 109.5 -20.5t83.5 -56.5t56.5 -77t37.5 -91q-2 -21 -26.5 -51.5t-47.5 -30.5q-12 0 -20 8q-14 91 -87.5 165.5t-158.5 74.5q-40 0 -74 -19q-97 -56 -175.5 -149.5 t-130.5 -206t-84 -229.5t-46 -238q63 11 389 61q16 2 63 10.5t88 13.5t77 5q83 0 83 -19q0 -11 -14.5 -23.5t-25.5 -12.5q-7 0 -21 1t-22 1q-38 -3 -88 -11t-104 -18.5t-73 -13.5q-265 -50 -360 -70q-2 -31 -2 -88q0 -134 39 -237t108 -165.5t157.5 -94t192.5 -31.5 q121 0 233.5 38t168.5 115q18 21 35 21q6 0 6 -6q0 -8 -8 -19q-71 -102 -207.5 -157.5t-284.5 -55.5q-132 0 -231.5 42.5t-160 120t-90.5 180t-30 228.5q0 29 4 95l-162 -35q-20 2 -20 16zM616 1673q0 40 64 49q26 0 35.5 -8.5t9.5 -30.5q0 -24 -15 -52q-18 -34 -51 -34 q-43 3 -43 76zM854 1673q0 49 59 49q25 -5 36.5 -14.5t11.5 -30.5q0 -30 -21 -55t-53 -25q-33 0 -33 76z" />
<glyph unicode="&#xcc;" horiz-adv-x="700" d="M98 -279q-45 6 2 56q29 30 50 39q137 24 209 35.5t188 24t211 13.5q16 -8 -0.5 -26t-30.5 -23q-304 -39 -629 -119zM303 1266q-44 6 1 54q28 30 50 40q34 4 92 12t91.5 12t91.5 9.5t92 5t92 -3.5q16 -8 -0.5 -26t-30.5 -23q-171 -13 -479 -80zM354 1741q0 9 3.5 17 t9 12.5t12.5 8t12 5t11 2.5l6 2q8 3 16.5 -0.5t19 -10t15.5 -8.5q37 -29 85 -109.5t48 -111.5q0 -10 -7.5 -17.5t-15 -9.5t-8.5 -1q-12 10 -23.5 32.5t-23.5 38.5q-12 17 -54 44.5t-74 54.5t-32 51zM406 535q4 222 25.5 385t86.5 313q13 26 52 50q40 25 39 -1q0 -10 -7 -27 q-80 -174 -104.5 -374t-24.5 -465q0 -319 31 -492q-2 -13 -19 -30.5t-28 -6.5q-62 249 -51 648z" />
<glyph unicode="&#xcd;" horiz-adv-x="700" d="M90 -279q-45 6 2 56q28 30 49 39q136 24 209 35.5t189 24t211 13.5q16 -8 -0.5 -26t-30.5 -23q-304 -39 -629 -119zM295 1266q-44 6 1 54q28 30 50 40q34 4 92 12t91.5 12t91.5 9.5t92 5t92 -3.5q16 -8 -0.5 -26t-30.5 -23q-171 -13 -479 -80zM397 535q4 220 26 384 t87 314q13 26 52 50q40 25 39 -1q0 -10 -7 -27q-80 -174 -104.5 -374t-24.5 -465q0 -319 31 -492q-2 -13 -19 -30.5t-28 -6.5q-63 253 -52 648zM561 1542q0 31 48 111.5t85 109.5q5 2 15.5 8.5t19 10t16.5 0.5l6 -2q6 -1 11 -2.5t12 -5t12.5 -8t9 -12.5t3.5 -17 q0 -19 -25 -46t-54.5 -48t-55 -38t-25.5 -18q-15 -34 -23 -46.5t-24 -25.5q-1 -1 -8.5 1.5t-15 10t-7.5 17.5z" />
<glyph unicode="&#xce;" horiz-adv-x="700" d="M88 -279q-45 6 2 56q28 30 49 39q136 24 209 35.5t189 24t211 13.5q16 -8 -0.5 -26t-30.5 -23q-304 -39 -629 -119zM293 1266q-44 6 1 54q28 30 50 40q34 4 92 12t91.5 12t91.5 9.5t92 5t92 -3.5q16 -8 -0.5 -26t-30.5 -23q-171 -13 -479 -80zM395 535q4 220 26 384 t87 314q13 26 52 50q40 25 39 -1q0 -10 -7 -27q-80 -174 -104.5 -374t-24.5 -465q0 -319 31 -492q-2 -13 -19.5 -30.5t-28.5 -6.5q-62 249 -51 648zM430 1575q0 15 14 37q113 168 164 168q20 0 41.5 -29.5t43 -71.5t28.5 -51v-6q0 -12 -12.5 -26.5t-24.5 -14.5 q-10 0 -29.5 19t-47.5 52t-36 42l-10 -13q-30 -39 -41 -61q-12 -18 -38.5 -36.5t-41.5 -18.5q-10 0 -10 10z" />
<glyph unicode="&#xcf;" horiz-adv-x="700" d="M98 -279q-45 6 2 56q29 30 50 39q137 24 209 35.5t188 24t211 13.5q16 -8 -0.5 -26t-30.5 -23q-304 -39 -629 -119zM303 1266q-44 6 1 54q28 30 50 40q34 4 92 12t91.5 12t91.5 9.5t92 5t92 -3.5q16 -8 -0.5 -26t-30.5 -23q-171 -13 -479 -80zM354 1663q0 40 64 49 q26 0 35.5 -8.5t9.5 -30.5q0 -24 -15 -52q-19 -33 -51 -34q-43 3 -43 76zM406 535q4 222 25.5 385t86.5 313q13 26 52 50q40 25 39 -1q0 -10 -7 -27q-80 -174 -104.5 -374t-24.5 -465q0 -319 31 -492q-2 -13 -19 -30.5t-28 -6.5q-62 249 -51 648zM592 1663q0 49 59 49 q25 -5 36 -14.5t11 -30.5q0 -30 -20.5 -55t-52.5 -25q-33 0 -33 76z" />
<glyph unicode="&#xd0;" horiz-adv-x="1409" d="M68 803q0 121 55.5 244t144.5 217t209 153.5t240 59.5q121 0 229 -61.5t186 -164t135.5 -232.5t86 -269.5t28.5 -272.5q0 -86 -15 -170t-44 -162.5t-75.5 -145t-106 -116.5t-139 -78t-171.5 -28q-241 0 -335 235q0 12 11.5 27.5t24.5 15.5q8 0 11 -6q93 -215 307 -215 q121 0 213 48t146.5 130.5t81 184t26.5 217.5q0 175 -51 354.5t-131 312.5q-84 140 -202.5 227t-262.5 87q-102 0 -196 -42.5t-163.5 -113.5t-111 -171t-41.5 -210q0 -132 57 -227q29 -48 76.5 -85.5t91.5 -37.5q12 0 31 11t26 11q11 0 11 -12q0 -47 -41 -73.5t-78 -26.5 q-66 0 -118.5 37t-83 96t-46.5 124t-16 128zM455 674q0 21 31 48.5t53 29.5q5 -1 14 -1.5t23 -1t24 -1.5q6 101 18 208q2 16 5 65.5t6.5 78.5t12 70.5t24.5 73.5t39 56q29 29 57 31q10 0 16 -6.5t6 -13.5q0 -29 -41 -58q-5 -14 -9 -32.5t-7.5 -44t-5.5 -33.5 q-36 -207 -53 -398q141 -8 141 -22q0 -8 -3.5 -14.5t-10 -11t-14 -8.5t-19 -6t-20 -3.5t-22 -2.5t-21 -1.5t-20.5 -1t-17 -0.5q-3 -36 -9.5 -112t-10 -120.5t-6.5 -108.5t-3 -118q0 -35 2 -53q-2 -9 -16.5 -25t-24.5 -16q-16 0 -16 131q0 194 16 416q-22 -1 -119 -11 q-20 3 -20 17z" />
<glyph unicode="&#xd1;" horiz-adv-x="1331" d="M72 338q2 9 15.5 24t23.5 15q6 0 10 -8q12 -267 43 -416q0 -2 3.5 -18.5t4.5 -22.5t5 -22.5t7.5 -24t9 -21t11.5 -20.5t14 -14.5t18 -11t21 -3.5q16 0 32.5 10t33 29t30.5 38.5t29 46t24 43.5t20 40.5t13 26.5q23 48 33 73q171 430 193 922q-69 156 -146 250h-2 q-20 0 -20 10q0 16 26.5 46t44.5 38q4 0 6 2q20 -1 41.5 -24t31 -39.5t24.5 -46.5l14 -29q31 45 57 45q13 0 21 -14q0 -4 -2 -73t-4 -104q45 -101 95.5 -223t83 -205t89.5 -230.5t82 -211.5q10 -25 28 -76t33.5 -90.5t32.5 -73.5q0 9 1 29t1 29q0 111 -3 333t-3 334 q0 248 6 371q1 12 1.5 48.5t1.5 64t4 67.5t10 71t17 62t27.5 53t39.5 33q6 3 10 3q6 0 6 -5q0 -7 -8.5 -19t-16.5 -19q-39 -86 -39 -267q0 -186 8.5 -537.5t8.5 -539.5q0 -250 -86 -250q-16 0 -34.5 27t-30 56t-25 67t-15.5 43q-29 71 -102 252t-129.5 317t-116.5 268 q-53 -415 -198 -745q-45 -103 -95.5 -187t-111.5 -144t-113 -60q-49 0 -80.5 50t-43.5 133.5t-16 158.5t-4 160.5t-1 105.5zM815 1567q0 4 4 20q27 66 73 110t75 44q20 0 37 -19t38 -48t45 -44q8 11 20 39.5t25 45t31 16.5q4 0 4 -7q0 -6 -2 -12q-2 -4 -10 -27.5t-15.5 -40 t-20.5 -37.5t-31.5 -32.5t-40.5 -11.5q-27 0 -66.5 42.5t-54.5 51.5q-6 -8 -23 -47q-9 -15 -35.5 -36.5t-42.5 -21.5q-10 0 -10 15z" />
<glyph unicode="&#xd2;" horiz-adv-x="1267" d="M152 434q0 215 73 404q6 115 45.5 225.5t103.5 198t157 141t198 53.5q110 0 201 -47.5t149.5 -124.5t99 -178t57.5 -204t17 -208q0 -85 -17.5 -185t-51 -205t-87.5 -201.5t-120.5 -173t-156 -122t-189.5 -45.5q-99 0 -180.5 40t-136 106t-92 154t-54 181.5t-16.5 190.5z M242 475q0 -96 14 -184.5t47 -171.5t82.5 -144t125 -98t169.5 -37q98 0 183.5 57.5t142.5 146.5t98 197t59.5 207.5t18.5 180.5q0 233 -62 401q-60 160 -181.5 264.5t-260.5 104.5q-74 0 -139 -35t-112 -94t-80 -131.5t-50 -153.5q1 3 29 47q50 78 131.5 134.5t165.5 56.5 q34 0 65 -17.5t37 -46.5q-2 -21 -26.5 -51.5t-47.5 -30.5q-12 0 -20 8q0 20 -27 32.5t-45 12.5q-43 0 -91 -33t-77 -71q-68 -87 -112 -244q4 -69 24 -116l10 -9q0 -14 -10.5 -30.5t-26.5 -16.5q-13 0 -26 23q-8 -68 -8 -158zM543 1747q0 9 3.5 17t8.5 12.5t12 8t12 5t11 2.5 l6 2q8 3 16.5 0t19 -9.5t15.5 -8.5q37 -29 85 -109.5t48 -112.5q0 -10 -7 -17.5t-14.5 -9.5t-8.5 -1q-13 10 -24.5 33t-23.5 38q-12 17 -53.5 44.5t-73.5 54.5t-32 51z" />
<glyph unicode="&#xd3;" horiz-adv-x="1267" d="M160 434q0 215 73 404q6 115 45.5 225.5t103.5 198t157 141t198 53.5q110 0 201 -47.5t150 -124.5t99 -178t57.5 -204t17.5 -208q0 -85 -18 -185t-51.5 -205t-87.5 -201.5t-120.5 -173t-156 -122t-189.5 -45.5q-99 0 -180.5 40t-136 106t-92 154t-54 181.5t-16.5 190.5z M250 475q0 -96 14 -184.5t47 -171.5t82.5 -144t125 -98t169.5 -37q98 0 183.5 57.5t142.5 146.5t98 197t59.5 207.5t18.5 180.5q0 233 -62 401q-60 160 -181.5 264.5t-260.5 104.5q-74 0 -139 -35t-112 -94t-80 -131.5t-50 -153.5q2 3 29 47q50 78 131.5 134.5t165.5 56.5 q34 0 65 -17.5t37 -46.5q-2 -21 -26.5 -51.5t-47.5 -30.5q-12 0 -20 8q0 20 -27 32.5t-45 12.5q-43 0 -91 -33t-77 -71q-68 -87 -112 -244q4 -69 24 -116l11 -9q0 -14 -10.5 -30.5t-26.5 -16.5q-14 0 -27 23q-8 -68 -8 -158zM670 1556q0 32 48 112.5t85 109.5q5 2 15.5 8.5 t19 9.5t16.5 0l6 -2q6 -1 11 -2.5t12 -5t12 -8t8.5 -12.5t3.5 -17q0 -19 -24.5 -46t-54 -48t-55 -38t-25.5 -18q-14 -32 -22.5 -45t-25.5 -26q-1 -1 -8.5 1t-14.5 9.5t-7 17.5z" />
<glyph unicode="&#xd4;" horiz-adv-x="1267" d="M160 434q0 215 73 404q6 115 45.5 225.5t103.5 198t157 141t198 53.5q110 0 201 -47.5t150 -124.5t99 -178t57.5 -204t17.5 -208q0 -85 -18 -185t-51.5 -205t-87.5 -201.5t-120.5 -173t-156 -122t-189.5 -45.5q-99 0 -180.5 40t-136 106t-92 154t-54 181.5t-16.5 190.5z M250 475q0 -96 14 -184.5t47 -171.5t82.5 -144t125 -98t169.5 -37q98 0 183.5 57.5t142.5 146.5t98 197t59.5 207.5t18.5 180.5q0 233 -62 401q-60 160 -181.5 264.5t-260.5 104.5q-74 0 -139 -35t-112 -94t-80 -131.5t-50 -153.5q2 3 29 47q50 78 131.5 134.5t165.5 56.5 q34 0 65 -17.5t37 -46.5q-2 -21 -26.5 -51.5t-47.5 -30.5q-12 0 -20 8q0 20 -27 32.5t-45 12.5q-43 0 -91 -33t-77 -71q-68 -87 -112 -244q4 -69 24 -116l11 -9q0 -14 -10.5 -30.5t-26.5 -16.5q-14 0 -27 23q-8 -68 -8 -158zM635 1569q0 15 14 37q113 168 164 168 q20 0 41.5 -29.5t43 -71.5t28.5 -51v-6q0 -12 -12.5 -26.5t-24.5 -14.5q-10 0 -29.5 19t-47.5 52t-36 42l-10 -13q-30 -39 -41 -61q-12 -18 -38.5 -36.5t-41.5 -18.5q-10 0 -10 10z" />
<glyph unicode="&#xd5;" horiz-adv-x="1267" d="M150 434q0 215 73 404q6 115 45.5 225.5t103.5 198t157 141t198 53.5q110 0 201 -47.5t149.5 -124.5t99 -178t57.5 -204t17 -208q0 -85 -17.5 -185t-51 -205t-87.5 -201.5t-120.5 -173t-156 -122t-189.5 -45.5q-99 0 -180.5 40t-136 106t-92 154t-54 181.5t-16.5 190.5z M240 475q0 -96 14 -184.5t47 -171.5t82.5 -144t125 -98t169.5 -37q98 0 183.5 57.5t142.5 146.5t98 197t59.5 207.5t18.5 180.5q0 233 -62 401q-60 160 -181.5 264.5t-260.5 104.5q-74 0 -139 -35t-112 -94t-80 -131.5t-50 -153.5q2 3 29 47q50 78 131.5 134.5t165.5 56.5 q34 0 65 -17.5t37 -46.5q-2 -21 -26.5 -51.5t-47.5 -30.5q-12 0 -20 8q0 20 -27 32.5t-45 12.5q-43 0 -91 -33t-77 -71q-70 -89 -113 -244q3 -66 25 -116l10 -9q0 -14 -10.5 -30.5t-26.5 -16.5q-13 0 -26 23q-8 -68 -8 -158zM532 1577l5 20q27 66 72.5 110t74.5 44 q20 0 37 -19t38.5 -48t45.5 -44q8 11 20 39.5t25 45t31 16.5q4 0 4 -6q0 -7 -2 -13q-2 -4 -10 -27.5t-16 -40t-21 -37.5t-31.5 -32.5t-40.5 -11.5q-27 0 -66.5 42.5t-54.5 51.5q-3 -4 -22 -47q-9 -15 -35.5 -36t-42.5 -21q-11 0 -11 14z" />
<glyph unicode="&#xd6;" horiz-adv-x="1267" d="M150 434q0 215 73 404q6 115 45.5 225.5t103.5 198t157 141t198 53.5q110 0 201 -47.5t149.5 -124.5t99 -178t57.5 -204t17 -208q0 -85 -17.5 -185t-51 -205t-87.5 -201.5t-120.5 -173t-156 -122t-189.5 -45.5q-99 0 -180.5 40t-136 106t-92 154t-54 181.5t-16.5 190.5z M240 475q0 -96 14 -184.5t47 -171.5t82.5 -144t125 -98t169.5 -37q98 0 183.5 57.5t142.5 146.5t98 197t59.5 207.5t18.5 180.5q0 233 -62 401q-60 160 -181.5 264.5t-260.5 104.5q-74 0 -139 -35t-112 -94t-80 -131.5t-50 -153.5q2 3 29 47q50 78 131.5 134.5t165.5 56.5 q34 0 65 -17.5t37 -46.5q-2 -21 -26.5 -51.5t-47.5 -30.5q-12 0 -20 8q0 20 -27 32.5t-45 12.5q-43 0 -91 -33t-77 -71q-70 -89 -113 -244q3 -66 25 -116l10 -9q0 -14 -10.5 -30.5t-26.5 -16.5q-13 0 -26 23q-8 -68 -8 -158zM563 1663q0 40 64 49q26 0 35.5 -8.5t9.5 -30.5 q0 -24 -15 -52q-18 -34 -51 -34q-43 3 -43 76zM801 1663q0 49 59 49q25 -5 36 -14.5t11 -30.5q0 -30 -20.5 -55t-52.5 -25q-33 0 -33 76z" />
<glyph unicode="&#xd7;" horiz-adv-x="458" d="M24 181q1 12 13 34q94 160 143 238q-1 1 -139 213q-3 30 29.5 62.5t60.5 19.5l109 -203q57 87 116 164q16 20 34 21q17 1 -1 -25q-67 -106 -125 -205l25 -43q80 -152 102 -230q-2 -13 -19 -30.5t-28 -6.5q-5 12 -57 97q-71 110 -76 119l-98 -183q-19 -28 -57 -47 q-34 -17 -32 5z" />
<glyph unicode="&#xd8;" horiz-adv-x="1146" d="M74 449q0 206 76 403q4 117 43 230t104 202t160 144t202 55q138 0 240 -70l27 60q9 18 37 39.5t43 21.5q10 0 10 -12t-9.5 -36t-31.5 -69.5t-23 -46.5q121 -115 177.5 -291t56.5 -379q0 -199 -62 -385t-182 -313q-39 -40 -62.5 -63.5t-68 -62t-80 -59.5t-82 -38 t-90.5 -17q-139 0 -258 91l-57 -123q-5 -7 -18.5 -17t-20.5 -10q-6 0 -6 6q0 1 1 3.5t1 4.5q11 23 69 162q-100 94 -148 247t-48 323zM162 492q0 -149 36 -284t113 -226l64 157q49 121 155.5 376t159.5 388l174 426q-58 44 -127.5 70t-128.5 26q-76 0 -142.5 -37 t-114.5 -100t-81.5 -137t-52.5 -156l35 58q56 81 134.5 136.5t162.5 55.5q35 0 66.5 -18t37.5 -47q-2 -21 -26 -51.5t-47 -30.5q-13 0 -21 8v10q-28 35 -76 35q-178 0 -282 -365q7 -86 39 -114q0 -14 -10.5 -30.5t-26.5 -16.5q-8 0 -17 10t-12 22q-12 -77 -12 -165zM344 -55 q114 -105 264 -105q62 0 130 38.5t123 97t98 121.5t67 120q86 203 86 461q0 181 -49.5 341t-151.5 265q-91 -204 -276 -655t-291 -684z" />
<glyph unicode="&#xd9;" horiz-adv-x="1316" d="M68 551q0 163 65 350t164 354q127 215 203 215q55 0 55 -94q0 -59 -5.5 -133.5t-10.5 -116.5t-18.5 -147t-16.5 -131l-23 -238q-6 -55 -6 -170q0 -77 9 -155.5t31 -160.5t54.5 -145t85.5 -103t119 -40q136 0 273 334l43 121q0 19 -1.5 54t-1.5 54q0 251 25 621q0 6 1 35 t3 57.5t6 67.5t11.5 71t18.5 61t29 45.5t40 16.5q53 0 53 -203q0 -41 -2.5 -86.5t-7.5 -103.5t-7 -86q-24 -310 -96 -559q0 -62 4 -180q0 -3 0.5 -25.5t1.5 -43t2.5 -52.5t4.5 -60t7 -59.5t10 -56t13.5 -45t18 -32t22.5 -11.5q17 0 39 67q4 6 18 18.5t21 12.5q6 0 6 -8 q0 -34 -46 -90t-79 -56q-39 0 -66 87.5t-35.5 179.5t-8.5 170q-18 -39 -27.5 -58.5t-34.5 -67t-45 -75.5t-53 -67.5t-64 -61.5t-72 -38.5t-83 -16.5q-132 0 -217 167q-95 176 -95 480q0 91 25 393l25 205q25 202 26 264q0 99 -30 110q-79 -89 -148 -239t-106 -293.5 t-37 -239.5q0 -73 30 -94h5q5 3 20.5 23t35.5 36.5t40 16.5q10 0 10 -12q0 -33 -63.5 -95.5t-106.5 -62.5q-61 0 -61 125zM444 1391q0 -2 5 -2q-3 0 -5 2zM715 1749q0 9 3.5 17t8.5 12.5t12 8t12 5t11 2.5l6 2q8 3 16.5 0t19 -9.5t15.5 -8.5q37 -29 85 -109.5t48 -112.5 q0 -10 -7 -17.5t-14.5 -9.5t-8.5 -1q-13 10 -24.5 33t-23.5 38q-12 17 -53.5 44.5t-73.5 54.5t-32 51zM1165 559q60 341 60 594q0 67 -15 129q-7 -1 -12.5 -49.5t-10 -135.5t-8 -171.5t-7.5 -196t-7 -170.5z" />
<glyph unicode="&#xda;" horiz-adv-x="1316" d="M70 551q0 163 65 350t164 354q127 215 203 215q55 0 55 -94q0 -59 -5.5 -133.5t-10.5 -116.5t-18.5 -147t-16.5 -131l-23 -238q-6 -55 -6 -170q0 -77 9 -155.5t31 -160.5t54.5 -145t85.5 -103t119 -40q136 0 273 334l43 121q0 19 -1 54t-1 54q0 266 24 621q0 6 1 35 t3 57.5t6 67.5t11.5 71t18.5 61t29 45.5t40 16.5q53 0 53 -203q0 -41 -2.5 -85.5t-7 -105t-6.5 -85.5q-23 -306 -97 -559q0 -62 4 -180q0 -3 0.5 -25.5t1.5 -43t2.5 -52.5t4.5 -60t7 -59.5t10 -56t13.5 -45t18 -32t22.5 -11.5q17 0 39 67q4 6 18 18.5t21 12.5q6 0 6 -8 q0 -34 -46 -90t-79 -56q-39 0 -66 87.5t-35.5 179.5t-8.5 170q-18 -39 -27.5 -58.5t-34.5 -67t-45 -75.5t-53 -67.5t-64 -61.5t-72 -38.5t-83 -16.5q-132 0 -217 167q-94 174 -94 480q0 103 24 393l25 205q25 202 26 264q0 99 -30 110q-79 -89 -148 -239t-106 -293.5 t-37 -239.5q0 -73 30 -94h5q5 3 20.5 23t35.5 36.5t40 16.5q10 0 10 -12q0 -33 -63.5 -95.5t-106.5 -62.5q-61 0 -61 125zM446 1391q0 -2 5 -2q-3 0 -5 2zM842 1561q0 31 48 111.5t85 109.5q5 2 15.5 8.5t19 9.5t16.5 0l6 -2q6 -1 11 -2.5t12 -5t12 -8t8.5 -12.5t3.5 -17 q0 -19 -24.5 -46t-54 -48t-55 -37.5t-25.5 -17.5q-14 -32 -22.5 -45.5t-25.5 -26.5q-1 -1 -8.5 1.5t-14.5 10t-7 17.5zM1167 559q60 341 60 594q0 67 -15 129q-7 -1 -12.5 -49.5t-10 -135.5t-8 -171.5t-7.5 -196t-7 -170.5z" />
<glyph unicode="&#xdb;" horiz-adv-x="1316" d="M70 551q0 163 65 350t164 354q127 215 203 215q55 0 55 -94q0 -59 -5.5 -133.5t-10.5 -116.5t-18.5 -147t-16.5 -131l-23 -238q-6 -55 -6 -170q0 -77 9 -155.5t31 -160.5t54.5 -145t85.5 -103t119 -40q136 0 273 334l43 121q0 19 -1 54t-1 54q0 266 24 621q0 6 1 35 t3 57.5t6 67.5t11.5 71t18.5 61t29 45.5t40 16.5q53 0 53 -203q0 -41 -2.5 -85.5t-7 -105t-6.5 -85.5q-23 -306 -97 -559q0 -62 4 -180q0 -3 0.5 -25.5t1.5 -43t2.5 -52.5t4.5 -60t7 -59.5t10 -56t13.5 -45t18 -32t22.5 -11.5q17 0 39 67q4 6 18 18.5t21 12.5q6 0 6 -8 q0 -34 -46 -90t-79 -56q-39 0 -66 87.5t-35.5 179.5t-8.5 170q-18 -39 -27.5 -58.5t-34.5 -67t-45 -75.5t-53 -67.5t-64 -61.5t-72 -38.5t-83 -16.5q-132 0 -217 167q-94 174 -94 480q0 103 24 393l25 205q25 202 26 264q0 99 -30 110q-79 -89 -148 -239t-106 -293.5 t-37 -239.5q0 -73 30 -94h5q5 3 20.5 23t35.5 36.5t40 16.5q10 0 10 -12q0 -33 -63.5 -95.5t-106.5 -62.5q-61 0 -61 125zM446 1391q0 -2 5 -2q-3 0 -5 2zM770 1569q0 15 14 37q113 168 164 168q20 0 41.5 -29.5t43 -71.5t28.5 -51v-6q0 -12 -12.5 -26.5t-24.5 -14.5 q-10 0 -29.5 19t-47.5 52t-36 42l-10 -13q-30 -39 -41 -61q-12 -18 -38.5 -36.5t-41.5 -18.5q-10 0 -10 10zM1167 559q60 341 60 594q0 67 -15 129q-7 -1 -12.5 -49.5t-10 -135.5t-8 -171.5t-7.5 -196t-7 -170.5z" />
<glyph unicode="&#xdc;" horiz-adv-x="1316" d="M76 551q0 163 65 350t164 354q127 215 203 215q55 0 55 -94q0 -59 -5.5 -133.5t-10.5 -116.5t-18.5 -147t-16.5 -131l-23 -238q-6 -55 -6 -170q0 -77 9 -155.5t31 -160.5t54.5 -145t85.5 -103t119 -40q136 0 273 334l43 121q0 19 -1 54t-1 54q0 266 24 621q0 6 1 35 t3 57.5t6 67.5t11.5 71t18.5 61t29 45.5t40 16.5q53 0 53 -203q0 -41 -2.5 -85.5t-7 -105t-6.5 -85.5q-23 -306 -97 -559q0 -32 5 -180l1 -36q1 -35 2.5 -62.5t4.5 -72.5t8.5 -78.5t13.5 -66.5t20.5 -51t28.5 -18q17 0 39 67q4 6 18 18.5t21 12.5q6 0 6 -8q0 -34 -46 -90 t-79 -56q-39 0 -66 87.5t-35.5 179.5t-8.5 170q-18 -39 -27.5 -58.5t-34.5 -67t-45 -75.5t-53 -67.5t-64 -61.5t-72 -38.5t-83 -16.5q-132 0 -217 167q-94 174 -94 480q0 103 24 393l25 205q25 202 26 264q0 99 -30 110q-79 -89 -148 -239t-106 -293.5t-37 -239.5 q0 -72 31 -94h4q5 3 20.5 23t35.5 36.5t40 16.5q10 0 10 -12q0 -33 -63.5 -95.5t-106.5 -62.5q-61 0 -61 125zM453 1391q2 -2 4 -2q-4 0 -4 2zM659 1681q0 41 64 50q26 0 35.5 -8.5t9.5 -30.5q0 -24 -15 -52q-18 -34 -51 -34q-43 3 -43 75zM897 1681q0 50 59 50 q25 -5 36.5 -14.5t11.5 -30.5q0 -30 -21 -55t-53 -25q-33 0 -33 75zM1174 559q59 335 59 594q0 72 -14 129q-7 -1 -12.5 -49.5t-10 -135.5t-8 -171.5t-7.5 -196t-7 -170.5z" />
<glyph unicode="&#xdd;" horiz-adv-x="1361" d="M68 922q0 68 31.5 141t83 136t106.5 114.5t112 91.5q39 28 93 51t98 23q115 0 115 -187q0 -44 -5 -94q-4 -69 -30.5 -345.5t-26.5 -426.5q0 -254 84 -254q119 0 244 199q83 128 136.5 282t68.5 312l-11 75q-1 7 -8.5 48t-7.5 63q0 23 4 33v8q4 18 30 48t46 30 q12 0 18 -15q0 -16 -2 -24q0 -84 23 -244t26 -190q19 -201 19 -320q0 -437 -187 -723q-96 -149 -252 -242.5t-325 -93.5q-141 0 -219 84t-78 248q0 211 61 211q7 0 7 -12q-17 -76 -17 -139q0 -166 75 -245t208 -79q79 0 155 22q105 30 189.5 94.5t140.5 149t93.5 189 t54 210.5t16.5 216q0 171 -27 372l-8 58q-64 -275 -221 -486q-57 -78 -136 -144.5t-155 -66.5q-19 0 -37 6q-67 19 -75 238q-3 24 -3 49q0 145 26 430t26 428q0 44 -5 72.5t-25 51t-56 22.5q-49 0 -115 -38t-125 -95t-100 -132.5t-41 -142.5q0 -59 39.5 -122t105.5 -83 q22 15 35 15q12 0 12 -13q0 -33 -38.5 -62.5t-67.5 -29.5q-49 0 -91.5 39t-64.5 91t-22 98zM260 743q2 3 6 5l-4 -3zM895 1542q0 31 48 111.5t85 109.5q5 2 15.5 8.5t19 10t16.5 0.5l6 -2q6 -1 11 -2.5t12 -5t12.5 -8t9 -12.5t3.5 -17q0 -19 -25 -46t-54.5 -48t-55 -38 t-25.5 -18q-15 -34 -23 -46.5t-24 -25.5q-1 -1 -8.5 1.5t-15 10t-7.5 17.5z" />
<glyph unicode="&#xde;" horiz-adv-x="550" d="M63 1298q6 28 43 61.5t52 2.5l-6 -365h4h57t69 -2t56.5 -7t65 -16.5t49.5 -29.5q34 -26 45.5 -71t13.5 -105q4 -44 1 -93t-11.5 -92t-33.5 -83.5t-65 -67.5q-31 -22 -83 -30t-81.5 -7t-93.5 6l-6 -344q-2 -14 -24 -32q-21 -15 -25 2q-8 190 -12.5 395t-8.5 482.5 t-6 395.5zM145 451q5 0 29.5 -0.5t41 0t43.5 1t47 3t42 6t37.5 10t24.5 14.5q8 7 13.5 17t9 23.5t5.5 23.5t3 27.5t1 25v25.5v20q-6 93 -6 96q-7 48 -26 81t-46 49t-61.5 24.5t-73 8t-79.5 -0.5z" />
<glyph unicode="&#xdf;" horiz-adv-x="655" d="M100 -274q0 116 2.5 229t7.5 249.5t7 209.5l12 448q3 124 28 202.5t101 152.5q55 55 129 55q59 0 100 -46.5t41 -131.5q0 -105 -57 -185q-10 -14 -38 -43t-42 -53t-14 -55q0 -30 13 -54.5t28.5 -38t43.5 -34t42 -33.5q100 -94 100 -215q0 -130 -53 -225 q-96 -170 -203 -170q-21 0 -57.5 11t-36.5 30q0 12 14.5 24.5t26.5 12.5q8 0 35 -16.5t45 -16.5q40 0 73.5 33t53 81t30.5 96.5t11 84.5q0 121 -99 207q-14 12 -44 33t-47 34.5t-31.5 40t-14.5 59.5q0 40 15.5 76.5t38 65.5t45 57.5t38 64t15.5 74.5q0 68 -34 116t-83 48 q-39 0 -68.5 -29.5t-44 -77t-21.5 -96t-7 -98.5q0 -25 1 -73t1 -70l-4 -291q-8 -420 -6 -635q0 -110 12 -205q-2 -22 -29.5 -53t-48.5 -31q-27 0 -27 181z" />
<glyph unicode="&#xe0;" horiz-adv-x="454" d="M-78 963q0 9 3.5 17t8.5 12.5t12 8t12 5t11 2.5l6 2q8 3 17 -0.5t19.5 -10t15.5 -8.5q37 -29 85 -109.5t48 -111.5q0 -10 -7.5 -17.5t-15 -10t-8.5 -1.5q-12 10 -23.5 33t-23.5 39q-12 17 -54 44.5t-74 54.5t-32 51zM-18 61q0 42 20 120.5t67.5 175.5t108.5 149 q-22 67 -61 67q-13 13 -13 29q0 55 54 55q46 0 76.5 -42t42.5 -105t21 -136.5t14.5 -136.5t21 -105t41.5 -42q30 0 55.5 27t41 70t22 65.5t10.5 42.5q2 8 17 22.5t24 14.5q6 0 6 -8q0 -17 -5.5 -40.5t-10.5 -39t-15.5 -43.5t-13.5 -35q-18 -45 -69.5 -95.5t-96.5 -50.5 q-27 0 -47 21.5t-33.5 65t-20.5 79.5t-16 95l-22 -54q-17 -38 -42.5 -83t-67 -93.5t-73.5 -48.5q-36 0 -36 59zM51 88l4 -8q0 -1 1 -2t1 -2q49 49 90 134.5t62 166.5l-6 37l-8 35l-2 -3q-45 -43 -93.5 -167.5t-48.5 -190.5z" />
<glyph unicode="&#xe1;" horiz-adv-x="454" d="M-18 61q0 42 20 120.5t67.5 175.5t108.5 149q-22 67 -61 67q-13 13 -13 29q0 55 54 55q46 0 76.5 -42t42.5 -105t21 -136.5t14.5 -136.5t21 -105t41.5 -42q30 0 55.5 27t41 70t22 65.5t10.5 42.5q2 8 17 22.5t24 14.5q6 0 6 -8q0 -17 -5.5 -40.5t-10.5 -39t-15.5 -43.5 t-13.5 -35q-18 -45 -69.5 -95.5t-96.5 -50.5q-27 0 -47 21.5t-33.5 65t-20.5 79.5t-16 95l-22 -54q-17 -38 -42.5 -83t-67 -93.5t-73.5 -48.5q-36 0 -36 59zM51 88l4 -8q0 -1 1 -2t1 -2q49 49 90 134.5t62 166.5l-6 37l-8 35l-2 -3q-45 -43 -93.5 -167.5t-48.5 -190.5z M174 784q0 32 48 112.5t85 109.5q5 2 15.5 8.5t19 9.5t16.5 0l6 -2q6 -1 11 -2.5t12 -5t12.5 -8t9 -12.5t3.5 -17q0 -19 -25 -46t-54.5 -48t-55 -38t-25.5 -18q-14 -33 -22.5 -45.5t-24.5 -25.5q-1 -1 -8.5 1t-15 9.5t-7.5 17.5z" />
<glyph unicode="&#xe2;" horiz-adv-x="454" d="M-18 61q0 42 20 120.5t67.5 175.5t108.5 149q-22 67 -61 67q-13 13 -13 29q0 55 54 55q46 0 76.5 -42t42.5 -105t21 -136.5t14.5 -136.5t21 -105t41.5 -42q30 0 55.5 27t41 70t22 65.5t10.5 42.5q2 8 17 22.5t24 14.5q6 0 6 -8q0 -17 -5.5 -40.5t-10.5 -39t-15.5 -43.5 t-13.5 -35q-18 -45 -69.5 -95.5t-96.5 -50.5q-27 0 -47 21.5t-33.5 65t-20.5 79.5t-16 95l-22 -54q-17 -38 -42.5 -83t-67 -93.5t-73.5 -48.5q-36 0 -36 59zM51 88l4 -8q0 -1 1 -2t1 -2q49 49 90 134.5t62 166.5l-6 37l-8 35l-2 -3q-45 -43 -93.5 -167.5t-48.5 -190.5z M61 795q0 12 15 36q113 168 164 168q20 0 41.5 -29t42.5 -71t28 -51v-6q0 -12 -12.5 -26.5t-24.5 -14.5q-10 0 -29 18.5t-47 51.5t-36 42l-10 -12q-30 -39 -41 -61q-12 -18 -38.5 -37t-41.5 -19q-11 0 -11 11z" />
<glyph unicode="&#xe3;" horiz-adv-x="454" d="M-18 61q0 42 20 120.5t67.5 175.5t108.5 149q-22 67 -61 67q-13 13 -13 29q0 55 54 55q46 0 76.5 -42t42.5 -105t21 -136.5t14.5 -136.5t21 -105t41.5 -42q30 0 55.5 27t41 70t22 65.5t10.5 42.5q2 8 17 22.5t24 14.5q6 0 6 -8q0 -17 -5.5 -40.5t-10.5 -39t-15.5 -43.5 t-13.5 -35q-18 -45 -69.5 -95.5t-96.5 -50.5q-27 0 -47 21.5t-33.5 65t-20.5 79.5t-16 95l-22 -54q-17 -38 -42.5 -83t-67 -93.5t-73.5 -48.5q-36 0 -36 59zM23 805q0 4 4 20q27 66 72.5 110t74.5 44q20 0 37 -19t38.5 -48t45.5 -44q8 11 20 39.5t25 45t31 16.5q4 0 4 -6 q0 -7 -2 -13q-2 -4 -10 -27.5t-16 -40t-21 -37.5t-31.5 -32.5t-40.5 -11.5q-27 0 -66.5 42.5t-54.5 51.5q-3 -4 -22 -47q-9 -15 -35.5 -36t-42.5 -21q-10 0 -10 14zM51 88l4 -8q0 -1 1 -2t1 -2q49 49 90 134.5t62 166.5l-6 37l-8 35l-2 -3q-45 -43 -93.5 -167.5 t-48.5 -190.5z" />
<glyph unicode="&#xe4;" horiz-adv-x="454" d="M-18 61q0 42 20 120.5t67.5 175.5t108.5 149q-22 67 -61 67q-13 13 -13 29q0 55 54 55q46 0 76.5 -42t42.5 -105t21 -136.5t14.5 -136.5t21 -105t41.5 -42q30 0 55.5 27t41 70t22 65.5t10.5 42.5q2 8 17 22.5t24 14.5q6 0 6 -8q0 -17 -5.5 -40.5t-10.5 -39t-15.5 -43.5 t-13.5 -35q-18 -45 -69.5 -95.5t-96.5 -50.5q-27 0 -47 21.5t-33.5 65t-20.5 79.5t-16 95l-22 -54q-17 -38 -42.5 -83t-67 -93.5t-73.5 -48.5q-36 0 -36 59zM27 893q0 40 63 49q26 0 35.5 -8.5t9.5 -30.5q0 -26 -15 -54q-18 -32 -50 -32q-43 3 -43 76zM51 88l4 -8q0 -1 1 -2 t1 -2q49 49 90 134.5t62 166.5l-6 37l-8 35l-2 -3q-45 -43 -93.5 -167.5t-48.5 -190.5zM264 893q0 49 60 49q25 -5 36 -14.5t11 -30.5q0 -30 -21 -55t-53 -25q-33 0 -33 76z" />
<glyph unicode="&#xe5;" horiz-adv-x="454" d="M-18 61q0 42 20 120.5t67.5 175.5t108.5 149q-22 67 -61 67q-13 13 -13 29q0 55 54 55q46 0 76.5 -42t42.5 -105t21 -136.5t14.5 -136.5t21 -105t41.5 -42q30 0 55.5 27t41 70t22 65.5t10.5 42.5q2 8 17 22.5t24 14.5q6 0 6 -8q0 -17 -5.5 -40.5t-10.5 -39t-15.5 -43.5 t-13.5 -35q-18 -45 -69.5 -95.5t-96.5 -50.5q-27 0 -47 21.5t-33.5 65t-20.5 79.5t-16 95l-22 -54q-17 -38 -42.5 -83t-67 -93.5t-73.5 -48.5q-36 0 -36 59zM51 88l4 -8q0 -1 1 -2t1 -2q49 49 90 134.5t62 166.5l-6 37l-8 35l-2 -3q-45 -43 -93.5 -167.5t-48.5 -190.5z M168 885v6q3 51 25.5 78.5t52.5 27.5q29 0 51 -29t22 -81q0 -45 -21.5 -70.5t-51.5 -25.5q-29 0 -51.5 24.5t-26.5 69.5zM223 905q0 -43 27 -43q9 0 16.5 11t7.5 32q0 39 -26 39q-25 0 -25 -39z" />
<glyph unicode="&#xe6;" horiz-adv-x="581" d="M-4 49q0 22 12 75.5t34.5 122.5t62.5 138.5t88 108.5q-30 67 -62 67q-8 8 -8 21q0 24 18 44.5t37 22.5q44 -19 75.5 -61t37.5 -88l12 -97q25 90 72 151.5t114 61.5q54 0 54 -61q0 -77 -61.5 -160t-139.5 -114q-4 -36 -4 -56q0 -102 55 -157l15 -5q51 0 96 44t71 96.5 t52 96.5t43 44q6 0 6 -12q-43 -121 -131 -228.5t-168 -107.5q-31 0 -54 20t-36 58.5t-19.5 69t-13 79.5t-8.5 62l-29 -70q-16 -37 -44 -84.5t-69 -94t-71 -46.5q-37 0 -37 59zM66 76l4 -8q0 -1 1 -2.5t1 -2.5q54 54 94 140.5t61 175.5q-9 43 -14 59l-6 -4 q-45 -43 -93 -167.5t-48 -190.5zM356 360q3 3 15 9q31 9 60.5 50t29.5 79q0 37 -29 37q-26 0 -65 -136q-9 -27 -11 -39z" />
<glyph unicode="&#xe7;" horiz-adv-x="309" d="M10 111q0 120 42 246.5t126 195.5q35 27 58 27q34 0 34 -45q0 -33 -22.5 -67t-59.5 -42h-6q-16 0 -16 10q0 6 13.5 23t13.5 20q0 4 -5 4q-2 0 -10 -4q-45 -60 -69.5 -149.5t-24.5 -171.5q0 -109 51 -109q33 0 79.5 40.5t84.5 98.5q12 17 28 57t31 64.5t33 24.5q6 0 6 -12 q-23 -87 -74 -166.5t-122 -128.5q-75 -50 -113 -50q-42 0 -60 41.5t-18 92.5zM68 -264q0 14 12 27.5t24 13.5q3 0 9 -5.5t6 -9.5q24 -16 39 -16q7 0 8.5 2t1.5 10q0 40 -19.5 67t-46.5 34q-12 2 -12 16l-6 100q3 16 29 37t47 21q12 0 18 -15l-6 -79q30 -9 49 -51.5t19 -75.5 q0 -45 -32 -85t-79 -40q-20 0 -40.5 13t-20.5 36z" />
<glyph unicode="&#xe8;" horiz-adv-x="342" d="M-20 963q0 9 3.5 17t8.5 12.5t12 8t12 5t11 2.5l6 2q8 3 16.5 -0.5t19 -10t15.5 -8.5q37 -29 85 -109.5t48 -111.5q0 -10 -7.5 -17.5t-15 -10t-8.5 -1.5q-12 10 -23.5 33t-23.5 39q-12 17 -53.5 44.5t-73.5 54.5t-32 51zM33 166q0 56 12.5 125.5t36.5 141t69 119.5 t101 48q53 0 53 -63q0 -30 -10 -60q-24 -69 -75.5 -127t-115.5 -84q-4 -40 -4 -61q0 -33 6.5 -66.5t26 -62.5t47.5 -29q33 0 68.5 28.5t65 75t47 79.5t32.5 67q4 6 18 18.5t21 12.5q6 0 6 -13q-43 -125 -133.5 -231.5t-165.5 -106.5q-50 0 -78 51.5t-28 137.5zM121 344 q35 9 69.5 58t34.5 90q0 26 -20 26q-17 0 -32 -23t-22 -44.5t-17 -56.5q-1 -3 -1.5 -6t-1.5 -5q-8 -23 -10 -39z" />
<glyph unicode="&#xe9;" horiz-adv-x="342" d="M33 166q0 56 12.5 125.5t36.5 141t69 119.5t101 48q53 0 53 -63q0 -30 -10 -60q-24 -69 -75.5 -127t-115.5 -84q-4 -40 -4 -61q0 -33 6.5 -66.5t26 -62.5t47.5 -29q33 0 68.5 28.5t65 75t47 79.5t32.5 67q4 6 18 18.5t21 12.5q6 0 6 -13q-43 -125 -133.5 -231.5 t-165.5 -106.5q-50 0 -78 51.5t-28 137.5zM121 344q35 9 69.5 58t34.5 90q0 26 -20 26q-17 0 -32 -23t-22 -44.5t-17 -56.5q-1 -3 -1.5 -6t-1.5 -5q-8 -23 -10 -39zM221 784q0 32 48 112.5t85 109.5q5 2 15.5 8.5t19.5 9.5t17 0l6 -2q6 -1 11 -2.5t12 -5t12 -8t8.5 -12.5 t3.5 -17q0 -19 -25 -46t-54.5 -48t-55 -38t-25.5 -18q-14 -33 -22.5 -45.5t-24.5 -25.5q-1 -1 -8.5 1t-15 9.5t-7.5 17.5z" />
<glyph unicode="&#xea;" horiz-adv-x="342" d="M33 166q0 56 12.5 125.5t36.5 141t69 119.5t101 48q53 0 53 -63q0 -30 -10 -60q-24 -69 -75.5 -127t-115.5 -84q-4 -40 -4 -61q0 -33 6.5 -66.5t26 -62.5t47.5 -29q33 0 68.5 28.5t65 75t47 79.5t32.5 67q4 6 18 18.5t21 12.5q6 0 6 -13q-43 -125 -133.5 -231.5 t-165.5 -106.5q-50 0 -78 51.5t-28 137.5zM78 770q0 15 14 37q113 168 164 168q20 0 41.5 -29.5t43 -71.5t28.5 -51v-6q0 -12 -12.5 -26.5t-24.5 -14.5q-10 0 -29.5 19t-47.5 52t-36 42l-10 -12q-28 -37 -41 -62q-12 -18 -38.5 -36.5t-41.5 -18.5q-10 0 -10 10zM121 344 q35 9 69.5 58t34.5 90q0 26 -20 26q-17 0 -32 -23t-22 -44.5t-17 -56.5q-1 -3 -1.5 -6t-1.5 -5q-8 -23 -10 -39z" />
<glyph unicode="&#xeb;" horiz-adv-x="342" d="M12 893q0 40 64 49q26 0 35.5 -8.5t9.5 -30.5q0 -24 -15 -52q-18 -34 -51 -34q-43 3 -43 76zM23 166q0 56 12.5 125.5t36.5 141t69 119.5t101 48q53 0 53 -63q0 -30 -10 -60q-24 -69 -75.5 -127t-115.5 -84q-4 -40 -4 -61q0 -33 6.5 -66.5t26 -62.5t47.5 -29 q33 0 68.5 28.5t65 75t47 79.5t32.5 67q4 6 18 18.5t21 12.5q6 0 6 -13q-43 -125 -133.5 -231.5t-165.5 -106.5q-50 0 -78 51.5t-28 137.5zM111 344q35 9 69.5 58t34.5 90q0 26 -20 26q-17 0 -32 -23t-22 -44.5t-17 -56.5q-1 -3 -1.5 -6t-1.5 -5q-8 -23 -10 -39zM250 893 q0 49 59 49q25 -5 36 -14.5t11 -30.5q0 -30 -20.5 -55t-52.5 -25q-33 0 -33 76z" />
<glyph unicode="&#xec;" horiz-adv-x="339" d="M-68 946q0 9 3.5 17t9 12.5t12.5 8t12 5t11 3.5l6 1q8 3 16.5 0t19 -9.5t15.5 -8.5q37 -29 85 -109.5t48 -111.5q0 -10 -7.5 -17.5t-15 -10t-8.5 -1.5q-12 10 -23.5 33t-23.5 39q-12 17 -54 44t-74 54t-32 51zM47 315v86v43q4 18 30 48t46 30q12 0 18 -14 q-1 -25 -5.5 -96.5t-4.5 -110.5q0 -35 4 -73.5t13.5 -80.5t28.5 -69t44 -27q6 0 8 2q54 35 96.5 104.5t65.5 143.5q4 6 18 18.5t21 12.5q6 0 6 -8v-5q-16 -66 -57.5 -143t-99 -135.5t-107.5 -58.5q-39 0 -66 35t-38.5 92.5t-16 106t-4.5 99.5z" />
<glyph unicode="&#xed;" horiz-adv-x="339" d="M39 315v86v43q4 18 30 48t46 30q12 0 18 -14q-1 -25 -5.5 -96.5t-4.5 -110.5q0 -35 4 -73.5t13.5 -80.5t28.5 -69t44 -27q6 0 8 2q54 35 96.5 104.5t65.5 143.5q4 6 18 18.5t21 12.5q6 0 6 -8v-5q-16 -66 -57.5 -143t-99 -135.5t-107.5 -58.5q-39 0 -66 35t-38.5 92.5 t-16 106t-4.5 99.5zM72 784q0 32 48 112.5t85 109.5q5 2 15.5 8.5t19 9.5t16.5 0l6 -2q6 -1 11 -2.5t12 -5t12 -8t8.5 -12.5t3.5 -17q0 -19 -24.5 -46t-54 -48t-55 -38t-25.5 -18q-14 -32 -22.5 -45t-25.5 -26q-1 -1 -8.5 1t-14.5 9.5t-7 17.5z" />
<glyph unicode="&#xee;" horiz-adv-x="339" d="M-51 774q0 15 14 37q113 168 164 168q20 0 41.5 -29.5t43 -71.5t28.5 -51v-6q0 -12 -12.5 -26.5t-24.5 -14.5q-10 0 -29.5 19t-47.5 52t-36 42l-10 -12q-28 -37 -41 -62q-12 -18 -38.5 -36.5t-41.5 -18.5q-10 0 -10 10zM47 315v86v43q4 18 30 48t46 30q12 0 18 -14 q-1 -25 -5.5 -96.5t-4.5 -110.5q0 -35 4 -73.5t13.5 -80.5t28.5 -69t44 -27q6 0 8 2q54 35 96.5 104.5t65.5 143.5q4 6 18 18.5t21 12.5q6 0 6 -8v-5q-16 -66 -57.5 -143t-99 -135.5t-107.5 -58.5q-39 0 -66 35t-38.5 92.5t-16 106t-4.5 99.5z" />
<glyph unicode="&#xef;" horiz-adv-x="339" d="M-57 893q0 40 63 49q26 0 35.5 -8.5t9.5 -30.5q0 -26 -15 -54q-18 -32 -50 -32q-43 3 -43 76zM39 315v86v43q4 18 30 48t46 30q12 0 18 -14q-1 -25 -5.5 -96.5t-4.5 -110.5q0 -35 4 -73.5t13.5 -80.5t28.5 -69t44 -27q6 0 8 2q54 35 96.5 104.5t65.5 143.5q4 6 18 18.5 t21 12.5q6 0 6 -8v-5q-16 -66 -57.5 -143t-99 -135.5t-107.5 -58.5q-39 0 -66 35t-38.5 92.5t-16 106t-4.5 99.5zM180 893q0 49 60 49q25 -5 36 -14.5t11 -30.5q0 -30 -21 -55t-53 -25q-33 0 -33 76z" />
<glyph unicode="&#xf0;" horiz-adv-x="444" d="M23 274q0 109 42.5 175.5t112.5 66.5q38 0 81 -24t63 -64q-33 248 -103 422l-4 -4q-31 -25 -47 -25t-16 17t24 47l21 16q-28 61 -68 107q0 27 23.5 55.5t52.5 28.5q25 0 78 -109q17 21 34 21q7 0 7 -7q0 -6 -9 -18l-18 -31q117 -323 117 -631q0 -50 -2 -75 q-2 -59 -25 -121t-72 -110t-112 -48q-56 0 -98.5 52t-62 121t-19.5 138zM92 352q0 -253 146 -317q51 0 72 39.5t28 111.5q-7 72 -29 125q-24 54 -66.5 100t-90.5 46q-60 0 -60 -105z" />
<glyph unicode="&#xf1;" horiz-adv-x="456" d="M26 40.5q-1 34.5 1.5 65.5t6 67.5t3.5 47.5q2 34 5 96t6 113.5t7 95.5q6 25 43 58q42 37 51 12q2 -7 1 -18q-8 -49 -15.5 -145t-13.5 -140q-2 -21 -7.5 -63t-7.5 -62l41 98q6 15 20 53t23 63.5t22.5 57.5t25.5 54q12 29 49 61q42 36 45 1q1 -5 0 -11q-43 -184 -15 -361 q0 -2 2 -15t3.5 -19t4.5 -19.5t5.5 -21.5t7 -19t10 -17.5t12.5 -12.5t15 -9q1 0 3 1t3 1q59 57 123 246q4 13 26 30q22 18 21 -3v-2q-7 -38 -53 -154q-24 -59 -51 -96q-39 -58 -76 -79.5t-69 0.5t-50 91q-33 115 -33 240l-10 -33l-55 -148q-3 -8 -11 -30t-12.5 -32.5 t-13 -27.5t-17.5 -30t-20 -25q-21 -14 -35 -18h-2l-12 6q-6 18 -7 52.5zM29 784q0 5 4 21q27 66 72.5 109.5t74.5 43.5q20 0 37 -19t38.5 -47.5t45.5 -43.5q8 11 20 39.5t25 44.5t31 16q4 0 4 -6t-2 -12q-2 -4 -10 -27.5t-16 -40.5t-21 -38t-31.5 -32.5t-40.5 -11.5 q-27 0 -66.5 42.5t-54.5 51.5q-3 -4 -22 -47q-9 -15 -35.5 -36t-42.5 -21q-10 0 -10 14z" />
<glyph unicode="&#xf2;" horiz-adv-x="481" d="M25 963q0 9 3.5 17t8.5 12.5t12 8t12 5t11 2.5l6 2q8 3 16.5 -0.5t19 -10t15.5 -8.5q37 -29 85 -109.5t48 -111.5q0 -10 -7.5 -17.5t-15 -10t-8.5 -1.5q-12 10 -23.5 33t-23.5 39q-12 17 -53.5 44.5t-73.5 54.5t-32 51zM43 246q0 132 35 211q12 29 45.5 61.5t60.5 32.5 q11 0 25 -10.5t14 -28.5q0 -6 -8 -18q14 11 38 22.5t36 11.5q39 0 67 -24t41.5 -62.5t19 -75.5t5.5 -75q0 -59 -14 -111q35 14 68 53.5t56.5 71t40.5 31.5q5 0 5 -6q0 -7 -3 -13q-77 -146 -192 -200q-30 -57 -80.5 -97t-105.5 -40q-42 0 -73 22.5t-48 61.5t-25 84t-8 98z M121 309q0 -82 25.5 -154t70.5 -100q6 -2 19 -2q54 0 86 49q-83 0 -131 61.5t-48 153.5q0 68 31 125q-17 -10 -27 -10q-6 0 -8 2q-18 -56 -18 -125zM217 369q0 -70 37.5 -128t99.5 -67q13 54 13 107q0 64 -16.5 119t-45.5 79q-6 4 -16 4q-37 0 -54.5 -35.5t-17.5 -78.5z" />
<glyph unicode="&#xf3;" horiz-adv-x="481" d="M43 246q0 132 35 211q12 29 45.5 61.5t60.5 32.5q11 0 25 -10.5t14 -28.5q0 -6 -8 -18q14 11 38 22.5t36 11.5q39 0 67 -24t41.5 -62.5t19 -75.5t5.5 -75q0 -59 -14 -111q35 14 68 53.5t56.5 71t40.5 31.5q5 0 5 -6q0 -7 -3 -13q-77 -146 -192 -200q-30 -57 -80.5 -97 t-105.5 -40q-42 0 -73 22.5t-48 61.5t-25 84t-8 98zM121 309q0 -82 25.5 -154t70.5 -100q6 -2 19 -2q54 0 86 49q-83 0 -131 61.5t-48 153.5q0 68 31 125q-17 -10 -27 -10q-6 0 -8 2q-18 -56 -18 -125zM168 784q0 32 48 112.5t85 109.5q5 2 15.5 8.5t19 9.5t16.5 0l6 -2 q6 -1 11 -2.5t12 -5t12.5 -8t9 -12.5t3.5 -17q0 -19 -25 -46t-54.5 -48t-55 -38t-25.5 -18q-14 -33 -22.5 -45.5t-24.5 -25.5q-1 -1 -8.5 1t-15 9.5t-7.5 17.5zM217 369q0 -70 37.5 -128t99.5 -67q13 54 13 107q0 64 -16.5 119t-45.5 79q-6 4 -16 4q-37 0 -54.5 -35.5 t-17.5 -78.5z" />
<glyph unicode="&#xf4;" horiz-adv-x="481" d="M43 246q0 132 35 211q12 29 45.5 61.5t60.5 32.5q11 0 25 -10.5t14 -28.5q0 -6 -8 -18q14 11 38 22.5t36 11.5q39 0 67 -24t41.5 -62.5t19 -75.5t5.5 -75q0 -59 -14 -111q35 14 68 53.5t56.5 71t40.5 31.5q5 0 5 -6q0 -7 -3 -13q-77 -146 -192 -200q-30 -57 -80.5 -97 t-105.5 -40q-42 0 -73 22.5t-48 61.5t-25 84t-8 98zM86 795q0 14 14 36q113 168 164 168q20 0 41.5 -29t43 -71t28.5 -51v-6q0 -12 -12.5 -26.5t-24.5 -14.5q-10 0 -29.5 18.5t-47.5 52t-36 41.5l-10 -12q-30 -39 -41 -61q-12 -18 -38.5 -37t-41.5 -19q-10 0 -10 11z M121 309q0 -82 25.5 -154t70.5 -100q6 -2 19 -2q54 0 86 49q-83 0 -131 61.5t-48 153.5q0 68 31 125q-17 -10 -27 -10q-6 0 -8 2q-18 -56 -18 -125zM217 369q0 -70 37.5 -128t99.5 -67q13 54 13 107q0 64 -16.5 119t-45.5 79q-6 4 -16 4q-37 0 -54.5 -35.5t-17.5 -78.5z" />
<glyph unicode="&#xf5;" horiz-adv-x="481" d="M43 246q0 132 35 211q12 29 45.5 61.5t60.5 32.5q11 0 25 -10.5t14 -28.5q0 -6 -8 -18q14 11 38 22.5t36 11.5q39 0 67 -24t41.5 -62.5t19 -75.5t5.5 -75q0 -59 -14 -111q35 14 68 53.5t56.5 71t40.5 31.5q5 0 5 -6q0 -7 -3 -13q-77 -146 -192 -200q-30 -57 -80.5 -97 t-105.5 -40q-42 0 -73 22.5t-48 61.5t-25 84t-8 98zM70 788q0 5 4 21q27 66 72.5 110t74.5 44q20 0 37 -19t38.5 -48t45.5 -44q8 11 20 39.5t25 44.5t31 16q4 0 4 -6t-2 -12q-2 -4 -10 -27.5t-16 -40.5t-21 -38t-31.5 -32.5t-40.5 -11.5q-27 0 -66.5 43t-54.5 52 q-2 -2 -22 -48q-9 -15 -35.5 -36t-42.5 -21q-10 0 -10 14zM121 309q0 -82 25.5 -154t70.5 -100q6 -2 19 -2q54 0 86 49q-83 0 -131 61.5t-48 153.5q0 68 31 125q-17 -10 -27 -10q-6 0 -8 2q-18 -56 -18 -125zM217 369q0 -70 37.5 -128t99.5 -67q13 54 13 107q0 64 -16.5 119 t-45.5 79q-6 4 -16 4q-37 0 -54.5 -35.5t-17.5 -78.5z" />
<glyph unicode="&#xf6;" horiz-adv-x="481" d="M31 893q0 40 63 49q26 0 35.5 -8.5t9.5 -30.5q0 -26 -15 -54q-18 -32 -50 -32q-43 3 -43 76zM37 246q0 132 35 211q12 29 45.5 61.5t60.5 32.5q11 0 25 -10.5t14 -28.5q0 -6 -8 -18q14 11 38 22.5t36 11.5q39 0 67 -24t41.5 -62.5t19 -75.5t5.5 -75q0 -55 -15 -111 q35 14 68 53.5t57 71t41 31.5q4 0 4 -6q0 -9 -2 -13q-77 -146 -192 -200q-30 -57 -81 -97t-106 -40q-42 0 -73 22.5t-48 61.5t-24.5 84t-7.5 98zM115 309q0 -82 25.5 -154t70.5 -100q6 -2 18 -2q54 0 86 49q-83 0 -130.5 61.5t-47.5 153.5q0 68 31 125q-17 -10 -27 -10 q-6 0 -8 2q-18 -56 -18 -125zM211 369q0 -70 37.5 -128t99.5 -67q12 50 12 107q0 65 -16 119.5t-45 78.5q-6 4 -16 4q-37 0 -54.5 -35.5t-17.5 -78.5zM268 893q0 49 60 49q25 -5 36 -14.5t11 -30.5q0 -30 -21 -55t-53 -25q-33 0 -33 76z" />
<glyph unicode="&#xf7;" horiz-adv-x="524" d="M16.5 361.5q16.5 24.5 48.5 44t54 20.5q57 -12 174 -18t174 -19q27 -11 -13 -41q-17 -13 -28 -16q-22 -1 -135.5 -9t-135.5 -8h-135q-20 22 -3.5 46.5zM203 625q0 63 69 63q14 0 30.5 -16.5t16.5 -46.5q-3 -66 -71 -66q-25 0 -36.5 18.5t-8.5 47.5zM205 106q0 32 19 48 t50 16q14 0 31 -17t17 -47q-3 -65 -72 -65q-25 0 -36.5 18t-8.5 47z" />
<glyph unicode="&#xf8;" horiz-adv-x="456" d="M-47 -63q0 5 6 14l92 139q-18 62 -18 139q0 70 13 137.5t34 106.5q12 25 42 51.5t56 26.5q28 0 39 -35v-4q30 27 70 27q30 0 57 -17l47 74q10 13 34.5 30t37.5 17q10 0 10 -12q0 -9 -6 -27l-86 -123q35 -60 35 -182q0 -63 -15 -121q27 11 53.5 38.5t43.5 53t36 46 t33 20.5q4 0 4 -6q0 -9 -2 -13q-34 -62 -82.5 -114.5t-103.5 -77.5q-30 -61 -83.5 -105.5t-111.5 -44.5q-77 0 -118 74l-78 -102q-15 -19 -31 -19q-8 0 -8 9zM111 461l4 -4h2q-4 0 -6 4zM117 281q0 -45 8 -84l31 45q-15 44 -15 90q0 54 25 108q-12 -6 -23 -6h-4 q-22 -74 -22 -153zM139 145q32 -86 94 -86q53 0 82 50h-8q-83 0 -133 84q-5 -8 -35 -48zM205 375q0 -27 6 -51l82 122q-21 21 -47 21h-13q-28 -35 -28 -92zM229 268q18 -36 47 -62.5t62 -33.5q8 36 8 82q0 84 -22 145q-86 -119 -95 -131z" />
<glyph unicode="&#xf9;" horiz-adv-x="487" d="M12 958q0 9 3.5 17t9 12.5t12.5 8.5t12 5.5t11 2.5l6 2q8 3 16.5 -0.5t19 -10t15.5 -8.5q37 -29 85 -109.5t48 -111.5q0 -10 -7.5 -17.5t-15 -10t-8.5 -1.5q-12 10 -23.5 33t-23.5 39q-12 17 -54 44t-74 54t-32 51zM41 135q0 207 22 301q3 19 34.5 49.5t49.5 30.5 q15 0 15 -27q-51 -182 -51 -337q0 -64 10 -95q39 31 83.5 97t61.5 122q-2 20 -2 64q0 78 15 152q5 20 33 48.5t46 28.5q15 0 15 -26q-27 -118 -27 -244q0 -59 10.5 -135t20.5 -76q4 0 12 8q101 111 150 205q5 8 19.5 19.5t21.5 11.5q4 0 4 -6q0 -7 -2 -13 q-27 -58 -66 -122.5t-92 -121.5t-92 -57q-13 0 -22.5 11.5t-14.5 31.5t-8 38t-5 41t-3 30l-5 26q-42 -76 -102 -141t-102 -65q-29 0 -29 151z" />
<glyph unicode="&#xfa;" horiz-adv-x="487" d="M41 135q0 207 22 301q3 19 34.5 49.5t49.5 30.5q15 0 15 -27q-51 -182 -51 -337q0 -64 10 -95q39 31 83.5 97t61.5 122q-2 20 -2 64q0 78 15 152q5 20 33 48.5t46 28.5q15 0 15 -26q-27 -118 -27 -244q0 -59 10.5 -135t20.5 -76q4 0 12 8q101 111 150 205q5 8 19.5 19.5 t21.5 11.5q4 0 4 -6q0 -7 -2 -13q-27 -58 -66 -122.5t-92 -121.5t-92 -57q-13 0 -22.5 11.5t-14.5 31.5t-8 38t-5 41t-3 30l-5 26q-42 -76 -102 -141t-102 -65q-29 0 -29 151zM193 784q0 32 48 112.5t85 109.5q5 2 15.5 8.5t19 9.5t16.5 0l6 -2q6 -1 11 -2.5t12 -5t12 -8 t8.5 -12.5t3.5 -17q0 -19 -25 -46t-54.5 -48t-55 -38t-25.5 -18q-14 -33 -22.5 -45.5t-24.5 -25.5q-1 -1 -8.5 1t-14.5 9.5t-7 17.5z" />
<glyph unicode="&#xfb;" horiz-adv-x="487" d="M41 135q0 207 22 301q3 19 34.5 49.5t49.5 30.5q15 0 15 -27q-51 -182 -51 -337q0 -64 10 -95q39 31 83.5 97t61.5 122q-2 20 -2 64q0 78 15 152q5 20 33 48.5t46 28.5q15 0 15 -26q-27 -118 -27 -244q0 -59 10.5 -135t20.5 -76q4 0 12 8q101 111 150 205q5 8 19.5 19.5 t21.5 11.5q4 0 4 -6q0 -7 -2 -13q-27 -58 -66 -122.5t-92 -121.5t-92 -57q-13 0 -22.5 11.5t-14.5 31.5t-8 38t-5 41t-3 30l-5 26q-42 -76 -102 -141t-102 -65q-29 0 -29 151zM70 795q0 14 14 36q113 168 164 168q20 0 41.5 -29t42.5 -71t28 -51v-6q0 -12 -12 -26.5 t-24 -14.5q-10 0 -29.5 18.5t-47.5 52t-36 41.5l-10 -12q-30 -39 -41 -61q-12 -18 -38.5 -37t-41.5 -19q-10 0 -10 11z" />
<glyph unicode="&#xfc;" horiz-adv-x="487" d="M41 135q0 207 22 301q3 19 34.5 49.5t49.5 30.5q15 0 15 -27q-51 -182 -51 -337q0 -64 10 -95q39 31 83.5 97t61.5 122q-2 20 -2 64q0 78 15 152q5 20 33 48.5t46 28.5q15 0 15 -26q-27 -118 -27 -244q0 -59 10.5 -135t20.5 -76q4 0 12 8q101 111 150 205q5 8 19.5 19.5 t21.5 11.5q4 0 4 -6q0 -7 -2 -13q-27 -58 -66 -122.5t-92 -121.5t-92 -57q-13 0 -22.5 11.5t-14.5 31.5t-8 38t-5 41t-3 30l-5 26q-42 -76 -102 -141t-102 -65q-29 0 -29 151zM55 893q0 40 64 49q26 0 35.5 -8.5t9.5 -30.5q0 -24 -15 -52q-18 -34 -51 -34q-43 3 -43 76z M293 893q0 49 59 49q25 -5 36 -14.5t11 -30.5q0 -30 -20.5 -55t-52.5 -25q-33 0 -33 76z" />
<glyph unicode="&#xfd;" horiz-adv-x="425" d="M-340 -141q5 14 23 30t26 0q15 -194 115 -299q64 -66 140 -87.5t147 10.5t114 116q66 133 62 369q0 145 -8 260l-33 -104q-36 -108 -61 -147q-27 -44 -64 -68q-18 -11 -31 -11q-6 3 -11 7.5t-8.5 11t-6.5 11.5t-5 14t-3 14t-2 16t-1.5 14.5t-1 14.5t-0.5 12 q-13 147 -6 393q5 25 37 56q41 41 57 8q-1 -19 -6.5 -91t-6.5 -103.5t-2.5 -88.5t2 -103t11.5 -91q101 224 119 401q-6 34 -33 135q-3 26 31 61q37 38 56 22q4 -3 7 -9q61 -225 50 -582q-2 -133 -22 -239.5t-75 -196.5q-40 -64 -106 -123q-99 -83 -223.5 -61.5t-194.5 127.5 q-79 128 -86 301zM156 784q0 32 48 112.5t85 109.5q5 2 15.5 8.5t19 9.5t16.5 0l6 -2q6 -1 11 -2.5t12 -5t12 -8t8.5 -12.5t3.5 -17q0 -19 -25 -46t-54.5 -48t-55 -38t-25.5 -18q-14 -33 -22.5 -45.5t-24.5 -25.5q-1 -1 -8.5 1t-14.5 9.5t-7 17.5z" />
<glyph unicode="&#xfe;" horiz-adv-x="497" d="M41 1241q5 25 37 56q41 41 57 8q1 -84 -4 -504q37 41 81 61.5t93.5 11.5t87.5 -57q13 -17 41 -74q22 -43 33 -106q20 -87 7 -228t-58 -219q-25 -46 -54 -77q-16 -21 -41.5 -38.5t-50.5 -21.5q-97 -17 -155 101q-3 -226 0 -453q-2 -14 -24 -32q-21 -16 -25 1 q-17 283 -17.5 815.5t-7.5 755.5zM127 344q7 -68 29 -115q16 -34 40.5 -62t52.5 -44t57 -3.5t50 56.5q40 85 49.5 199t-12.5 205q-28 138 -94 184q-124 89 -156 -74q-16 -93 -16 -346z" />
<glyph unicode="&#xff;" horiz-adv-x="425" d="M-334 -141q5 14 23 30t26 0q15 -194 115 -299q64 -66 140 -87.5t147 10.5t114 116q66 133 62 369q0 145 -8 260l-33 -104q-36 -108 -61 -147q-27 -44 -64 -68q-18 -11 -31 -11q-6 3 -11 7.5t-8.5 11t-6.5 11.5t-5 14t-3 14t-2 16t-1.5 14.5t-1 14.5t-0.5 12 q-13 147 -6 393q5 25 37 56q41 41 57 8q-1 -19 -6.5 -91t-6.5 -103.5t-2.5 -88.5t2 -103t11.5 -91q101 224 119 401q-6 34 -33 135q-3 26 32 62q37 37 56 21q4 -3 7 -9q60 -222 49 -582q-2 -133 -22 -239.5t-75 -196.5q-40 -64 -106 -123q-99 -83 -223.5 -61.5t-194.5 127.5 q-79 128 -86 301zM18 893q0 40 64 49q26 0 35.5 -8.5t9.5 -30.5q0 -24 -15 -52q-18 -34 -51 -34q-43 3 -43 76zM256 893q0 49 59 49q25 -5 36 -14.5t11 -30.5q0 -30 -20.5 -55t-52.5 -25q-33 0 -33 76z" />
<glyph unicode="&#x152;" horiz-adv-x="2066" d="M68 446q0 201 69 396q4 118 43 233t104.5 205.5t161 146.5t203.5 56q105 0 191.5 -42.5t141.5 -108t95.5 -154.5t60 -171t29.5 -169q19 56 48 120.5t69.5 136.5t91 137.5t106 119t120.5 85t129 31.5q60 0 109.5 -20.5t83 -56.5t56 -77t37.5 -91q-2 -21 -26 -51.5 t-47 -30.5q-13 0 -21 8q-32 113 -92 170t-158 57q-67 0 -127.5 -32.5t-107 -85t-87 -126t-69 -148t-52.5 -158.5t-38.5 -149.5t-24.5 -129.5q185 33 389 61q16 2 63 10.5t88 13.5t77 5q84 0 84 -19q0 -11 -15 -23.5t-26 -12.5q-7 0 -21 1t-22 1q-38 -1 -88 -9t-103.5 -19.5 t-72.5 -14.5q-278 -53 -361 -70q-2 -31 -2 -88q0 -107 26 -195.5t71 -149.5t108 -102.5t136.5 -61t156.5 -19.5q121 0 233 38t168 115q18 21 35 21q6 0 6 -6q0 -8 -8 -19q-71 -102 -207.5 -157.5t-284.5 -55.5q-227 0 -353.5 122t-153.5 341q-28 -69 -84.5 -151.5 t-128.5 -160t-160.5 -129t-167.5 -51.5q-84 0 -155.5 28.5t-123 78.5t-91.5 115.5t-63.5 143t-35.5 157t-12 161.5zM156 496q0 -95 13.5 -183.5t46 -176t81.5 -152t126.5 -104.5t174.5 -40q62 0 130 38.5t123 97t98 121.5t67 120q46 109 67 238l-155 -33q-21 3 -21 16 q0 17 27.5 43.5t44.5 34.5l115 21q8 94 8 145q0 101 -17.5 202.5t-57 199.5t-96.5 173.5t-143 121.5t-190 46q-77 0 -144 -37.5t-115.5 -101t-82 -138t-51.5 -157.5q47 97 139.5 175.5t194.5 78.5q35 0 67.5 -18t38.5 -47q-2 -21 -26.5 -51.5t-47.5 -30.5q-12 0 -20 8v10 q-28 35 -76 35q-45 0 -87 -25.5t-72.5 -64t-56.5 -89t-42 -96t-27 -90.5q7 -82 39 -114q0 -15 -10 -31t-26 -16q-7 0 -15.5 9t-11.5 19q-10 -82 -10 -157z" />
<glyph unicode="&#x153;" horiz-adv-x="659" d="M6 252q0 141 64 235q13 23 39 42.5t49 19.5q28 0 39 -33q40 35 86 35q75 0 104 -86q65 141 166 141q55 0 55 -63q0 -76 -59 -158t-133 -115q-4 -40 -4 -57q0 -36 7 -69.5t24.5 -59t43.5 -25.5q96 0 187 220q6 13 33.5 38t44.5 25q12 0 12 -27q-61 -142 -155 -245 t-181 -103q-76 0 -100 94q-76 -94 -164 -94q-38 0 -67 19.5t-45.5 49t-27.5 69.5t-14.5 75.5t-3.5 71.5zM100 291q0 -48 10.5 -96.5t38.5 -88.5t68 -40q100 0 100 180q-12 -2 -36 -2q-73 0 -115.5 38t-42.5 95q0 29 12 59q-35 -11 -35 -145zM203 410q0 -39 30.5 -68 t79.5 -35q-20 148 -98 148q-12 -24 -12 -45zM428 350l23 10q28 23 45.5 60t17.5 74q0 28 -10 28q-7 0 -19 -12q-36 -60 -57 -160z" />
<glyph unicode="&#x178;" horiz-adv-x="1361" d="M74 922q0 68 31.5 141t83 136t107 114.5t112.5 91.5q39 28 92.5 51t97.5 23q115 0 115 -187q0 -54 -4 -94q-4 -72 -31 -347t-27 -425q0 -254 84 -254q119 0 244 199q83 128 136.5 282t68.5 312l-10 75q-1 9 -9 49t-8 62q0 23 4 33v8q4 18 30 48t46 30q12 0 18 -15 q0 -16 -2 -24q0 -84 23.5 -242.5t26.5 -191.5q18 -191 18 -320q0 -438 -186 -723q-96 -149 -252.5 -242.5t-325.5 -93.5q-141 0 -219 84t-78 248q0 211 62 211q6 0 6 -12q-17 -76 -17 -139q0 -166 75 -245t208 -79q80 0 156 22q130 37 228 126t154 209.5t83.5 252 t27.5 271.5q0 179 -26 372l-9 58q-64 -275 -221 -486q-57 -78 -136 -144.5t-155 -66.5q-19 0 -37 6q-67 19 -75 238q-2 16 -2 49q0 145 25.5 430t25.5 428q0 44 -5 72.5t-25 51t-56 22.5q-49 0 -115 -38t-125 -95t-100 -132.5t-41 -142.5q0 -59 39.5 -122t105.5 -83 q22 15 35 15q12 0 12 -13q0 -33 -38.5 -62.5t-67.5 -29.5q-49 0 -91.5 39t-64.5 91t-22 98zM266 743q2 3 6 5l-4 -3zM764 1663q0 40 63 49q26 0 35.5 -8.5t9.5 -30.5q0 -26 -15 -54q-19 -31 -50 -32q-43 3 -43 76zM1001 1663q0 49 60 49q25 -5 36 -14.5t11 -30.5 q0 -30 -21 -55t-53 -25q-33 0 -33 76z" />
<glyph unicode="&#x2c6;" horiz-adv-x="24" d="M-160 770q0 13 15 37q113 168 163 168q20 0 41.5 -29.5t43 -71.5t28.5 -51v-6q0 -12 -12.5 -26.5t-24.5 -14.5q-10 0 -29.5 19t-46.5 52t-36 42l-11 -12q-28 -37 -41 -62q-12 -18 -38.5 -36.5t-41.5 -18.5q-10 0 -10 10z" />
<glyph unicode="&#x2dc;" horiz-adv-x="28" d="M-166 821q0 5 4 21q27 66 73 109.5t75 43.5q20 0 37 -19t38 -47.5t45 -43.5q8 11 20 39.5t25 44.5t31 16q4 0 4 -6t-2 -12q-2 -4 -10 -27.5t-15.5 -40.5t-20.5 -38t-31.5 -32.5t-40.5 -11.5q-27 0 -66.5 42.5t-54.5 51.5q-6 -8 -23 -47q-9 -15 -35.5 -36t-42.5 -21 q-10 0 -10 14z" />
<glyph unicode="&#x2000;" horiz-adv-x="900" />
<glyph unicode="&#x2001;" horiz-adv-x="1801" />
<glyph unicode="&#x2002;" horiz-adv-x="900" />
<glyph unicode="&#x2003;" horiz-adv-x="1801" />
<glyph unicode="&#x2004;" horiz-adv-x="600" />
<glyph unicode="&#x2005;" horiz-adv-x="450" />
<glyph unicode="&#x2006;" horiz-adv-x="300" />
<glyph unicode="&#x2007;" horiz-adv-x="300" />
<glyph unicode="&#x2008;" horiz-adv-x="225" />
<glyph unicode="&#x2009;" horiz-adv-x="360" />
<glyph unicode="&#x200a;" horiz-adv-x="100" />
<glyph unicode="&#x2010;" horiz-adv-x="362" d="M2 231q-24 24 10.5 58.5t63.5 36.5q43 -10 132 -15.5t132 -15.5q16 -8 -0.5 -26t-30.5 -23q-28 -2 -95 -7t-116.5 -7.5t-95.5 -0.5z" />
<glyph unicode="&#x2011;" horiz-adv-x="362" d="M2 231q-24 24 10.5 58.5t63.5 36.5q43 -10 132 -15.5t132 -15.5q16 -8 -0.5 -26t-30.5 -23q-28 -2 -95 -7t-116.5 -7.5t-95.5 -0.5z" />
<glyph unicode="&#x2012;" horiz-adv-x="362" d="M2 231q-24 24 10.5 58.5t63.5 36.5q43 -10 132 -15.5t132 -15.5q16 -8 -0.5 -26t-30.5 -23q-28 -2 -95 -7t-116.5 -7.5t-95.5 -0.5z" />
<glyph unicode="&#x2013;" horiz-adv-x="614" d="M0 209v94h614v-94h-614z" />
<glyph unicode="&#x2014;" horiz-adv-x="911" d="M2 205v98h909v-98h-909z" />
<glyph unicode="&#x2018;" horiz-adv-x="223" d="M59 670q0 66 22.5 136t65.5 107q15 11 23 11t8 -9l-9 -19q-9 -20 -17.5 -54t-8.5 -70q0 -78 17 -78h6q20 -3 20 -16q0 -21 -31 -48.5t-53 -29.5q-43 5 -43 70z" />
<glyph unicode="&#x2019;" horiz-adv-x="157" d="M16 846q0 21 31 48.5t53 29.5q43 -5 43 -70q0 -66 -22.5 -136.5t-65.5 -107.5q-13 -10 -22 -10q-8 0 -8 8l9 20q8 19 16.5 53.5t8.5 70.5q0 77 -16 77h-6q-21 3 -21 17z" />
<glyph unicode="&#x201a;" horiz-adv-x="227" d="M41 18q0 21 31 48.5t53 29.5q43 -5 43 -69q0 -66 -22.5 -136.5t-65.5 -107.5q-13 -10 -23 -10q-8 0 -8 8l9 19q8 20 17 54t9 70q0 78 -16 78h-7q-20 3 -20 16z" />
<glyph unicode="&#x201c;" horiz-adv-x="315" d="M41 670q0 66 22.5 136t65.5 107q15 11 23 11t8 -9l-9 -19q-9 -20 -17.5 -54t-8.5 -70q0 -78 16 -78h6q21 -3 21 -16q0 -21 -31 -48.5t-53 -29.5q-43 5 -43 70zM182 670q0 66 22.5 136t65.5 107q15 11 23 11t8 -9l-9 -19q-8 -20 -17 -54t-9 -70q0 -78 17 -78h6 q20 -3 20 -16q0 -21 -31 -48.5t-53 -29.5q-43 5 -43 70z" />
<glyph unicode="&#x201d;" horiz-adv-x="315" d="M41 846q0 21 31 48.5t53 29.5q43 -5 43 -70q0 -66 -22.5 -136.5t-65.5 -107.5q-13 -10 -23 -10q-8 0 -8 8l9 20q8 19 17 53.5t9 70.5q0 77 -16 77h-7q-20 3 -20 17zM197 846q0 21 31 48.5t53 29.5q43 -5 43 -70q0 -66 -22.5 -136.5t-65.5 -107.5q-13 -10 -23 -10 q-8 0 -8 8l9 20q8 19 17 53.5t9 70.5q0 77 -17 77h-6q-20 3 -20 17z" />
<glyph unicode="&#x201e;" horiz-adv-x="292" d="M12 18q0 21 31 48.5t53 29.5q43 -5 43 -69q0 -66 -22.5 -136.5t-65.5 -107.5q-13 -10 -22 -10t-9 8l9 19q9 20 17.5 54t8.5 70q0 78 -16 78h-6q-21 3 -21 16zM152 18q0 21 31 48.5t53 29.5q43 -5 43 -69q0 -65 -22.5 -136t-66.5 -108q-13 -10 -22 -10q-8 0 -8 8l9 19 q9 20 17.5 54t8.5 70q0 78 -17 78h-6q-20 3 -20 16z" />
<glyph unicode="&#x2022;" horiz-adv-x="872" d="M123 578v10l8 8h55l11 -12q40 -133 143 -178q2 0 22.5 -8.5t22.5 -8.5q1 -1 5.5 -3.5t8.5 -5.5t4 -5v-62q0 -8 -16 -8q-87 0 -175.5 91.5t-88.5 181.5zM123 672q0 56 42 117t104.5 100t117.5 39q19 0 23 -10v-15q0 -36 -15 -45q-132 -30 -180 -141q-1 -2 -6 -19t-11 -31 t-12 -14h-55q-8 0 -8 19zM266 623q0 69 49.5 118.5t118.5 49.5t118.5 -49.5t49.5 -118.5t-49.5 -118.5t-118.5 -49.5t-118.5 49.5t-49.5 118.5zM457 317v58q0 3 26.5 14t58 25t40.5 24q61 53 88 146l12 12h43q10 0 10 -16q0 -50 -43.5 -115t-106 -110.5t-112.5 -45.5 q-16 0 -16 8zM465 870v48q0 10 18 10q84 0 168 -88t84 -172q0 -15 -6 -15h-47l-12 13q-38 127 -144 174q-4 3 -19.5 8t-28.5 10.5t-13 11.5z" />
<glyph unicode="&#x2026;" horiz-adv-x="526" d="M70 66q0 63 69 63q14 0 30.5 -16.5t16.5 -46.5q-3 -66 -71 -66q-25 0 -36.5 18.5t-8.5 47.5zM215 66q0 32 19.5 47.5t50.5 15.5q14 0 30.5 -16.5t16.5 -46.5q-3 -66 -72 -66q-25 0 -36.5 18.5t-8.5 47.5zM362 66q0 32 19.5 47.5t50.5 15.5q14 0 30.5 -16.5t16.5 -46.5 q-3 -66 -71 -66q-25 0 -37 18.5t-9 47.5z" />
<glyph unicode="&#x202f;" horiz-adv-x="360" />
<glyph unicode="&#x2039;" horiz-adv-x="253" d="M39 248q0 14 2 18q15 33 55 99.5t56 105.5q13 26 52 50q40 26 39 0q0 -10 -7 -27q-49 -93 -95 -160l-26 -37q64 -96 102 -219q-2 -13 -19 -30.5t-28 -6.5q-74 137 -131 207z" />
<glyph unicode="&#x203a;" horiz-adv-x="272" d="M26 82q0 10 7 27q50 95 94 159l27 37q-65 99 -103 219q2 13 19 30.5t28 6.5q74 -137 131 -207q0 -14 -2 -18q-15 -33 -54.5 -99.5t-55.5 -105.5q-13 -26 -52 -50q-40 -25 -39 1z" />
<glyph unicode="&#x205f;" horiz-adv-x="450" />
<glyph unicode="&#x20ac;" horiz-adv-x="849" d="M27 508q0 14 18.5 34t40.5 33q4 98 16 164h-55q-20 3 -20 17q0 21 31 48.5t53 29.5q1 0 4.5 -1.5t5.5 -1.5q11 46 29 97.5t45 112.5t62 115t76 99.5t93 72t106 26.5q108 0 194 -75.5t93 -180.5q-2 -22 -29.5 -53t-48.5 -31q-13 0 -16 20q-5 80 -76.5 157t-152.5 77 q-47 0 -89 -22.5t-73 -62.5t-56 -83.5t-43.5 -98t-29.5 -93.5t-21 -81q18 -1 133 -1t201 -4t86 -15q0 -10 -15 -23.5t-24 -15.5q-50 -3 -186 -13.5t-211 -13.5q-12 -66 -16 -159q62 -3 212 -4.5t230 -8.5q8 -4 8 -10q0 -10 -15 -23.5t-24 -15.5q-47 -3 -189 -13t-220 -13 q11 -214 108 -331.5t232 -117.5q147 0 278 119q11 8 19 8q6 0 6 -8q0 -14 -13 -27q-76 -72 -166 -112.5t-178 -40.5q-150 0 -248 126t-108 382h-37q-20 3 -20 16z" />
<glyph unicode="&#x2122;" horiz-adv-x="1212" d="M57 1290q0 39 30 62.5t63 23.5q19 0 41 -5t50 -13.5t40 -11.5l14 -5v23q2 12 21.5 35.5t33.5 23.5q10 0 15 -10l-7 -88l29 -4q51 -9 62 -10q29 59 72 101t79 42q109 0 109 -233v-148l12 84q1 6 4.5 42t8 60t14 55.5t28 49.5t43.5 20h2q20 0 28 -50.5t8.5 -147.5t0.5 -101 v2q0 2 3 43t8 71.5t14 55.5q5 13 25.5 29.5t33.5 16.5q21 0 29 -37t8 -66q0 -14 -2 -41.5t-2 -36.5q0 -196 17 -261q18 -61 50 -62q20 0 60 24q7 4 23.5 17t30 22.5t18.5 9.5q4 0 4 -6q0 -32 -66.5 -72t-107.5 -40q-46 0 -58.5 33.5t-20.5 142.5q-1 7 -1 10q-2 24 -7 75.5 t-7.5 91t-2.5 75.5l-4 -70q-2 -20 -4 -68t-5 -86t-10 -79.5t-22.5 -68.5t-38.5 -34h-4q-8 2 -14 36t-6 85q0 19 1 47.5t1 34.5q-1 10 -2.5 81.5t-6.5 124t-16 91.5q-10 -39 -19.5 -95t-14 -91.5t-11.5 -99.5t-8 -72q-1 -7 -4.5 -60.5t-11.5 -77.5v-6q-29 -33 -45 -33 q-9 0 -9 11q0 73 1 217t1 215q0 207 -86 207q-34 0 -53 -43q2 2 10 2q6 -3 6 -9q0 -14 -24 -26l-19 -23q-28 -70 -28 -139q0 -126 96 -162q23 0 37 4q20 0 20 -10q0 -30 -34.5 -46.5t-53.5 -16.5q-65 0 -98 55t-33 131q0 70 31 154q-10 -2 -35 -2t-37 2l-14 -191 q-1 -8 -4 -57.5t-6.5 -85.5t-10.5 -80.5t-19 -69t-28 -24.5q-4 0 -4 12q9 24 13 81.5t5 122t1 66.5q6 137 6 236q-19 4 -77 19t-85 18q-5 -19 -21 -38.5t-32 -19.5q-21 0 -21 39z" />
<glyph unicode="&#x25fc;" horiz-adv-x="522" d="M0 0v522h522v-522h-522z" />
<glyph unicode="&#xfb01;" horiz-adv-x="505" d="M-98 401q0 16 21 42.5t36 35.5q53 24 102 51q8 124 25 291q22 242 42 340q23 113 60 197q21 46 58.5 84.5t79.5 38.5q21 0 35 -13t14 -36q0 -16 -29.5 -53.5t-56.5 -37.5q-5 0 -9 4.5t-1 10.5q9 17 1 29q-4 5 -8 -1q-19 -29 -34.5 -73.5t-25 -84t-18.5 -101t-13 -94 t-10 -95t-7 -74.5q-18 -143 -27 -289q41 26 84.5 55t105 71t83.5 57q11 8 18 8q6 0 6 -6q0 -18 -20 -35q-132 -109 -281 -211q-16 -352 -16 -532q0 -338 12 -510q-2 -9 -16.5 -25t-24.5 -16q-20 0 -31.5 246.5t-11.5 390.5q0 200 12 399q-75 -48 -120 -70q-16 -4 -21 -4 q-14 0 -14 10zM213 307q0 24 1 70t1 67q4 18 30 48t46 30q12 0 18 -14q-12 -165 -12 -205q0 -177 72 -244l26 -6q54 38 95.5 106t66.5 142q4 6 18 18.5t21 12.5q6 0 6 -13q-36 -158 -182 -301q-36 -36 -78 -36q-38 0 -65.5 34t-40.5 88.5t-18 104t-5 98.5zM227 735 q0 24 24.5 55t51.5 31q13 0 16 -21.5t19 -21.5q4 0 12 1t12 1q27 0 27 -6q0 -24 -36.5 -46.5t-67.5 -22.5q-37 0 -58 30z" />
<glyph unicode="&#xfb02;" horiz-adv-x="538" d="M-98 401q0 16 21 42.5t36 35.5q53 24 102 51q8 124 25 291q22 242 42 340q23 113 60 197q21 46 58.5 84.5t79.5 38.5q21 0 35 -13t14 -36q0 -16 -29.5 -53.5t-56.5 -37.5q-5 0 -9 4.5t-1 10.5q9 17 1 29q-4 5 -8 -1q-19 -29 -34.5 -73.5t-25 -84t-18.5 -101t-13 -94 t-10 -95t-7 -74.5q-18 -143 -27 -289q41 26 84.5 55t105 71t83.5 57q11 8 18 8q6 0 6 -6q0 -18 -20 -35q-132 -109 -281 -211q-16 -352 -16 -532q0 -338 12 -510q-2 -9 -16.5 -25t-24.5 -16q-20 0 -31.5 246.5t-11.5 390.5q0 200 12 399q-75 -48 -120 -70q-16 -4 -21 -4 q-14 0 -14 10zM240 401q0 241 36 498q37 306 99 496q6 13 33.5 38t44.5 25q12 0 12 -20v-6q-79 -228 -118.5 -518.5t-39.5 -555.5q0 -225 72 -305q12 -4 16 -4q46 0 111.5 86t83.5 164q2 8 17 22.5t24 14.5q6 0 6 -12q-18 -112 -116 -225t-171 -113q-110 0 -110 415z" />
</font>
</defs>
</svg>
